<mxfile host="Electron" modified="2024-12-12T01:44:06.976Z" agent="Mozilla/5.0 (Windows NT 10.0; Win64; x64) AppleWebKit/537.36 (KHTML, like Gecko) draw.io/24.1.0 Chrome/120.0.6099.109 Electron/28.1.0 Safari/537.36" etag="O-EEGEF8qQU9gskRPO_3" version="24.1.0" type="device">
  <diagram name="Page-1" id="P59Lyu239e4J4kp7QW-E">
    <mxGraphModel dx="10094" dy="5544" grid="1" gridSize="10" guides="1" tooltips="1" connect="1" arrows="1" fold="1" page="1" pageScale="1" pageWidth="850" pageHeight="1100" math="0" shadow="0">
      <root>
        <mxCell id="0" />
        <mxCell id="1" parent="0" />
        <mxCell id="HHI03vcwuIw9m70cMw0Q-1" value="" style="rounded=0;whiteSpace=wrap;html=1;" vertex="1" parent="1">
          <mxGeometry x="-2100" y="-1670" width="8670" height="4820" as="geometry" />
        </mxCell>
        <mxCell id="HHI03vcwuIw9m70cMw0Q-2" value="" style="rounded=0;whiteSpace=wrap;html=1;strokeWidth=5;" vertex="1" parent="1">
          <mxGeometry x="710" y="664.5" width="3510" height="1210" as="geometry" />
        </mxCell>
        <mxCell id="HHI03vcwuIw9m70cMw0Q-3" value="" style="rounded=0;whiteSpace=wrap;html=1;strokeWidth=5;strokeColor=#00CC00;" vertex="1" parent="1">
          <mxGeometry x="2110" y="1060" width="2050" height="760" as="geometry" />
        </mxCell>
        <mxCell id="HHI03vcwuIw9m70cMw0Q-4" value="" style="rounded=0;whiteSpace=wrap;html=1;strokeWidth=5;" vertex="1" parent="1">
          <mxGeometry x="-640" y="-960" width="1300" height="1680" as="geometry" />
        </mxCell>
        <mxCell id="HHI03vcwuIw9m70cMw0Q-5" value="" style="rounded=0;whiteSpace=wrap;html=1;strokeWidth=5;strokeColor=#0000CC;" vertex="1" parent="1">
          <mxGeometry x="900" y="-430" width="2710" height="1000" as="geometry" />
        </mxCell>
        <mxCell id="HHI03vcwuIw9m70cMw0Q-6" value="" style="rounded=0;whiteSpace=wrap;html=1;strokeWidth=4;strokeColor=#FFFF00;" vertex="1" parent="1">
          <mxGeometry x="-200" y="-860" width="700" height="480" as="geometry" />
        </mxCell>
        <mxCell id="HHI03vcwuIw9m70cMw0Q-7" value="" style="rounded=0;whiteSpace=wrap;html=1;strokeWidth=4;strokeColor=#FF0080;" vertex="1" parent="1">
          <mxGeometry x="-540" y="-240" width="1053" height="770" as="geometry" />
        </mxCell>
        <mxCell id="HHI03vcwuIw9m70cMw0Q-29" value="" style="endArrow=block;endSize=10;endFill=0;shadow=0;strokeWidth=4;rounded=0;curved=0;edgeStyle=elbowEdgeStyle;elbow=vertical;exitX=0.5;exitY=1;exitDx=0;exitDy=0;entryX=0.5;entryY=0;entryDx=0;entryDy=0;" edge="1" parent="1" source="HHI03vcwuIw9m70cMw0Q-146" target="HHI03vcwuIw9m70cMw0Q-147">
          <mxGeometry width="160" relative="1" as="geometry">
            <mxPoint x="315" y="-10" as="sourcePoint" />
            <mxPoint x="315" y="120" as="targetPoint" />
          </mxGeometry>
        </mxCell>
        <mxCell id="HHI03vcwuIw9m70cMw0Q-34" value="" style="endArrow=diamondThin;endFill=0;endSize=24;html=1;rounded=0;entryX=1;entryY=0.5;entryDx=0;entryDy=0;exitX=0;exitY=0.5;exitDx=0;exitDy=0;strokeWidth=4;" edge="1" parent="1" source="HHI03vcwuIw9m70cMw0Q-142" target="HHI03vcwuIw9m70cMw0Q-141">
          <mxGeometry width="160" relative="1" as="geometry">
            <mxPoint x="330" y="230" as="sourcePoint" />
            <mxPoint x="120" y="209" as="targetPoint" />
          </mxGeometry>
        </mxCell>
        <mxCell id="HHI03vcwuIw9m70cMw0Q-70" value="" style="endArrow=classic;html=1;rounded=0;entryX=0;entryY=0.75;entryDx=0;entryDy=0;exitX=1;exitY=0.5;exitDx=0;exitDy=0;strokeColor=#0000CC;strokeWidth=4;" edge="1" parent="1" source="HHI03vcwuIw9m70cMw0Q-156" target="HHI03vcwuIw9m70cMw0Q-157">
          <mxGeometry width="50" height="50" relative="1" as="geometry">
            <mxPoint x="2450" y="259" as="sourcePoint" />
            <mxPoint x="2630" y="41" as="targetPoint" />
          </mxGeometry>
        </mxCell>
        <mxCell id="HHI03vcwuIw9m70cMw0Q-71" value="" style="endArrow=classic;html=1;rounded=0;strokeColor=#0000CC;strokeWidth=4;exitX=0;exitY=0.5;exitDx=0;exitDy=0;" edge="1" parent="1" source="HHI03vcwuIw9m70cMw0Q-156">
          <mxGeometry width="50" height="50" relative="1" as="geometry">
            <mxPoint x="2130" y="259" as="sourcePoint" />
            <mxPoint x="1840" y="330" as="targetPoint" />
          </mxGeometry>
        </mxCell>
        <mxCell id="HHI03vcwuIw9m70cMw0Q-72" value="" style="endArrow=classic;html=1;rounded=0;entryX=0;entryY=0.5;entryDx=0;entryDy=0;exitX=1;exitY=0.5;exitDx=0;exitDy=0;strokeWidth=4;strokeColor=#FF0080;" edge="1" parent="1" target="HHI03vcwuIw9m70cMw0Q-150">
          <mxGeometry width="50" height="50" relative="1" as="geometry">
            <mxPoint x="410" y="159" as="sourcePoint" />
            <mxPoint x="1290" y="55" as="targetPoint" />
          </mxGeometry>
        </mxCell>
        <mxCell id="HHI03vcwuIw9m70cMw0Q-73" value="" style="endArrow=classic;html=1;rounded=0;entryX=0.5;entryY=0;entryDx=0;entryDy=0;exitX=0.25;exitY=1;exitDx=0;exitDy=0;strokeColor=#0000CC;strokeWidth=5;" edge="1" parent="1" source="HHI03vcwuIw9m70cMw0Q-155" target="HHI03vcwuIw9m70cMw0Q-158">
          <mxGeometry width="50" height="50" relative="1" as="geometry">
            <mxPoint x="1321.38" y="370.0020000000004" as="sourcePoint" />
            <mxPoint x="990" y="740" as="targetPoint" />
          </mxGeometry>
        </mxCell>
        <mxCell id="HHI03vcwuIw9m70cMw0Q-74" value="" style="endArrow=classic;html=1;rounded=0;exitX=0.75;exitY=1;exitDx=0;exitDy=0;entryX=0.5;entryY=0;entryDx=0;entryDy=0;strokeColor=#0000CC;strokeWidth=5;" edge="1" parent="1" source="HHI03vcwuIw9m70cMw0Q-155" target="HHI03vcwuIw9m70cMw0Q-163">
          <mxGeometry width="50" height="50" relative="1" as="geometry">
            <mxPoint x="1780" y="374" as="sourcePoint" />
            <mxPoint x="2310" y="800" as="targetPoint" />
          </mxGeometry>
        </mxCell>
        <mxCell id="HHI03vcwuIw9m70cMw0Q-75" value="" style="endArrow=classic;html=1;rounded=0;entryX=0;entryY=0.5;entryDx=0;entryDy=0;exitX=0.5;exitY=1;exitDx=0;exitDy=0;strokeWidth=5;" edge="1" parent="1" source="HHI03vcwuIw9m70cMw0Q-158" target="HHI03vcwuIw9m70cMw0Q-161">
          <mxGeometry width="50" height="50" relative="1" as="geometry">
            <mxPoint x="990" y="890" as="sourcePoint" />
            <mxPoint x="1260" y="1315" as="targetPoint" />
          </mxGeometry>
        </mxCell>
        <mxCell id="HHI03vcwuIw9m70cMw0Q-76" value="" style="endArrow=classic;html=1;rounded=0;entryX=0.5;entryY=0;entryDx=0;entryDy=0;exitX=0.5;exitY=1;exitDx=0;exitDy=0;strokeWidth=4;" edge="1" parent="1" target="HHI03vcwuIw9m70cMw0Q-161">
          <mxGeometry width="50" height="50" relative="1" as="geometry">
            <mxPoint x="1660" y="930" as="sourcePoint" />
            <mxPoint x="1490" y="1250" as="targetPoint" />
          </mxGeometry>
        </mxCell>
        <mxCell id="HHI03vcwuIw9m70cMw0Q-77" value="" style="endArrow=classic;html=1;rounded=0;exitX=0.5;exitY=1;exitDx=0;exitDy=0;strokeColor=#0000CC;strokeWidth=5;entryX=0.5;entryY=0;entryDx=0;entryDy=0;" edge="1" parent="1" source="HHI03vcwuIw9m70cMw0Q-155" target="HHI03vcwuIw9m70cMw0Q-159">
          <mxGeometry width="50" height="50" relative="1" as="geometry">
            <mxPoint x="1548.1599999999999" y="378.634" as="sourcePoint" />
            <mxPoint x="1650" y="770" as="targetPoint" />
          </mxGeometry>
        </mxCell>
        <mxCell id="HHI03vcwuIw9m70cMw0Q-78" value="" style="endArrow=classic;html=1;rounded=0;entryX=1;entryY=0.25;entryDx=0;entryDy=0;exitX=0.5;exitY=1;exitDx=0;exitDy=0;strokeWidth=5;" edge="1" parent="1" source="HHI03vcwuIw9m70cMw0Q-163" target="HHI03vcwuIw9m70cMw0Q-161">
          <mxGeometry width="50" height="50" relative="1" as="geometry">
            <mxPoint x="2310" y="950" as="sourcePoint" />
            <mxPoint x="1720" y="1341" as="targetPoint" />
          </mxGeometry>
        </mxCell>
        <mxCell id="HHI03vcwuIw9m70cMw0Q-91" value="" style="endArrow=classic;html=1;rounded=0;entryX=0.5;entryY=0;entryDx=0;entryDy=0;strokeColor=#0000CC;strokeWidth=4;exitX=0.5;exitY=1;exitDx=0;exitDy=0;" edge="1" parent="1" source="HHI03vcwuIw9m70cMw0Q-150">
          <mxGeometry width="50" height="50" relative="1" as="geometry">
            <mxPoint x="1570" y="154" as="sourcePoint" />
            <mxPoint x="1550" y="204" as="targetPoint" />
          </mxGeometry>
        </mxCell>
        <mxCell id="HHI03vcwuIw9m70cMw0Q-92" value="" style="endArrow=classic;html=1;rounded=0;entryX=0.5;entryY=0;entryDx=0;entryDy=0;strokeColor=#FFFF00;strokeWidth=4;" edge="1" parent="1" source="HHI03vcwuIw9m70cMw0Q-152" target="HHI03vcwuIw9m70cMw0Q-153">
          <mxGeometry width="50" height="50" relative="1" as="geometry">
            <mxPoint x="100" y="-711" as="sourcePoint" />
            <mxPoint x="2125" y="-350" as="targetPoint" />
          </mxGeometry>
        </mxCell>
        <mxCell id="HHI03vcwuIw9m70cMw0Q-93" value="" style="endArrow=classic;html=1;rounded=0;entryX=0.5;entryY=0;entryDx=0;entryDy=0;exitX=0.5;exitY=1;exitDx=0;exitDy=0;strokeColor=#0000CC;strokeWidth=4;" edge="1" parent="1" source="HHI03vcwuIw9m70cMw0Q-153" target="HHI03vcwuIw9m70cMw0Q-156">
          <mxGeometry width="50" height="50" relative="1" as="geometry">
            <mxPoint x="2275" y="-259" as="sourcePoint" />
            <mxPoint x="2290" y="220" as="targetPoint" />
          </mxGeometry>
        </mxCell>
        <mxCell id="HHI03vcwuIw9m70cMw0Q-98" value="" style="endArrow=classic;html=1;rounded=0;exitX=0.5;exitY=1;exitDx=0;exitDy=0;strokeColor=#0000CC;strokeWidth=5;" edge="1" parent="1" source="HHI03vcwuIw9m70cMw0Q-157" target="HHI03vcwuIw9m70cMw0Q-164">
          <mxGeometry width="50" height="50" relative="1" as="geometry">
            <mxPoint x="2860" y="113.99999999999909" as="sourcePoint" />
            <mxPoint x="3160" y="790" as="targetPoint" />
          </mxGeometry>
        </mxCell>
        <mxCell id="HHI03vcwuIw9m70cMw0Q-111" value="" style="shape=actor;whiteSpace=wrap;html=1;strokeWidth=7;" vertex="1" parent="1">
          <mxGeometry x="-1540" y="-66" width="260" height="350" as="geometry" />
        </mxCell>
        <mxCell id="HHI03vcwuIw9m70cMw0Q-124" value="" style="endArrow=diamondThin;endFill=0;endSize=24;html=1;rounded=0;entryX=1;entryY=0.5;entryDx=0;entryDy=0;exitX=0;exitY=0.5;exitDx=0;exitDy=0;strokeColor=#00CC00;strokeWidth=5;" edge="1" parent="1" source="HHI03vcwuIw9m70cMw0Q-168">
          <mxGeometry width="160" relative="1" as="geometry">
            <mxPoint x="2890" y="1258.999999999999" as="sourcePoint" />
            <mxPoint x="2740" y="1260" as="targetPoint" />
          </mxGeometry>
        </mxCell>
        <mxCell id="HHI03vcwuIw9m70cMw0Q-126" value="" style="endArrow=diamondThin;endFill=1;endSize=24;html=1;rounded=0;entryX=0;entryY=0.5;entryDx=0;entryDy=0;exitX=1;exitY=0.5;exitDx=0;exitDy=0;strokeColor=#00CC00;strokeWidth=5;" edge="1" parent="1" source="HHI03vcwuIw9m70cMw0Q-168" target="HHI03vcwuIw9m70cMw0Q-169">
          <mxGeometry width="160" relative="1" as="geometry">
            <mxPoint x="3050" y="1258.999999999999" as="sourcePoint" />
            <mxPoint x="3320" y="1255" as="targetPoint" />
            <Array as="points">
              <mxPoint x="3380" y="1230" />
              <mxPoint x="3320" y="1340" />
            </Array>
          </mxGeometry>
        </mxCell>
        <mxCell id="HHI03vcwuIw9m70cMw0Q-127" value="" style="endArrow=classic;html=1;rounded=0;entryX=0.5;entryY=0;entryDx=0;entryDy=0;exitX=0;exitY=0.5;exitDx=0;exitDy=0;strokeColor=#0000CC;strokeWidth=4;" edge="1" parent="1" source="HHI03vcwuIw9m70cMw0Q-153" target="HHI03vcwuIw9m70cMw0Q-150">
          <mxGeometry width="50" height="50" relative="1" as="geometry">
            <mxPoint x="1975" y="-284.99999999999955" as="sourcePoint" />
            <mxPoint x="1595" y="-10" as="targetPoint" />
          </mxGeometry>
        </mxCell>
        <mxCell id="HHI03vcwuIw9m70cMw0Q-128" value="" style="endArrow=classic;html=1;rounded=0;exitX=1;exitY=0.5;exitDx=0;exitDy=0;strokeWidth=4;strokeColor=#0000CC;entryX=0;entryY=0.25;entryDx=0;entryDy=0;" edge="1" parent="1" source="HHI03vcwuIw9m70cMw0Q-150" target="HHI03vcwuIw9m70cMw0Q-157">
          <mxGeometry width="50" height="50" relative="1" as="geometry">
            <mxPoint x="1900" y="81" as="sourcePoint" />
            <mxPoint x="2640" y="-10" as="targetPoint" />
          </mxGeometry>
        </mxCell>
        <mxCell id="HHI03vcwuIw9m70cMw0Q-129" style="edgeStyle=orthogonalEdgeStyle;rounded=0;orthogonalLoop=1;jettySize=auto;html=1;exitX=0.75;exitY=0;exitDx=0;exitDy=0;entryX=0.873;entryY=0.022;entryDx=0;entryDy=0;entryPerimeter=0;" edge="1" parent="1">
          <mxGeometry relative="1" as="geometry">
            <mxPoint x="2370" y="220" as="sourcePoint" />
            <mxPoint x="2409.3600000000006" y="223.03600000000006" as="targetPoint" />
          </mxGeometry>
        </mxCell>
        <mxCell id="HHI03vcwuIw9m70cMw0Q-130" value="" style="shape=image;verticalLabelPosition=bottom;labelBackgroundColor=default;verticalAlign=top;aspect=fixed;imageAspect=0;image=https://thegivingblock.com/wp-content/uploads/2021/07/Ethereum-ETH-Logo.png;" vertex="1" parent="1">
          <mxGeometry x="-590" y="-810" width="340" height="340" as="geometry" />
        </mxCell>
        <mxCell id="HHI03vcwuIw9m70cMw0Q-131" value="" style="shape=image;verticalLabelPosition=bottom;labelBackgroundColor=default;verticalAlign=top;aspect=fixed;imageAspect=0;image=https://thegivingblock.com/wp-content/uploads/2021/07/Ethereum-ETH-Logo.png;" vertex="1" parent="1">
          <mxGeometry x="890" y="1330" width="340" height="340" as="geometry" />
        </mxCell>
        <mxCell id="HHI03vcwuIw9m70cMw0Q-132" value="" style="shape=image;verticalLabelPosition=bottom;labelBackgroundColor=default;verticalAlign=top;aspect=fixed;imageAspect=0;image=https://upload.wikimedia.org/wikipedia/commons/thumb/e/e7/Uniswap_Logo.svg/2051px-Uniswap_Logo.svg.png;" vertex="1" parent="1">
          <mxGeometry x="-310" y="-210" width="310.13" height="309.62" as="geometry" />
        </mxCell>
        <mxCell id="HHI03vcwuIw9m70cMw0Q-133" value="" style="shape=image;verticalLabelPosition=bottom;labelBackgroundColor=default;verticalAlign=top;aspect=fixed;imageAspect=0;image=data:image/png,iVBORw0KGgoAAAANSUhEUgAAATIAAAEQCAYAAAAzovj4AAAAAXNSR0IArs4c6QAAAARnQU1BAACxjwv8YQUAAAAJcEhZcwAADsMAAA7DAcdvqGQAAHQKSURBVHhe7Z0FeBRnE8eHuJMACU7w4O7u7k6xIqWluBQt3kKhfDjFC8Xd3d0dYkggxN1d+N55b4/k7nbv9u72JMn++uS5fRcakrvd2Zl5Z/6T7xsBRERERHIwJsyriIiISI5FNGQiIiI5HtGQiYiI5HhEQyYiIpLjEQ2ZiIhIjkc0ZCIiIjke0ZCJiIjkeERDJiIikuMRDZmIiEiORzRkIiIiOR7RkImIiOR4REMmIiKS4xENmYiISI5HNGQiIiI5HtGQiYiI5HhEQyYiIpLjEYUVcwExcQnw/tNX8CZfHz/7Q0BwGISERUJoRDTExydCQlIyZGRkgolJPvhlWC+YPXEY83+KiOQOREOWAwmPjIG7j1/Dk5ce8PiFO3wgxovPx1jUpSDcPL4R7GytmTOGAX/W5JRUSE1Lh9TUNEgjrylpaWBuZgrWVpZgZWlJXi2I4RUDBhF+iIYshxAUEg4Xbz6GC9cfEAPmCZmZmcyf8Gf7qtnQuU0jZqUbQsOjwC8whHyFgn9QGASQr6DQCIiKiYOoqFj6ih4kn5/fwtycGjZrawtifG2oIS5R1AWKF3WG4kUKkVdyTF6LkS9zMzPm/xLJi4iGzMi5+eAF7D50AW7cf87L6+KiQ6sG8O/qucxKe1KIJ+Xu5QOvPT7Cex8/GtZieBsdG8/8Df2RL18+KFq4ENSoXA5qVikPNapIXh3z2zN/QyS3IxoyIyQtPR32HbsM/x46B5+/BjFnNcfWxhpuHd9Ab3ZNiYiKgQdP38KjFx7w8t178PzwhYaExkzJYoWJQStHDFt5qFWtItSrWYl4eaLnlhsRDZmRcfLiHVi5aT8Nz4Ri0YzRMOaH7syKH5i/evT8HVy/+wzuPXlDPa6cjo21FTRvWBPatagHbZrWg8LOTsyfiOR0RENmJDwkRmPRqn/B3duHOSMM6I2c27OSV+I8Lj4Rrtx+AhdvPKKbCQmJScyf5E6qVSoLbZvXg3bN60OtquVpiCqSMxENmYHB3bvl6/eQMPK8VjkwNkxNTakRq165HHNGEcx1Xb75GE5eugN3Hr6k67xIQaf80KFlA+jbrRU0qlOVOSuSUxANmQF55f4BJs9fC5++BDBn1MMtPQkCTS0gLp8pc0aWn4b0gIXTRzErWTBJf/DkVThz5R7ExiUwZ4XH/FsmFM5Mh6LfUqFgZipYksvNCjLBirxakj+zhgzJOXJsDt8gBUwgySQfJIEpJBMPKYW8xhJvMjyfBUSYmJEvc4jKZ0a+g+4oUcwF+nRpCf27tYYypYoxZ0WMGdGQGYht+07DMuKJpadnMGf4gTd8h9RoqJKeAPusCoM/MWRsFCviTBP8mBeSgt7WqYt34L+jF+ENMWRCUuhbGlQnP1PJjBQomplGvlKgCHl1Jl9Cg0Yskhg0fxML8DO1BF9TK/DNZwlfyXE4OS8kTepVhxEDu0CnVg2JhyvWtRkroiHTM1g/NX/lDvjvyAXmDD9svmVA75RI6JsaDmfNC8Aeaxfiy3DndHatmQftW9anx1HRcbDr8Hnyb16ku49CUOBbOtRMj4daaQlQKyMBShADZgygd+plagMeZtbgaWYLnuQ4Pp/2BqiISwEY0qcjDO3bEZwLOjJnRYwF0ZDpkaTkFBg3exVcu/OUOaMaMxJudSMGbERyKNgR47HKpgRctlC+29albWPY9vcs2gHwz+7jsO/4FUhMSmb+VHPykxCxU1oUdCQeoWuG9t9PX/iZWMIrc1t4YmYPr4hxS+QIxflgaWEO/bu3gV+G94bSJYswZ0UMjWjI9AQWiv7w6yK1QrqaJFSbmhgAJUmYlka8ij+IEbtnnp/5U3aw/ej07hVw/Pwt6oUlJWnvKdUiPwca02bpMWCewy+XdOLFupvZwFMzO3hi7gCfSFiqCbgL3LVdExj/Yx+6+yliWERDpgdwZ3LgLwvg+Wsv5oxyMIz8JSkYuqZG0jXefPPsSsMzcvOpoqpbWQgMDqOtQNqABqtbWiT0TI6ghjS34m9qCbfM8sMti/zwWUOj1rFVQ5g5fgi4lSvFnBHRN6IhU8Ha7Udg3IjeNKTQBFSdGD19Oe9wshwJ2RYmfIXi2YzHWpticNaiILPSPU3SYqkhvWHhCK1JKFkiI5X5k9wNbhrcJF7aNRK6B5mwb6JwgR5ar07NYfovg8G1hBhy6hvRkClhw85jsGLTPji8ZQk0bVCDOase0xdvgMOnrzMr5XROjYJJJJS0gKyP5KxlAVhrXZxZ6ZayxIj+mhQEtdPj4QG5oefbukL31AiYkhjI/I28A3q/58h7j++Dsk0VeczMTOGH3h3gt3E/gJOj2OupL0RDxgHmmLDGC5kwsq9GGl5rth2G/205yKyUMzQ5FEYmy7YlYS5nql1ZtW4kTbD7lgljiAHDUBb3976aWMJ4+3I0KW5JjOqhGE9wIOGurojG+rB8khox+pqPvJLjOOLlpJHfPY38VKn58FVynIbHdG1C/pPUoFnS2jTySi5n6TH9YmrWHL6lg1NmOjhme+XzO0WSn+ciMWjnyVcI+bn4kt/eDqb+PBBGDuwqlm3oAdGQsfDG4xP0HjX7e5U7tvlc2LeKHvPl6StP6DtmHi+5GvSC+qaEMysJeKOOta9AjYouKZ+RBItIKFs0UxI+JuQzgV/tKsjUp41JDobByWHMSjOSyPf9YmIFn80s4TO+kjDOn/xuUcSIYQ7QEKDn65KRBi7kdy/8DV/ToDA5LkHC+hLkFXdppeCneMc8Pxy0coaPpvz13MqXKQGLpo+GVk1qM2dEdIFoyOSIjU+ADoOmgn9gKHOGvEnEqLy+/h8UcHRgzignPiEJ2g+cwqvxG70w9Mbk2WNVGP6zcmFWuqFLShRMTJINZefZloZH5rIhERa1Hoj1ot4aH9AIe5Ob/RUJz7zNrKnhUjfnZAygp1o8I4VudmChb9nMZChNwu8AYoAPWxWClzw2X6RgSczSmWPFRnUdIRoyOSbOWwMnL95mVlls+HMa9O7cglkpZ+qCdXD03E1mxU271GiYk+jHrLJAb2iMXUVqEHQBhotTEgOgQ2oUc0bCfuJt/GslSVS3aFQLXrz1pkYZ+TPhCzRKY98JxdD3PRouc1t4aWoH78xtaKtRbgVD1tLEsKWQz0ednU4He1uYO3E4DO3XkTkjIhRi8J4NVH1gM2LIzfvPmSPlnLv2gJcRq0hCuhnEG2Jjj2VhnRkx9K42xn1UMGLoXexmjBjmd9Ysngy9OmUZ7otyRbipxHjdN3eAP21KQq/8lWGCfTnYQf7/5+Z2udqIIckkTPZCT1PNcg3saZ29bDP0GT2XzlYQEQ7RkDFg1f3Cv3cwK0VuPnipMt+F3svc5VuYFTf4pk8nHhE2VMuD3thNC920wGA/5P/iP9PdyeyE5zOHP4hBkv40i2eOoSFQv26tmTNAi0dj85nCQxJ2Lid/ty8xXgtsXWmJhjaV8nkRnLXQcfBU2Lr3lOCKJ3kV0ZAx4A5jYIhswj07UdGxJNR6z6zY+ee/ExAZFcusuOmTEk6T7Gzst3T5blCEpOC3dGLEfGTq0xAMC5falqQ7h0i7FvWhX9dW9BgVVYsxqrLogQ1wqAy/25aGa6Lx0hrcSFq6ZjcMGDufzjUQ0Q7RkBFCwqLg34PnmBU3yopawyKiYcf+s8yKG9zy/1GuzEJKDDEm6OEIDZYb/C/Oh7Ww9V/rwvDOzJYeOzrYwcrff6XHUjq2bsgcSZL4IsKCgprtBk6GY+dvMWdENEE0ZIR1O47QNiJVXLr1mDlSBD06Po3ZmJuyZgkpkWvmjoKXIjgSI7aaeGJsbUZPzezhkKUzswJYOmssuBSSzYW1aVaXORLRFajMO2X+WiooIN1cEVGPPG/I0JM6dOoas1IOJmjZRBC/+AXDgZNXmJVysFKeC1WqFupiCt9gSeJXKMVixFC3a5ltCWYF0Kl1I9Zd2cZ1qoG5OLBDL5y9cg86D5kGHu8/M2dE+JLnyy+w8h69Kb5ghT9W+mdnwtzVcOrSHWbFTY2MBFhDQjw2cAdsjH0FZiUMXIWs6A9OsysHb81s6LqAkwPcOLoBChVgV9boPGQ6vPX8xKxE2EA58R96t6fqsjjdHWd34i4lfuExNvFH42zP6DiIjI6FiKhYSE1jF520srSAJTN/ot9PhB952pDh2LUGncdQr4wvKNly6cBqZiWZ+l2v0yheSq9sbUhSDpMQb5u1cM3G9dPj4K/4L8xKll1WhWFftmLbLStnQrd2TZiVInOWbYG9xy4xKxFltGteDyaNGQB1qldkznCDYWRYZDSEk+svlHyFhUdBSFgkBIdG0KHGqE776499aP+miHLytCHDiUGjpi5jVvy5e3ozlClZlB7/s/sElazmw5IEX2iaxr6rOd2uLBX9EwIss9gW91GmxUYK/hszyL8l/dB7dGwO/yyfzqzYOXT6GsxYvJFZifChddM6MPPXIUoHv4gIR57OkZ29cp85koUtp5Sds5fvMUcAB09dZY5UU4Gj5AL7EN8xYZ624Ac6L96P1YjF5jOD5bYlvxsxTOwvmz2WWXGDvaYi6nHz/gvoMnQGTeB/DRBuRqkIO3nWkGEdz9U7T5iVLPJV7/IcvyDZKn/w7B3vSeBY/IpNyWygxrxQu5VdUyJoLk4eTO7/butKi1+lYKmFY37VUjOlihVmjkTUAYMdTOC36jOB1ozh7qSIbsizhgynaHNtdddPi6e1V1zgzuWLN95w4AS/nUpVYJ+iEGBZx4gUxQZ0bAL/yb4ClQWSMrBnW1r8ygeUz7a21q0KR24Gk/pYxd+i969ivZiOyLOG7PELD+ZIFmyoLpORrDK83LrvNFy88ZBZqeabkmJSL4HCyoEp4TIGGHcnt1gVpYoW2F4kpXhRZ1g8YwyzkuWdlw+Ehit6pC4FRdUGbcFNJawXQ3mnz378PHkRfuRdj+yFO3MkS+kMHA0rMWbKOH/tgVpTuZXtqPiYaKYVnx0cz9Y/JavUAnXF5tqVhqNWkhYjKShJtHrhROplyYOy3NMXb2QNl+ULZUU05zG59toPmAxb9pzipVcnopo8uWuJN2zFpgNZDVGn1Ej4LTEALlo6wSrrrIJRIbgU805hChFexp0dq2mdI8NpS92YYSWoZDrLvgwdgybPqMHdYMlv7N7Yhn+PwYqN+2Dr37Oga9vGzFkJY39bAReu8/dA9Q0+fAoRY+6ckUpzkS7f0sAhM4MOcrEl7zK+onos8o281XiUSQ4SicFHbzWBfMWZmNIcYoiJBQSbmNO8oq5vjlpVK8CqhROgUnlX5oyIJuRJQ4ZuffOe45iVLKOSg2FIcphOClT/jfugMA8SBQeHOrgxK80olpkK/8V6U/caFWVn2pWBMHITylOudHG4fHANLbiUB/N+HQZNocb9f8Rjwxxadn6Z9Tecu8q+y6sv8PcrQn5XbHxHBdfi6cwrWeN5ocMLfLgEks/nk6k1+bKkr5jPlDbYCwV2Tkwa3Z9+ibLYmpEn37XPX7mHaeC4fwSVQG0F1qn/wuIhBQugnIpeJH6QPsT4TrYvy2rETE1NYd3SKaxGDJ9lM5ZsVB4q6/l5hx5U1fQE6JkSAdOIt/lP/Ec4F/0O9hKDjYW+ExIDoXdqBC38RUOuiwsZhyNjrrR1WjSMSQ6B5Qlf4HisJ+yKfU8HsuB5DOm1JS0tnXaYoLy6WKqhGWp9/s9ee8GuQ+fh1oOXtCo+p+Ljy23ICmVIbmYM9HBArpCw1YpF59Pu6Y4/Z4fUaOqJzbAtQ2vF2Jg4qh8NY9jYffgCnTEgxYJl9F1Ssm5HwqHBQOntmYn+8F/cezgb4wHr431gUlIgHYrilp5EN2KMAfxZsWf29wQ/OBrjCRvjPsHg5FCVG0SqQJko9Ipx8I2IeqhlyEZOXQbzV26HoRMWQ822I2DqwvVw88ELmnPKSQSFcDdu20OWF9aQQ9pZU1DDXh4cvqENtdLjqTHDcBJlgNjAgtapYwcyK1lQC+uvjfuYlQS2xH5EVAxzJAzo8Q5ICacS2ieJ0UIvZ3qSP3RMxTma2hkEfVM5I5F6bPg7YPoAB8mg3r8mYEkQTu/6bckmtTaT8jpqGbI/Zv1EQxQEm2GPnr0BwyYsgdodfoQ5y7dwljQYG8rkduwzsxkyErYICYZ+mHPJTlw+7YKilqmxMMe2NGs4iVhbWcKGP6Zy5l5m/vEPJCTK1tMVK6w4DDhcS0OGOvdN0mPprICDsV6wk9zwPycF0TkAuhw1p28wB4pTsY4QT20GMcwoaa4J2DHSY8Qs8PUPZs6IKEOtu6hnx+ZweOsSKOxcgDkjAVVR9x69BH3HzKVN2H+s/Q/cvT8zf2p8KDNk2ScKob69vCy0tsjLWKdoYciwABaLXdFAcjFn0nCa5GcDH0S3H75kVhJwQEZppo9USjIJKwODudVzucAkPIZgmOP6O/4zDE0KgyrEe0nKZ0p3BXG3MLeKNeJszc4kVN4c9xE2xX+knqa6obG7tw90GTKDpnJElKPRriWGGShdc/fxa+YMOxXKloTenVpAr84toFRx42lzGTP9L7h08xGzkuUkHUablf/bYVUYDgo4lg3DJswBSVlvXQxOWyp6QHzAGyNFSdlG84Y14eDmxcxKFizObN13AkTHxjNnJLRqUgf2bVzArCTgnM8uQ5U3lmsDemuOxCtDEUgcnOucKZ0zmQpFyMMER7HlBq8tjhjuM+SzPmRZSC2pcIyCfp88An4a2oM5IyKP6SICc8wbG2sr6Nu1FZibmcEjEk5y2UL01O4/fQs7D56jT/6UFHJRFneh/78hOXX5DqtAIjIgNZzeWFKcyA2EF59QxJqYgRsJN7BsAMFhHu81rOxXNoEcZasPECPGVviKTFu0nlVj7KchPRQ2Ba7efgrX7j5jVsKTTryyeHJjY92Wv6klfT9emNnBXfP8cNGiABy2coZT5OZ/QN4rd1NbCCF/L5N4svbks9F9pZdw4IOnRnoCdEmLol4pDvrl89Pj/YX3j19gKLRtXhdMTbRLR+RGNH5HsEJ80pj+cGTrUijiIhtqsvH8jTf8vmIb1O04CoZPXAonL96hk4sMgYMdt1xOHMg+KbHCH8sAhOQYuSl1zV/zxkERuRSAFCxsxc4EebCfsk+Xlswqi1ty4achwDDU3cyWFipvtCkGk+zKQvf8VeFHh4p0qtNZYvB8lYTYxgR6npgr3B73ARqosaGEqYAhvy4Wm89Z0Nq0N6xTBa4cWkv1l/iAAoQ37j+HifNW053PSb+v0fvOJ5eXgkSbKLr83VSoYagLzpCUao+Z6SBFhGPcurVvyqxkQbVSfKCw0a9ra7C3k/UO8fO690R5CsFQoDeD3Qs41WmtTXEYZV8BeuevAvPtXOE4eViwdTYYE7hzi7VpK1hG9HHx4Nlb6D1qDgQpmfiVFxHERy3g6AB7NyyAuZOGq6VmiUn3Exdu051P9NQW/L0DXrl/YP5Ud9jbcodyEdlkbqS0So2mYYyQ7GTUYC013KbnAqWW/5jFrTG2aNVO1qZw54KOMGvCUGaVxeXbT3LUQAz03B6YOcA/1kWptzbEwQ3WWRenmyLGOji4Xno8bCPeGbaZYSGwKrw++tIdTe9PX5kzIoJ+sijLe3zHn1RdQV3CI6PpSLZuw36D5r3Gweqth+hQD12AhpcLHxZJHdzJVKVRpi4epjZw2zw/rwuXL5gUXr90CqfHeefRKxqesIETlDCvJs+eIxeYI/Wwt1P8XoYAOyfOWBagCiC9HSvDEttScMfcQekmiSHAnwZ7ZbfGfQS3DNWhI0ph9xszj27EiGi4a6kKDF+mLVwPl5WMT+MLap/36dKKln44OaoWAeQDhraYp2MDcxbo7ssTQMKUkQ4VlCbY1QUlqfskRwim1T/5pwHw27gfmJUs6P226T8J/AMV9cqwWHb6L4OZVRaeH3yh/cDJzIo/VStXhh7dukJaWhpERERCRCTzFRFBX6OioiA9w7C7kFi60iQtlnjbMbReEJvOjQXs8dxhVURBuYQNTAXsWT8f6teqzJzJm+i0afzfQ+fhjzW7OafFqAOGrFga0LdLS2jfsgFrzyBfcPencTf28Au3+Y/HeLC6qqiGgclmIcFaKzSS2oIG/+S/f3EWvmJHBraXyYO7lAunj2JWsgwet1BliY08tjY28NPoUWBtxZ14x0suMjIKvvr5wZevX+lrYqLhEtg4hb1TShR0IR4RNp8bC09IOPwXuea4Ojak4CbNrjXzoFmDGsyZvIfO1S9wi//XOat4S0LzAUOnLm2bUKPWpH51uoOqDvgrV2w6iHPXdFX8Z6idLltfhaA8zggHN6Mr4rS1sYYrh9aAawl2zw57ZDFBLP9Rjx3WExZMHcmsZMGp6j9O+ZNZ8adPr17gVkF9jf9w4q35+n4FXz9i2PwDIMlAhq1uWjx0TYuEpqmxtGnc0EQwcxZwg0gZ2MGxZ8N8aFy3GnMmb6FzQ4YkJCbDzD82welLd5kzwlHUpSAtuMW6NnU0nToOnkYrp9nAXAUmXtn416ow7BewQFYI1i6dAv3I789Galo6bUTG4cJSUDZm2ZyfYXAv9rmJsfEJJKScQvsw1aFG9WrQtVMnZqUZ6FH2blsDgkOC4dTFO3D68l3WzQldg10d/VPCqZfGNRleX+ANitccjvFTBtZnHvhnEdSrWYk5k3fQqCBWXSzIjdOVeFBFCxeEe4/f8JoByRfcUUOPY8/RS3D55mOaCypZrLDSEgvkvc9XePWOfYc0wMSCGjO2lpIq6Ylww8KRFnAaA1j3xZbfkrJq8wGZLgY09rvWzoN2zbn1+qct2iCjhsGHwi4u0LdXTzDRslizbaOK4FrMidbAtWpSm4a+DWpXARPiBaPEDRpmfYCV909JaHfWsiAkkd+pTGaKTKG0PkH/Hwtpnb+lwSNz7o0qVKQ5f/0B7ejgqiHMrejFI8vOex8/GDfrb51uHePNhPmCPsRL6dKmEWsngaqZlijLgooGbDwjbv4suzLMynBgTyQKJdrasOejcPQ+jiTDBweWV4wb0RtGDeqmtETm8OnrMH3xBmbFD8yHjRwxDPI7sE8q50ujmqWhbhVuVd7klFS4Sj63E8RTu3n/uaAPRFXgzjXm0YaSawJzaoYCd7qXkVBTmaKwU357OLXrL84e29yI3g0ZghfkgpU74MBJYaYQKQONWGdizDD0xCeVNJ+G1dHVWg+DDI7dM2z63RPznu4ssoE7jTgd3FBgeIgXa02OmZP4sf40YwUN1fD379S6kcoNEhw80mvkbPr5qEOF8uWgX+/ezEozaroVh2Z1+D8cMOzdtu80HDx1TakIgNDgddEvOQIGpoSCrYE8tMfEU1xs66q0hATrCc/sXpFnZi0YxJBJOXP5Hsz68x+9tVxgK1WvTi2pUatcwRV6kpv2OQlLucDWpNXxn1mTvvhEnGpfltaDGYIF00bC2KE9mZX2YBN59xEzWcszVIEe8IRffgZbW80mpderWhIa1tBMsz46Jg52H7kI/x46R3t79QXubg8hXnvP1Eg6s1TfvDG1hXl2rkqbz6tWLAPHdy5TmWbJDRjUkCGot4S7mq/dPzJn9AN+yMQ940z4S0GpZVQpZSMynxlMtC8niFy1OmD5ya41c5mV9mCeEUeUqXovlNGyeTNo0qgRs+JPk1ploHZl7UMglBo6dPoabN17GvwC9ScXjQodY5NCqOy1vvEmD9HZdrKj/uRpRqKQfRsWqNVxkxPRS7JfGVhNPqBHG0gi4QFK/aoCcz0dyI2Mic2oaM2FD9EDCYtQvRvmbWYDOCCuLqPEmh1rEmY0JOdvmeeHZC0FEvmCXRP7Ni7Uqo4uO/g+jpzyJzx/w+2Z8iE6Ogbq1a3DuxQG/16r+uWhhlsx5ox24I1aq1oFGDWoKy1DwVY3fbRW4fSlOxb5wcPMlnjwiYK3sikD0x6N0+PgLvn3kziuP9wgiYiOhXbN6zFncicGN2QIypK0bFwbalatQNtolKliYD7ExzcARg7sSnsD7YnbjAWuusyTeBBjhk8/vGjkZWMwxMBeuftKLiahwLzYnnXzoUwpYW5+dMYn/r4Wrt55ypzRnJSUFCherBg4OanOyZgTo9OucUWoVEb4MhY0kFWItz20b0e6fk0Mmj4ECVD597xlQfqwQ+lrffk/qN9WJz2BNs6jHBIbbzw+0lwZSp7nVozCkEkpS25QbEfCIlr/IO5cTUZmJlUBeEPC0cljBsDvU0Z8b9HA/kxd7GYFmEpUFmwhA8pmyLYf4ySdlqkx8NTCHmK0HCaijMUzRkMXuXmTmoKe2Pi5q+HslXvMGe1JT0uDypWU1zA5O9lBjzbVoJiLdjucqkCjjzvXvTu3hMCQcJk6Ol2B7WtYuIoeWtn0ZCoOqQ/w+iubmaygPpyd28RBwGLZEhr0QecEjMqQIZiY7N+9NU0gP3npqVCNnp2wyGi6a4VDGvp3bwPdOzSDMT90p9vOWISLnpqQYGL1gbkD3CShJEriYX5EWmtmR8LMtjjNiBg8P/IlNFgvhuoiQoDeK4aTWL2vDg75HaCIiwvExLIn1aOio6F2zRpgYcEe9tYkYWTHppXA2op9voAuyO9ADCe5LhrWrkJ3ZcMjhR2iwgY+zC5bOtFaQ5zEpbtHWxYlybWIu6hY+8YGTjS/fvcZ9OrUXEGqKTdg8GS/Mp689KCS2vhEVQWGW6sWjIeGdaoyZwCCQyPh1KXbcPTsTZ3UrUnDCJy2hPkRnHBdiFxQt8mTcaN1UZo/EYIqFUvDmd0rwcpK+7xYcFgkjJ62TO3Nldq1akKblq1o0/fuvXuZs4qwJf1trC2gdYPyULqYYYs08WbeeeAc/LVxr94mFOGIuDkJfhoPIVGXtdbFaBEvFxi5HNv+J2dPbk7FqA0Zgpry0xdt4K2kMbx/Z+q5yG8549P42LmbVJlW6NFm8mDezIS8rcomUjs5OtDSAVVvf6ECjnB+798aSSPJgw3g+GBQ5/cvVbIktG3dCooUzmqP+W/ffggMYu+ddcyfH8aN/YkeYwK+dqXiULtyCTA3M54bB/W8Js5bA54fFFVOdAEqawxPDoUfyJeu3wXMBs61Kw1PzbiVYnDGKZv2XE7G6EJLeXB3DiV8UEPs/tM3KhO3rz0+womLt6F86RLES8uaBoTJTlTPkGrS43RnLP3AfJvQ4GQkVbuYE0b2hQa1qsCjF+7MGUUsLcxh/8aF4Fa+FHNGM7Ct539bD8LsPzfz2hTBsL6Smxt07tAemjVpDHZy2mKmpmbw/gN7e1dySgqULFEcGtdxgy7NK0OZ4gXA1ITfTqYq8PcQwpPAh8OgXu3oe/Hyneqdcm35Rnx3nGn6jIR9NYnnrstBKvhONyERAgpJcj1Isf0MPTMukYGciNF7ZNnxIE9QbG/iGhwiT69OLWDRjFH0wmUjinhEZy7fhSNnblADqC9wZ+3RuW3Uy5q6YB0cJZ6iPOjNbF05Ezq2asic0Qwc/jJn2Ra606sK9KaqVKkMdWrVUiqMmJ6eDhu3boUkuXmYUoSuc5OCG0ArNh2EkYN6Qp1qpZmz2oFe6hTyGYSQkFsfoJDm9MQAaJWm26gg1MQcfrUrzzkAGu+Ja0fWkVfdbrroC6P3yLKDNWSDerajagh85mZiCHHw5FUqyFitUlmFGieUPkHvbEifDlTjHtfopemylAPB3bRRg7vRY2wdsiCeF9bQ4U4iYmFuDhuWTYMubTTfoXzxxhumLFxPlXbRYLNhbWMNriVLQb06taF929bQolkzKF2qFPEElefi0GNLTk4B/wB244gFqVj+IPS0LJy5+dbTh3iWG8E/LJ58puXA3la7jRX0Sgb2aAOf/YL0srOZRjx13NWMymcGdTMSdCboiIn/6sT7u2LpRMJNRY8Yr3GU1sJoJzeQozyy7Jy6dIeGSnyLHlFBYcW8cXTWpjKwdAMbkg+fuU5HoOmilGP9H1MVphVhvuz+s3e0hq42Ma7aNPxeuPkcjl24C7FxiZCZmUG+vtGdRCtLS7C2tgYnJ0fyJC5IDZkmYN2fhWk6LFy+hjPHh4OBx//Yh1kJB1bw1+k0CmJj48GtYgUYP+oHaNukMuS3095obtx1HFZs3KcybykU5TOSYGHCVyimQzFHlP9B6Sku2K7FnEiONWQIek/j5/yP98ASnMP5y4heMGl0f+p9qQKT4rhBgCUeQj2tcRPi1dX/BNmBVAZ+qhHRCRAcEQfhUfHkKwFi4pMhOUW93ToTk3zESFhDQUcb8mULhZxsobhLflrUisKLXCUcqMxx7/RmZiUsc1f+B3sOnaTHBZwKwIA+vaFN0+pQv1oprTcVzl9/CFPmr9XbqEIMNX9L9IcWabrpE8UM8BS7snSUHhvYWXPj2IYc31yeow0Zgh7Tik37YMueU7yfpCVx0tDssdC2Gf+2DUyQ7j9xBc5dva+2OkR2UMzw7wXjmZX+SSPvV1xCCiSnptOBySlpEo9NGnWj4bKyNAcb8mVlZQ62xODiOTZwlP/QCeyTzJHDW5dC0/rVmZVwvPsQBP1G/wbx8RIVXytLK+jXuxdUdisHTWuXgfKltJsbig9GlHjSp6Dj0JRQGJmkmx5R7AX+yb48Z4O5rnKa+iRH5cjYwHxNi0a1qComJm6xEFYVsXEJVH0Ut9/x/+NTIFi8iDPNZw0f0Jnm6r74BUEMCW/UZclvYwQppdAUDAuxIBVzS04ONtTDci5gRyvu8asQ8boc7a3B1toCLM3NFPKK2cH80vHzt+iwGTYw54eCmkJjY20Jz9/5gu9XSW1gekY6eHh6gqOjE0QlZEII8UKxcwB/fk0o4lIQurdvBveevKHTvfTBG+IxfTK1hkYsbXDaYke8vkLf0uE+hygjbgThLr+2u+OGJMcbMil4U+FgWix8RSPDBwwX0csyNzeFmlUq8Nrax3KQujXcYOTALsQA2tJR9nzBnxHld3ILaOSSU9PgHseAks++QTCCGH4rHmG8OliQzysgPAUeP30GmYwXjq9eH95DEWcXMLWwBk+fEGrIXApqNnkLH24o9+T5/gt8/squfiI02BGCCrAN0uOp8RGSchnJ8IUYSl+OrpPnb73oBg22duVEco0hQ3CXDBOXOID34bN3vGrE0Gu48+g1XLj+ACqWK0llsvmANzEaNKz1wic3H7B9St/DIYSqveKinGsx2HnwHK2alwfff+dCBej7JDR+IbHg8zWADi2RgqkF7/cfoHjx4mBv7wC+gVEQEBpDvTMrC/VvUJRo79mxGc3F4mg8fYDlEtjTWyU9SfBezTrEQF63dGQNMXHTDNMOGN3kRHKVIZOCN067FvXh4fN3vKV+IqNjaSuTj28g1KnuxluMDv8tHKqCHQjKQMP3v0UTIb+9ZuKDmnLt7lMaNugKfHigF/yeowUM28t+HNCFWQkHGqj4xDRw95CdLYDG7MPHD1C+XDk6mg7zgV6fQ8DGyoKGzuqCnxvW8n0i14W+JntjQfUNi/y0f7J0pnCbDtgXXIZ4Ztcs2BP7WEvZrV0TKODEPRfAWNHdo9rAVHUrA5cOrKYV3OqAZR0tev8K/+w+QbwZ1U9EnO7dnMdTrGGdKnSTQZ9gHR3fMFsbsA6Piw8+flprnbGBO6mlS7mSsFWx7CIlJRUOHzsBiUkS5eHUtAy48fgDXLrnBSmp6uvtYx52wx9T6U2uL7DebKltKThhqd3GhTwoOdU9lb34F7tdfl+xjVnlLHKtIUOwxGLVggmwZcVvxBPi/zTGYsFl6/dA2/6T4eb9F8xZbvh4WZi/0yfomfy2ZJPSaUlCgQW+ytpdDpy8yhwJB25ImJCQuUK5sswZWeLiYuHM2fMyO9mf/MLh0MWXEBCiflU9huebls+g8w/0Bf7km6yLCjaJXsqopBCw5cjBYZoEVTJyGrnakEnBqv2rh9fKKGPwAZO8wyYugRGT/1Da4oOtU8rADQJd7N4pA6e8JyQm6W2SzuDe7DMykbNX7vPaTVYHG0YKqLQrt9b/Z19fuP/wIbOSEJ+YAqdvvoPnHurXBaIx2/zXb7RcQZ/gkJu/bEtSvTMhcPiWDsNSuCWu/tJjUbBQ5AlDhhQrUgiObf8DZv46RG39cnxCtek/CRb+vQOiomULF7HN49YD5V4bXvj61IAKDA6HlZv202ns+mJA9zY0zGYDPVwctCskpkzha/Fiyg31vQePICg4mFlJwJv00esvcOGOJw071QGvnW1/z1SrBlEIrpo7klBT+Rg4deiVEsHZUYBlSagSk5PIM4YMwcTtpDH94cTO5bTyXB2w8BZ35xp2HUvnPmKzOX6NmLxUpSKHvsNKbN1Cb6x7h6bMGd2DleFtmtVlVoocOiVseGlmIrl0sd1KWavVt2+ZcP7iJcjIVDRYnwMi4MjlV7QDQh2wQ2TLyt+gqht7WKsr7prnh8V2pSCNXMfaYk6M+c9JsgY+OzjYWRfteboiTxkyKXWqV4Qrh9bAgB5tmTP8Qe8Ch9j+Oud/9At3OZVR0Ck/tGpcm1npHtysuHH/ObiVK0W/9MmgntzvJzbFfxCwKTt7SUnxIsofSmHh4fDwEbueXUxcEhy7+gY+flUt3pkdzL9iNTyXsoqueGDmAAtsXCFVAM+sWVoM1EpnN+I4tGTf8cvMyvjJk4YMwbKB1YsmkifrTDqZWVf06NhM5qbTJdh4vvDvnfQY/119g+GWsq17fAAIhYwhK6Z6GMvDx0/oBgAb6HlceeCtdt4M0xU7/jebqpXokyfm9vC7bWmlA3r5Mi4piPO7bNp1PMd4ZXnWkEnBLfVrR9bTKU66AIdf6IuFq3Z+V3/tYQB5Fswf9e7UglkpcuLCLcEmGmX/PoULqy5rQQ21W3fvMytFpHkzLNOQdgvwAVvcls39mVnpj+fmdrDEtpTWOTNU4OiUyt5TGhQaQT6z28zKuMnzhgwp7OwE+zcthKUzf+KlisEXzMNhGKsPsIEb+x4RHPtVRs0coFD0ViIJg03Ytx/xb+lSRlJyVo1f/vz8xAHfubtDSKjygTTY2nTmpjukpPGvN0ONPOza0DfYzrTCpoTWnZkjk4LBimNa+uY9EpURY0c0ZNkYOagrzZ3VJU9ZIejdmds7ERLM281eliWZ01/PmwvZQaHKUsW527ykxlZbkrLJESlTs5Xn3gPZcgw2AkKi4fiVN5CQxF/lBHtoDdHec8PCEdbZaDfntOC3dE6vDAuar97Wfu6prhENmRw4jenUv8uhfBnt23r0FVYu37AX/JnRd5ivQYlvQ9K6Kffu5ZXbT6g4orZkN2SWlpYkrOXXS/nh40eIjFItax0Vmwgnrr6B2Hh+9W9Y/f/P8ukG0fU6a1EQdlppVzTbJyWCO1e2+wRzZLyIhowFFNXTtrWnasUyUNZVmIngynj22gt2H77ArAA6t21Epb0NCbZGcZGUlAKvPPgJYSpD3lvia8gwF/b4Cb/K9diEZDhx7Q0xavxUiB3z28Pf8w2jNXfAyhnOWGo+bq94Zgo04RB3fPbaE16+0/4z0yWiIWPh8UsPrXdrenTSfbIdlS2wpi17FbYFuaFx2rqhQJWIx0omQyFlSmpv4FH1NjuoWMsXzJUlJfEzTmgwTxJjhgq7fGjbvJ7a/b1CscG6uNIxcKronxLGHCmy7/gl5sg4EQ0ZC09fyioqaAJOt9Y1a7cdVpgohROZmvX8BboN+40YFA/mrP7470iWd8hG9crl6OaKtoRGyBqyfEyBLB/SMzLAw5N/IzuGsaduvIXgcH5KKoumj4YSehYIQDBdv8S2JHw21Wx+AQ4rccuQNNrLc+bKPd7zMQyBaMhY0HbWISa8da104fH+M/zzH3fuAuWa+4/9nebP2LTCdEFcfKLK7fquAihIxCWmyOTIEFRuUIe37u+YI36gasbZW+4QJucJsoESUKsXTaKdJPoGtcbm2ZXmHAOnin4pWfpu2cGUAJbPGCuiIWPhrecn5kgzurTVfIwbH7CGatqiDSrDXzRgWNS4dM1u5oxuwclTuIOqDCHGj4VGKHpGKanq6XYFBYfIiDLyAUP5szfdITpOtWfSpF41GDWoK7PSLyH5zGGBratGNWYtU2PAOZNdvmr/8SvMkfEhGjI5UGBRlUiiKjrr2JBhbc87Lx9mJWFkpwjo3IA9Wbt9/xnByh6UsefIReaIHZxuLYSn+iVAdtcRVX4zNSi0dfdUP4WAnuDpG++oV6gKHIlXtpTuN3zY8DC1gS026tcS4pzN3hxemTuJAvhOLNM3oiGTQ9tEOcrm6LIYFecMrNl6iFlJKFowDeYODoHt077CvCHsP//yDXvoDa8rcHaBjwpteyGa53Hi02c5QxYbo9kotU+fZB8GfEEpoDPEmGUvymUD5ZsMOaPhpEVBuG6h/iTxrqkRYMFRZmuslf6iIZODayo3XxrWVk/zTB0wVJy2aD0Jo2RvIDRe1pYSj2Rc93D4bYDiWLHg0Eg4cV53F+FuFd4YdkwIsQHiFxytoPIaFaXZ2Das8k9IUE/5QgqGl2duuauUAULJdV2MxOPLausS8EXN5L/dt0xoyFGKcf7aA5ldcmNBNGRyaDOzEqlTQ3ctSRgioopEduq5JUKvJrKKpxN7h0HNcop5nEu32BUgtMUvMFSlqijmDYXQZHvvq1giEKmhIUN8Pn9mjtQHS0Au3fMkNzZzgoMF00bRgllDkJzPBBbauNJXdWiZym7IQsIi4YkAu/pCIxoyOYpoWRpQo3I55khYUK121eaDzCqLxcMVC3dxnu6QtorV6++03MTgYs/Riyp3RpUpyPIlPjEVPrHI7ajqn1TGp8/K1X1VgR7i/VfKjSHOj8DRcobC39QCNlqpl6trnB5Lh5Wwce4ad/O9oRANmRwlivIbB8eFc0HhW1TQlcddSvkx/gNaRbF6XkgtlvOoZiB0ngw92EOnrjErdrDdq5GaMuNsvPIKYB3x99XfjzlSn8Ag7WdWviY/l9dn5cZ01oShYG0t7HxPdbho6QT3zPnny7CJvGEae5rFGMNL0ZDJgcWa2ihg6ELbDPX3n76SdedtrTNg9iDuEfvJaYofLUpRo7qpkOAoPFV5xRH9OzNHmoN5MY9PihsZMbExEBureV4zJiYWvmVqb9xvPf1IJ5xzUcS5APw8tBezMgz/sykO4fn4a6e1SmWfso4qJtj9YkyIhowFTevAcEqzuvMAVIG7qH9t3MusspjcOwxcHLlvwHvvFCc7OehgbsCuw+eZI3acHB1goBLlWL48fedHB8jK4+uruTcmpXghczDTUvwSa/su3vVUqpjx64+9iceuX0XZ7MTmM4WVNvzFEBqmx5Hwkj1lYGyTlkRDxgLK+WgCVpcLJRyIoPs+deE6WlWdHdfCqTCmC3cxZ1p6Pth7RbGBuHE9YaecY8M61rM1qF0FenZqDsP6dYJJo/vDwumj4Z/lM+DUrr/g3unNVI1XG7Ca/u0H9hDQ09ubOdIc368B0LphBWalOWjE0JhxCTPi+zBqcDdmZRhQkPGcBb/mcgwvG6Wye5l3Hr5ijowD0ZCxgC1GmmqSJfBsRuYD7lLKh5TIgmHBYGHGnaNYtLcIBEUqhhAdWjVkjoQBQ16cF3pg0yLYtGw6LJ/7C8wcPwR+GtKdSm2jeqoQk9VvPflI68fkwQG8X3y5lTb4cu3OUyhfsiDUqaK9dBOGl0/eck8kR2NvyFwZgnMy+YaYLdPYZ4DiCMTwSPXng+oK0ZBxMH/Kj8yRevgHcSsIqAMWvuJIN3maVk+AjvW4C0AP3nSC/y4XZFZZYMK9p4A6/iFhUXDxxkMY0KMNWFlZMGeF54WHP4RGsndaeHq9V7lbygesVl+7/Qg0rlkaShfXXApHCv7MQeHsn5Gjgx3079aGWRmGBBJi8hVjbJSG4aXiQwSjhTuPjMcrEw0ZB+hNaNLgrGqqUkyc6gJMDE8nzV+rUNOGpUiLh3N//wtPHGDuTsULFGuYUCdLyET/3mOXaK/n8P6dmDPC4x8cDY/ecHtcr16/Zo60Bw0ZqoV0aOIGBfJrl0vEm/zaw/esOT0EPVZDNJRn54G5A9zmsYuJObIqHJOWREOWQ5jy00C1LzhUpVDG5ZuPidemfKt+7fbD8MbjI7PKYlj7CKhUkr3H7+gdR/hlbSmaH8sOGjGcFoV9jkKBzdM4KgylnVFRVxfEJaTA5QfenNv87z98gNAwYbxfBD278XP/R+eBdmlRBSwttDP6qCx75zl7CxS+Z1jxb2g2Eq8M1TJUUTWdXdpHNGQ5hMoVXKlnpg6PnisXFUSJoEvEmHHx4o03rN95jFllkd82A2b0UzSAeJuvPuYCU/8pQW5GyTkpuIu6bukUwQcE42Di8Mhonak7YGP2udvuxCPl7mW8zzGnUhuCQyNg+qINkN/OClrU1b6w2csnBHz82Tdlxg7twRwZjsh8ZnDI0plZcVOdwyPDMgxVEYi+EA2ZCrq1V29a96t3H8hTnVvKxt3bhxoCNvD/m/j7GhJaKoYk0/uHgpO97PnoBFMY/ldpasjkwXq2A/8s0skAFJy4jhOilE0W1xQqYnj9LUTGsHsBCOruBwcLq4Ir9bwv33pM529WLO0MZUsWoue04eaTj6zN5Y3rVoNqlfQ7qZyNo1aFINREeeK/SkYSp6F4oaV2n1CIhkwF6taUpaal0ZuBi4DgcNov6f1JcWdrzrLN4OuveINWKJ4Mw9vLthzdeWsH7WeWh5uvFCcIVSrvCuf2/k1vFqF58tKD6rWNGNBF8DxPYlIqlchRZsRSUlLhyjXhBv1KsbOzhwrlJV7YktX/0vmgreuXB2sr7Ybvolf58DV7GxTuYBoanFi+Q8XgEptvGVCWGDM2XomGLGdQ1KWg0unZbJy6eIc5kgWT42ERkmrprXtP01cph05f45RIWTQiGMxMJbmiuCRTmL2jOPzwZ2kIilC8yfDmQCPmWkK7qTpcYEmIrY01DBKgyDU7KCN95PIriIhWvhly49YtiI3TvJKfi7S0VOjSsSPYWNvQDZn5K3eAlaUZtCLGTFuwfYlt57UreUgKXUCtCdctHMHLzJpZsVOdQwIbIxBjQDRkPCjqrFjOoIxbD1+yelYovyMtFzh27uZ3kTqcUDNv+VZ6LE+7unHQsobkJjh+1xFaTK0A+64p9nOisd329yxay4U6WLrgs18Q8TafwOBe7QRRspDy7mMw1cRXNUfy48dP8OrNG2YlLKnEkNnY2ECXTh3oGsN/1FgrW6IguJXWTgwSNyzusiT+cepSswY1mZVh+cdKuYZe9TT2B4zH+y9088fQiIaMB05qemRorLbtO8Os2MG/M3zSUlj5z34YPnGJgsYYYm72DRYMC4Kn3jbQY35ZmLypBIRFK+6mde/QDG4d36hziW0cdmJikg/GDBFmqjaOWztz8x3cfvpRZUdEaGgonDqnvB1KG1BhNiMzg4SX5aFGdUlIPmPJJloC07xeWeKFalfEGhweC95fFDdr+Gi04a4haoTpEnczW7itRISRa+cSUynu3ppLIQmFaMh4kKDB9JiDJ69CgFxxLHpK2LgtJTIqFtbvOMrZdN2gciIs3lMUei8sCy8+KHpAxYs6w87Vc2DzXzOggKN6xpYvWE6CNVat+k6gctk/DugCJYpq56GkpWfCcw9/OHjhJZXBUQWGkkeOn6Dhny5JZR4m7Vq3ATs7OwgKCYd15POxNDeDJrVK0z/ThoevvtDfPTsdWzekQ5WV8d7UGqYl+oO1jo3ZdqsikMaR9yz0LQ2KZLK//8aQJxMNGQ9i41UXscqDT6qla2WHfpiamkCxwvx3wu6/tYXrLxTVNNAgTh07EG6f2AQdBW47wvBxx4GzMPa3FVCr3Y/QYdBUWLX5AJiQC3zN4kmwaMZo5m+qD6qpogHbc+YpPHr9hdfs0MjIKNh78CDExWs3R4EPaUwBsiV5f1u3lOz2btt7mrbiVHR1BpcCihsr6oCh8zN32U0ebOFq0bgWs2IHjcsb4jEtTfDllKAWgiATCyqPzUUljoT/ex/tG/e1RTRkPAiP0Kyn7NzV+7SxOjvVK2u+5Y7eHCpJoAGb/stgwXJhmKNbtn4PtOg9Hpr3HAeLVu2ktW44KAQN5tXD6+DGsQ3Qv7v6rTUZjMb+5ftesOvkY2rAlNWHZScgMAj2HDigsSa/umRk83iqVakCJUoUJyF/KizbsI+ea1pH+3KJ196BdHc2O915lPhctCwA5TKS4feErzq9afdbFYYEDjXZEpnsxdjys1UNQb5vXKXTIhQcSlqp+WBmpT4tG9eG/ZsWMisScp66Cr8t2cSs+IE7W93bN4NpPw8UrJIec3I49WjPsYvw+atEZRYlZlo1qQNtmtaB5o1q0b5AVWAzNxqm5NR0+pqYnEbrpmLik2leCCd0s4khKgMvyUdPnsKd+/c0mo6kKePHjgWH/FkhekhYGOz6by/NC+LDo3TJInDhrid85ihy5UvtyiVkQlW8xmq2Hc6aJ83Oj8mhMCw5BM5bFIDVNsWZs8IzOjkYfkhW7Jq4YuEEK1hkgAo7F4Dnl/9lVoZBNGQq8ProC+0GTGZWmnHl8FqoUkFy4aLKa4POY3gNOcGi1h/6dIAfB3SGomqEpHyYMHc1nLp0h07ExlmTuFFQs4rqUoOwyHjwD42hr2ikcAiHkJdQWHg4XL56Dfz8/Zkz+mPCuHFgbyer1nHl2jV4/vIVtGneAPasm0t/34MXXlADrikW5mYwomd98pqVLx3483y4//Qts2LHKTMdDsZ5gTl5v/dZucAu4j3pAkf8d2K9FMJY3BCYZMfulXrdPUgHExsKMbRUgX+g5nrwUo6czirgRPVZlLpRBrYU7du4EF5e3Q1zJg4T3Ii98fhEjVibpnXhwZkt9N/gMmKYnP74NRyuPPCGnSce01qvBy8/wwffMIiKTRTMiKHK6/lLl2Dn7v8MYsQQUxx2IEezJk3AjBieG3ef0N05R3trqFpOuxo9LFd4+0F21gJquqkCp4ffZRq9hxLvrEOq5kNXlBFN/p1LloolPsU4QkvE0K1KoiFTgRCyPCcv3pG54bFodQjxtNjA0G7tksnktbbOiiU3/HuUvs6eOJQ2lcuDP6pvYBRcuucF/554RPNbaLj45rb4gu/JF9+vcOLUKfhn23Z48/adoN6dupiYKL7fWFtWt3ZtevzXJsnwlwbVXbX+bN54B9L8oRS+Mw3OWmbJDE1LCoQqHIWq2nLY0hky5CaVo0eIVf5sfPximIePFNGQqUAIQ4btLlg4mJ0Vv/8KK+ePh1LFJeEBtvtgX+ffC8bTta7AQl0sam3esCZUqViGOSsBpxQ9fuML/51+Qpu2P/mFQ7rAOaqoqGjw9H4PFy5dhvX/bIaDR46A94ePxIDpLxfGhakpe+lBowb1wdzcHG4/eAZfA0JpxX8lLYtkE5NTwdMna+ZCnRpuvIzjG1Nb8GXmVJqT92xxvC8UyhT2AYMEm1jATZa6smIcJRiiR2bk+AdyD/iQUpdchKq02NmGNfzQuz08OLsVPj85Bh/uH4YtK36jLVG6ZPfhC7QYd8wPWUWtUbFJNHTce/YpPHP3U1lhn52o6Gj4+OkT9az8/PzB3z8AfP384JOPD7h7esKTp8/g6vUbtITif+vWwZYdO+DUmTPw+u1bSEzUjTehKfk4duuwbalenTr0fVu19Qg9V7NSMfrw0YZXnv7U+0Uw5VC9Ej/FjfMWWWFfgW/ptCyDa3SbNqBXJk/xDPZrIzhMuw0QbRENmQr4eGTVyAX4v0UTmRU7b1n0xaSg4KEuVVal4EbD4TPXaYI/u3LFjcfvaeiobgL7ybNnsHXHTjh64iT1rPYdOkQN1oFDh2kB65lz5+H6rVvw7MULauCkBafGiCkJK82UCE82rFeP5srOX70DcfGJNFfmWky70X+4s/slIMsA8MmTIdfMHWXCvooZSbRgVmh8iOf3yFy2jrE4h0cWFq66sFmXiIZMBThFWxXFixSiifMfB3ZhzigSZgT65qcv34XYuAQY2rfjd28iPDqBNmyry4PHj+H6zVsGzWkJia2t8t5RaxtrqF6lKlXf2LDrFD1Xy037EgjvL1kPyoZ1+BmyGBMzeGYuWxrTLjUa2nKMb9OGA3JeGVfCPyRccSC0PhENmRKSk1NpfksVxYghQ36f8uP3nJc8fL6PrkF5ahRbxKZvKe/kds/44OnlBbfvsGuq5VQwqa+KOrUlFfhHz0oGEhcvnB8KOWlX7e8bGPldErtBrcq8w9WrFoqpjElJAYLny7Dk4p1Z1ntThOP7S1VdDIVoyJSgSpJairT3ECvt508dSY/lMXRYhVNvXrt/pC1NBZ0kSVy8gTCkVIfgkBA4d/ESs8o98DFkLs7OUKpkSRJGRcK1ey/ouVpu2hUo42aKj58kvEQ1DOlDURUPzPMryFRjY/nMJOFDzBOWWT+TDcemDLZxGXTHmXkVYcGPpyHD0FJK5zaNoEm96swqC5dC2uVTtAWb2BHcYJCCYQ32P/IFjfGps2chPd3wsi1CgxprfKhbR1KKseuwxJhXcHXWWt//fbaHSZmSyuV0pKRAPmLMFPtw66bFQ88UYRPvD8wcaDiL2AL7Z4+qxhFR+mklY0M0ZErgUwyLW+bYopGdRb+NVqjPkv87+gRbX05euA0lixWmA0OkuH9UL6y8eOUyLZ/IjdjY8pu/WbF8eaqM8ejZa4iNT6LtS6hZpg3+IdFU4htBCXG+3OeYgvRzUjCnUoUmYNP6JXPJg9hGSbtZaIRuCnT5IBoyJfBJ9BdxKahgtLAdqQvxzLJTphT/C1RocP5kdGy8TG4MB8liixFf3rp7gIenbAN8bsKWR2iJ4GddpZIbpKSkwN4Tko4N9Mq0AXeLsXsCUec6eWpmR6Wq5cERbj8nqZ/7VMYFpuTDVkm9X1yc4cppREOmBD6GrERR9ot4zBDZKTntDTj+69Dp6/QG7N89a5qSOkn+uPgEuHb9BrPKndjZ8k/aV6ksGa13lhkiU6Kwo9ba/tJcpToeWVI+E3ght3sppUVaLNTkmH6kCf6mlvCSGE40kqYcNWtY3mMoREOmBL8A1cWwXCKDOEYOQzkEX+Wr6PVFYHA43H/yhoaU0p7NlNT07x4AHy5evgzJKdyToXIDBQrwD/2LFikCTo6O4PXhE0RGxQNuNJbTcuISlsBgvlJddRMctMvFr8Qr47cHyo/zTP8ll1cmGjIjhVcNGYdHhnRoKfHCdC1BrYyj527Q3aTsw0JwGAbf1iPsf8Qq/dxOQTUMGVK5ciW66XH84j261ja8xM8oKDyWlu+o0zGAiXguymckQacU4fJW98i/FZvPjHPnUjRkRgjfGjIUH+SiqltZKmM85oduzBn9c/TsTSoH1CGbkuw7nkn+xKREOrUot+Ngbw8WFuqFhlUqSQY3X7v3nL4Wc3bQWtc/KCyWlvCo06aGihgfTbl3XEenBNNwUAjSSCh72dKRs3FcNGRGCN/SC2X69UULF4QROtAS4wvOoPziFwS9OregGlhIQEgMRMfym0Fw4+YtcnHm7pASUSeslOJcqBDY2zvAW3cviEuQ3MBlimu3M42GDFHm5bPxyox7xxUVK7qmCFd1j6KO1qIhyzn48WgWR5QZMhyZ9tuvPzAr/XPkzE36OiCbRDVfb8z3qx/dqcwLFCqoWflE2dKudDDKzYeSEXXFXbinEPEhNCKO7mCqK1D4UokhQ/olh3Mm6NXFz8QSvjLqG/KIhswI8QtQ7ZFhLqN4UW5vq1bVCmBjzf6h65LMb9/gucdXOHX5DlQsWxKqV5aoKqAM9Wd/1U9nHIt26eoVZpX7KVhAs2LlMmUkGzi3H76ir8W0NGSYt8RBvrZqXjM4mEReOyw7hb+lQetU4Vrk4uQ6CqQYsntFNGQcfOWxY1nEuQBVrjAmsEp8/7nnsPvIVUgmT8hB2WrHUP+Kj37+k6fP6fQiocAEtpADfYWmYEHNQv8yrq70Yebu9YmubazMwdFBO7lnDC9teHYZSMFWJW8leTJkYAq/VIk2ZB91qG9EQ8YBn9AS5XCMha9BUXD40iu4+sAbYuOTaViI4+f6dGnF/A0Aj4+K08/liY+Ph/sPHzEr7UGP9L/18+H07hXfy1GMDVXKF1xYWVnSUoyv/gFUyx/RNrzEnUtbG/W9+JfmysPLshkp0DBNfZUTdcDrzVCIhowDPh6Zsh1LfYEV+qeuv4Wzt9whPEoy+xF3G30+f4aWjWpDoQKSGwulq3Gytypu3bkr6CDcVQsmQIUyJWiIe37f31C/lqSY1Jh4+eo1c6Q+JYoVo3myV54SBWBtw0v8DNUNLZF3pqpbrLoJmPRnw0z0yIwPPjmykhySPfoAPYCL97zg2JXXEBAqm//AViJUM5Wp5OeR5A8KDiaenDuz0p5Rg7tBj47NmBXQaeiHty6Fvl2zvERj4NWbN7R7QROKFJUMInnwTPK+aeuRody4tQaGDKeRq6JBehzkz9Rdw79oyIwMnCweE6d6srUhPDKUob755CMdSebjx16d7+7hCXZ2Nt9rx+ITU6hHpoqr17OmPWkLyn8vYJE0wjKQdUunwKzxQ2l+yRjAwtZHjx8zK/XA0BJBiSTE1toCHGw13+DBwlhlSrVc4OSjMBPltXBm8A3apumu6d9UR8Ny+CAaMhb4eGOIPnM+2L7y8PUX2HfuOXh8CuaUpUZ1isCgIOjZoRlYMkWe7h+DVWpFoVgiTvYWAtQ727JyptJhGhNH96ODVozFmGnqlRVwcgIrSysIJO8d7grTc/m129jIxzLNiQ98vLL2GqrI9u+W5d1zYS4aMuOCT34M4VKDFRI0WDhmf+/ZZ/DCw594D8r1w9w9JbVf0vANSzGyT+thA6d5374rabXRFmxO37R8Oq/q9EE928Hi38YwK8OijVdWpEhhiIiO+p7w13bnEie1a8J7M9X/Lur7u2aoX+SME756dGzOrNgRdy2NjK8Bqnf30NsopuOKfWkpxb0XPrxnSmJYWbyoy/dBFlg3pmoq0svXr+k0JCGY8ctgaNagBrNSzahBXWHWhKHMyrC8fvsO0tLUNyIuzoUgLjYOwiIku4JOWhqyGA3lcN6b8Pt322hQUxYUEgGrF06EapXYJ40j6rZ5CYloyFjw9VftkaER09V2MyohHL3MlFLw2GmUEhQcApFRUcQba8mcUS2eiEWM9x48ZFba0bZZPZg0pj+z4s/EUf3ol6HB3Vovb29mxR9UwsDQ3cvHj64dHbQLLeMS+LWQyaOqlkxK/XTV+V95cLgITvratWYuFCrAPvrQ0Z6fOKUuEA0ZC3xCy1IltBubzwXWEZ268ZZWeKuLh5cnfUVd/s9+QXDzwSu4fvcpfPj4EXx9fWnuLDYmViZf9ujJE1quoS1YU7fujynMSn3QK8NdTkODXpm6OBJDhnz6LNHLd7LXNrTUrNUH5aixiVwVFTMSweGberuXUhlr7BvevmoWFUOQB2cOGArRkLHg66866V1KB4n+jIxMuPHoA31VF+oReEkUXLsOnQHNe46DYRMWwfFTp+HYyVNw4MhR+G/ffti0bRusWrcO9h44CHfu3aezKbUFL+ptK2cRT0S7iUJLfhsDnVrLKuvqGz9/f7XlvJ2cJC1OX/wkKQkUWdRGxx9HzmlKoIlqBQ7cXqmXpt6DMvsuPtYC/jlnLLPKQtvPXxtEQyYH1l/xGcrrWlJ4j+ylV1aFOF+iY2LgwcNHsH3XbojlUTKCpKelg39AANx/+FCjnJA8i38bDTWq8JuSrYrViyeCq468Xb68eaeeV5bfwQFMTE2o0KLU2dUmT6aNIQsw4TfoWd3wMjFJ1ksc3Ks9jBzUlVlJED0yIyIgOJzc3KrdbleBdyxx6/6lJ/9RXpgLO3H6NGzeth1u37sHERGGGVnfu3NLGNavE7PSHgc7W9i6cub30hFDgBsm6oA7tYUKFqLdFAdOSyTBizprXhibrIV0El9DVlfNdiU247po+mhoWj9rYpjokRkRvv6qdywRob2G5+5+vEazoTd19foN4oHtAu/3H5izhqFC2ZKwcv6vzEo4cGds0YzRzEr/xMTGqN00LxVanL9iM7x89wHqVClBi2M1ISpG87FqQTwNWcFv6ZzDdtnASVzy4GYXPnSwnhLH6SmrG9Q1oiGT48tXfkWh6gyJUAWWR7h/Um1Asadvz4ED8OzFC1r7ZUiwGXzb37PA2ko7VVQu0Mvr1akFs9I/Pl8+M0f8qF+3DhQo4ASpKWkwbOISCAoJg26tqoKVBrmy6FjNm7sDeOTIpJTP4L/JwyXRg+Hkv2vm8h4srCtEQyaHz9cA5oibAk4OgsrSPPfwV5ngxx3H3Xv3QUio7uVY+PDXvHG0GVyXoLdXVs1hHELx+Ysvc8QPbCvq16sXrfKPjomDAWPnQ3JSAvRuV0NtCewYLTyyQFP+XmAFNQpjMQfIReUKrrDhj6nMyjCIhkwOH99A5oibsqWKM0fag4NZVVXeY0L/yPETkJCQ1UJjamJKlU3Lly1Lp183qFcXypcrp1Gfnrqgp9SnS1atmq5Ar+/POT8zK/2CCrnqer0FyefRr08vMDM3Ix5ZODVm30j41rttdd7GDOdlpqZqnuyPzWcKCfn43dblMvhvLKlqP1JWKKsPREMmx8cvqj0yIYftvvEOVNp2hLuKJ0+fIS68AzSoXw969+gBP48eDTOmToafRo2E/n37QIe2baFt69bQv09vmDx+PHRq354O1NAFODH9j9mKW++6onnDmgaZQoXFsf6Bqq8FeUqWKEE+hz5gbm5O6xF/nPwn2FiZQa821Yi3pnoDIy5e/fpBefjUkiHl1fDI9PGA1AbRkGUDCxH5FMOWVxFS8e2VS0vPhLcqBuVGRUXBAGKsfhw2DNq2agWV3CrSXIz8dHMp2CZSu1ZN+PmnMdC6ZQvBpVVW/v6r3nenFk4bpbNcnDKCgvht/MhTulQpGDJoIFhZWcHLd+9h/Y7j4GhvDZ2bVyaetPJbLjZW87BSSizwMzrOxFt04BgkIo+FaMhyDncevaJ1ZKooX1p5aOn9JRQ+B6gWsfP+HEKH5SrDxcUFbG3Vb/1AA9aoQQP4cfgw4kVpN3NRCoaUbZvXY1b6A6cKTRjVl1npj9Bw/kOM5UF5n4H9+tIwc9OuY5BIHpI4Mq52ZeXXToQAEuOxaqhnuGTyC2OxPcmYEQ1ZNk5euM0cKcetnCtzxE7hQvZw+b7X9/FeXKCqha7BsWXDhw6BihUqMGc0A6v3Ddnc/cvw3novlA0NU10YrYxiRYtCu1atITUtDfadkqiL1K1aUmm+KTRM+80cHKLLl0I8hRZxNqoxIxoyhsDgcLh8+wmz4ia/vR2UVlHV71JA8qFfuOtJRQ3ZQKFDdav4NQXzG316dodaNfirUsgztF9Hg0p7Y4HsgmmKQo26JDIiAr5xTNXmS83q1cHc3AI++4dDMvG+zUxNwKUgt1EIDdXOeCKY8OeL8zd+aRBU9zVmREPGsHnPSV4V/Y3rVWOOuDE1yQfOTnZUeufKA+/vbSvZ4VM3JiT58plA544doGoV9TXzsdhxsgaqFkKDzfBYhKsv0jMytJ4mhWULWChqZmr2fRfU3Iz9tsO0RrgAHRpxaoSWhTJEQ5ZrCIuIhkOnrjEr5bRqXJs5Ug6GlwiGl2/ey4aQiUmpxCMTZhAEegw4+QjDoIRE1QWOXTp2pCGPOvTq1JyqvhoDPw3pwRzph/AI7T8n3HnGXUxp5TvOr2QD285Q4FFbYkANQ8ZTBcPJUQwtjZ4N/x7jJZ1ibW0JPTplDdNQRpFs4cPjN77UeEnx/BzKKVWtCvQSPn76BOcuXIRNW7bAiv+tgT3798Orl8/hy+eP8PXrF0hUYtAwzOzbqydYqzE7sX+2SeWGBpVv9WlUExK0K4fABw0aJwsLs++5Ma5yG6GKneN4ll8gjnxDSyfRIzNqMDe2//hlZqWcnh2b06ZmPhTOZsjSyIX7zCOrIdxTg7ASb4gnT5/Bhn82w9ETJ+m0o6IuBeDXH/vA2sWTYMW8n2DT0nGwYtZQ+GlAc6hfrRRnEaadnR20aq5ctlgKdjDUqV6RWRkezJUN7y9ck7oqEhK1y2OmMrvSllZWJLynh7Tsho1gDcs95ElTMnVcHgvg90DVhWyVkOR5Q7Z2+xHWhlh5sG7r52G9mJVq7G0tZQogcWAIKlz4h8RATLx66gbohR05fhKu37olo4zg/ekrbNp1HEZO/RPaDZgM1VoNg0WrdkIK+TsNqpeCIV3rQAVX9tILTEIXYSYAKaNOdTfOmjVD8ePALnpTx+ATritDOiPUJlsdHD7Y2Pjy9StzpB3q+PpmPCIDHBCjKyFRocjThgxVVI+c5TcCDavLlfUWsoULzk5Z3hv2UnqTkBINmrrcun2bSsSoAsXvdhw4Cx0GTYGHz9/RUKZDEzcoU0JxEAhenG1aqm4z0seAFXXB0DL7BHVdkqS1IUun77V1tjqsdBaPLIl4ftqWe2gCjohTBarC4hg/YyZPG7JVmw9w5iuygxfi5DEDmBU71+4qKq06F5CtgMchuT7+6u1KJSUlwYuXipOwMXGMN7SVpWKhYkRUDIyethwCGIHINg0qsF6IrqVKgmN+5fkmY03y9u2mH0OWoKUMOHpkFhYWMh0WbB7ZFz+J3r8gqDFhz5yHISujAxFRocmzhszjwxc4c5nfCDQchYUd/lxgR0BgiGIVOJZgZCeWhJTqylh7eb+HjEzZCx+T7x6398Pr6/+B590DcGb3Cmgpt5saG5cA8/7aSo+tLM3ArTR7iFm1imTaEhfJWqiV6pIGtSoTI6v7BHSqlr8/biJh3yt+BlLYdi19v6qntiEUfDwyISWrdEWeNWTojakaWovgrL7fxv3ArBRJS0+H+Su3Q62qipXz2g5qRfwDZUs3ihVxhhW//0qVIRBzMzOoU8MN9m9aCONHyrbxXL/3/LuaR+ni7HMmq6kwZPHx+inaVRfM27XTQ7uUtgOEY2JiIL9j/u/Tx1F7ju268/UVJj+GfPvG/2fm81gVDZmR8tbzE1y5pbqKH8Ht/rKu3JpY2/adoZPJ2WRMsFHYxES7GyEoWDan1qdzC858xfRfBtNWIil4w1y9I/k9XQqyN3rbOygPHUMjtO/90xWdWjdkjowXlGBydCCGzE5iyOISFMt8qCJtlGHe53geXQDVKwszj0GX5ElD9r8tB5kj5ZgTgzHt54HMSpGg0AhYt/0IVKlYmtW4oBFDY6YpaIii5Sb6KOsswJ9BPqfl9VHypEelUjbvAj06ZURGqT/MVV+0bFTbIKoY6kA9svxZhgzTC/J4eb1njvRPgoriWbxmalYpz6yMlzxnyNAbY0vMs4GTYkoU5e4vXLpmNyQmJUOtatwN2doMa42Li1fIj1UsV4o5UgRr4kLDZZ/s2Q0V9vmxoUz905hBRYbmjWoyKx2hZWiJHhk1ZLYSg8s2cNnTWzLGTyjyqVGAoUqEsUypYoKqIeuKPGfItuw9xRwpB5/0ynYqsbzhzOW79Lh2Ne6CUekFrAlxcbLa7ZgXKuJcgFnJgkn5qQvXKeRf6tWUDMXAnTK23TLsAlCmhIqtNcZMu+b1mSPdoI5RYCMmJhqc8qM0OntoGR0dQyfEC4k6w3cTVPRl1lbykDYm8pQh8w8KhXNXHzAr5YwY0AUKO0sGr8qDzb0LVu5gVsoNGRbGakq8XA2TA3kysoWHIWFRMHziUrj/9C1zRgLqePXoKGmpiohmLyNQpbmlSunD0NTQcf7G0kLzzw8LmePiE8DJyRHsrBmPTC609PT2Zo6Ew0ENxY4EFTmymiybWMZInjJkuw5dgAxycanCztYaxv/Yh1kpsvfYZfD88IUeo2HZc/QinLx4B1JZ1DPsmd0qTUiU6/NjUyA4d+0BtO0/ER48kzViWF+28c9p3+vMuGZmBgQol3N2UxLKGgMYautyDJmNreZhVUx0NJ2r4FLQ8XuEKh9aeunEkPH3yEJMlHvcbLvxxkieMWQYcp26dIdZKWfUoG6chaDRsfG0dEMKfl+spp84bzX0HjVboe5K09mGCD7Ns1MgW7M0eoXYjvTLzJX0Z8oO5jR2rZ1HR9sj2FHAVYj7zl35MNqKZY3bkOEGRzlX4YbByGNjrZkhw0LmK9dvQMf2baFFXcmONuqRZdeni4iIhOAQYcNKxEEur6qMQCVzMFEkwdBDRfiSZwwZhl0hYaolWbA+a+xQbqkY3PGMimGfO/ja/SMcP3+LWUlQNX1GGdmnJiHSoSdoPKcuXE8NqDxVK5aBs/+tpEM7EJwJcP0x+yBfP39/iIxS/p5UrlCaOTJeqpDfWVfY2qhvyNDLwvmj3Tq2hAUT+0GJIo70/JM3vjKqJy9evWKOhCU/Tx1+xF/JHMym9WtwlvoYG3nGkN17rNjmwwYqoeLQUTY+fQkgYeUlZsXOOy8f5kiCGYeIHh/kJ+pIn45zlm1RMJjIsP6d4Ozev+lwlPjEVDh/2wPuPPuksAEg5eYd5R5q3ZqVOPOExgSWv+gKa2v+5TNY87f/0GH45PMBDmxaDLN/6UM9cnz777/8LDNoBjXKUMFEFzjwlK9OgXwQpiS0bNO0DnNk/OQZQ+bLYzoSMqxvR+ZIkT/X/6eyNxNrz7JjrsUUI/ldy9pVK8DyDXthn5zsEOaI/rdwIiyf8wud0vPM3Q8OnH8OX5SIN74jN1FAgPKZAT/0as8cGTdV3XTnkdnxkG1Cz/nkmbNw6cpVmDd5OFzY8xdUc5OE5OFRCXD0yit45SWbi3zn7kFnWOoCB+DnkQWaKt/IaN20LnNk/OSdHBmP6UiVyrvSuhk2Xrzx5tUNUK+GpNxBCu5caUpUdFYxLP5sz954Udme7GAojPmwgT3bwgffMNhPDBgKOXJJxSBffL/CRXLTKQPlrbt3aMqsjBtdTjwvWIC9tUsKToDfufs/KFe6ONw9tQG6tpGUg6SmZVBv+MjlVxAWqSjOqKuwEuHrkX1VYsjQqzfkjAZ1yTOGjE8exdc/mPZOsnHu2n3miJsiLgWgo1zbDPbWaUJcXCwNP6QUdHKgBbjZcbC3hUNblkDt6pXh1PW3dD4AWwtMdlBd9uiJE8SzVH6xY2uWtJ/T2OFKBWgLTnN3dORWB0lKToYTp07BDwP6wj9/TgRrZocYRwGiR4yhJFtY7+8foDPJHtwc5Tur0sOUO/+Xk8JKJM8YMsz3qAKVCp69Zq+yDgpVvVGwYOooBcG/QBUj4bgIDJaVPcbNiuw3BSo/HNm6FL6Ri/HQxZcQEKq6lcjD0wuOnz6t0ogVKuAIM8cPYVbGDxYv66IEA+u/lIlKviReVSU3N+jRviEdOIPcfvoJLtzxUPoAe/yMX2eJJhTLTOGlaIG4m3EbspwUViJ5xpBhKQKfvrxrd9gvsooqpvcM79/5e/Fpdt6pmCTOha+vpE6NDdRP37thAfgEJcKj1194SQO9ePkSzpw/r7SKX8ri30brfZq4ttjzlCBXh0KFCjFH7Hh6eUOlim5QnlHh9fQJoZpzyggNDYX3H9h3kYWgZAa/CCCV+G4fTNk3MvCzb1S3KrPKGeQZQ4bbyA1qK5esQa5yzLbs2q6JQiJfytC+HeHP2WOZVRbvv4SxNgmrAmvE3n/4yKxkwUGpm1fOgVcfo8AvWLahnIu79x/A5WvXOXcvs9O2WT06myCnkZ+E2UKDxaxcYNkKymCjhJI9MxsBc5SquEM+C13imsnvevM2s4Z0Gogq0oN8/qrEBIyNPGPIkFZNVMf9Pl8DFUooEPTI1iyeJBNqFHUpCOuWToG/5o1TaB3CXNWd55+YlXp4EyMmX3qB4HDg1UtmgLtPNLmJVO94oeG6dPUa3HvA7+bBDYV1f0xhVjkLXTQ2FynMLfONgpc4vV06EyElNV1leI9Tkj58ZH9ACUXJDH47oe/MuA2/MU3N4kueMmSd2/DTrzrNNIPL06tTC7h/Zgts/msGHNvxJzw4t5UmxeXBHcNL9zzpxa0uKI18i6W+CxPvi2aOg4+B8Up3JKXgbumps+doHocP2Ip0cPPiHBdSStGFR1aiBHfHgCcxZJUrVoByJSXhJ3ZOqBrxd/e+6g0jbXHlaciem7F/zrhbmVMaxbOTpwwZSvLwabk4c4VbAhu3pLt3aAaN6lRldb/RyJy95Q6hLFvufLh+6zZEZyu7QHADYdbknyA09pvKmwXB+qQjR4/x7uOrUaU8HCeG2bmgpAI9J2JjI+wOq4uzM1hbsX9PLIvBGr96tap8FwX4+FV5831wcAjxxjTz0NWhZKZqQxabzxRecxiynOiNIXnKkCFd2jRmjrjBoR3P36ivEZWUnAZnbr6j08U1ASclvXwl24GAUtsTxw6D5AzVGxUI9mfuO3gIfHkOs8BWpqPb/tBZCYO+SEri54nwpUQJ7to0VKyo5FYRKpSW1FmlpJGwMkR5WHn15g3mSHc4ZaaDPY/Si/vmDqwS15g26dNF9WQtYyTPGbKenfglso+dU2wBUkZYVDwtfgwOZ+/DVEVkZBSdHi7PiMG9wdyaXYNMHmxC3nNgP+8aJQyV92yYD7YCezOGID5B2NkCpTjCSsw7vn7zFurWrg0VmfyYj18EZCgpuH7n4UFrx3SNKw9vDLlrzl4b16xBDZr3zYnkOUPmWqIIr91LVMrAujI+vPEOhONX38goG6gDhioHDh9SGAbbt3tHKFyUXx8hVpjvPXgQYmP4eYM4oXzjsmk5bneKi7gE7ca2yVOSwyP75OMD9vZ20KRu5e/KJspKbFJT0+DmbX6qK9pSMkP1jmUiCStfcISVg3q2Y45yHnnOkCEDeqjOA8TFJ3Im/aVgaQWGkndf+Kg95k0KDp7Yf+iIgmRPy6YNoGKl6sxKORiSHjh8hErHqALDhz9n/wxzJw1nzuQO4gU0ZEWLFAE7O/ab/fnLV8QbqwM13SStbCERcUrzobhjHM+yA60L3DJVf/4PzO0hjUWcE0U4scQop5InDVn39s2o1pIqdh44xxzJkpH5jTZmH7z4knctFxvoie0/SIxYnKwXVa1yBWjUULG4lg1MIB87cUqmnYkLLAje8b/ZMGJAZ+ZM7kHI0NKtIrviL046Cg8PhxaNakPhgpKc4pv33N4YhvpPXzxnVrqnappqY37Wgj1N8cuwXmCaQ2c3IHnSkGFOqF/X1syKG1SBvffkDbPKIjkljYYVmCPB2ZVs8tOqCAkLg70HDlKPLDtFCztD+3adeA0EefP2HZw4c1phQAkb2A1weOtS6NCyAXMm94B5q4RE9QuPuXCryD41CLsjatesCbUrS7o8cHPnkx/7biX+TBeuXObVSSEEmOQvpSJH9snUirV+DK8NHLSTk8mThgwZPbgbLwO0Ztth5igLNGKVyxaG1g3Kw+AudWBM30bQo3U1aFDdFVyLOdHRa8pAQcP9Bw8pCCcitUnYglXjmPPK/oWSO76+vrRf8va9e1Rx4fylS7xuFBywenr3CqhTnXu2QE7GPyiMV9cCH7Cav4CToteCuS4PL29o2qgelC8lqR1z/xTMmVJ4/PSpXhL8Uiqnq/bGTluyJ/LxXsCJVDmZfOQCEOYKyIEMm7gEbt5/way42btxAbTm0RWQnajYJJo/CQ6PpTuZkTGJ9Gb7SELBU2fPcqpsCA1qruPOJJvef27hxv3ndPiKEDRt3BhaNFOUL7r/8CGkpKTCvMkjoE6VErSeb8/ZZ6wdFrhrvHvPPl6eslCMSg6BIcmyQgPZictnCgPzV4IUOd8F5ZqeXNyhk4JifZJnPTLk52G9mCPlzFu+lU4qUgcnB2uoVMYFWtUvD4M614af+jWC5LhAqj6hLyPWolEtOLJtaa42YsgHH341c3yoWlky5yA7KNfz8vVbaNuyGVSvKJEbR2+MzYih8Tp7/oJejRhSO035hsJlCycFI4Zgn3BON2JInjZkWDfTtL7qncGvASFQv/No6D1qDmzfd4ZKXqsDDiT5/a+tsGbLAdoQrg+6tW8K/63/PcdoimnDe4EMGZZcFCyoGFY+fvIUatesDi0auNEZDOkknHzuzv5v3r33QGdaY1zYfcuEShncoSUqXRyzVFTysDA3h5+UzKfISeRpQ4bMJaECn1wZGqCnrzxh8ep/oWWf8dCgy08wY8lGOHbuJhVk5OL6vefQpt9E2H/iCnNG9/Tr1hr+WT4919SIqUIojwwT+fJgHtPdyxPat24GVctJZny+fR/IqjeGyruPnqhWERaaOunxSm/k01YFWbX5B/ZqyznwOaeRp3NkUsbNXgVnlfRX8gH7FGtULg/VKpel1dHoxV268YiqaegLNMi/DO9Fa8Q02UnNqVRu8QOt+9MG7KucMO4XMJMz/leuXwdHR0dYNGUolClRkEpY7z3zlI52yw7uPu/as49XLZ/QTE0MgG6p7MKfWAA7xMGN9ldmB3Nj905vztH9tdnJ8x4ZsmDaSCobrQ1hEdHE+3oG67Yfgdl/boZ/dp/QqxErVrgQlb3GZHReMmIfPvtrbcSQ6lWrKhgxrPP7/OULdG3XghoxBIeIyBsxzHkeO3naIEYMqZ/G3RZ3mISU8kYMwQdebjFiiGjICOhBLZ/7C7PKWWBpxawJQ+Ha0XW88n25jVsPXjJHmoOGv3atWswqi8tXr0H7Nm2gZX1JXVlichq89lbMj168dJkqvxqC8hlJUPgbezF0tIkZHGfJjbkUcqKGLDchGjIGVEWd8tNAZmUY8IbC4sTCzgVYk/T45zjgBFVcJ43pD0e3/0HDg4mj+oGDDqSecwJ3HmlvyLCSv0AB2fmd7p6eYEPCry5tGn2v4r/3woeGltl58uw5/buGokUad2/tv1aFISmf4i0+e8IwXrLvOQkxRyYHDuDF2ZGxcYrFqrqiU+tGMHJgF2hUt5pMmwgWW8YnJtH6Jcxp5AaVCiFJTUuHqi2H8G7u52L0iOHg4pI1+iyZfD+cFD521HAY068pWJqbwdegKKozlx1Uez1+6gx8+6afnWg2dsW+Z63of2VmC9PtFLX3cHbFyX+XM6vcg+iRyTGsXyd4dmknbFo+HTqTpzGfnkxNQf39LStn0v7Hpg1qKPS64RprfDAUEI2YIk9eemhtxMqXLStjxJCbt29D44YNoFvLGtSIYbnF7Weyoohf/fyoAq8hjRgaMDYjhhPEV9soyhDhpKllc3JmCkUVoiFjAcM6DDW3r5oNb6/vhV1r5tHCQUyoCwVKS1/Y/z/oloMVBwyNEPmxJo1lhTaxfSw6JgYGdG9D282QJ2+/ygyRwXzYsZMnVY7V0zUtUtnFHHdbF4EAE8UH8KhBXaFyBVdmlbsQQ0s1wWLYu49fw2PiDbx69wH8AkOYP+EPVtxvJZ6YLgZm5BXwsm3c/WfwD9Q8yV7G1RUGDejPrCQS4SiHNHRQP/j1hzZgYW4K4dEJcPTyq+8S47iTuXf/AQXtOEOwh4SVxeU8MpyONMGuvIICbIliLnD9yPpc69mLhkxLIqNj4ZX7B2rU3nr5gK9fEPgFhSpIL2NyFecFoCb64F7t8lSJhC64/fAlDBm/mFmpD77/ozA35ixReUVOnjkLVStXguk/9YZSRR2p8Tp25TVV/0VwshXKiMvPVDAE1dITYF287LSv5Hwm8KtdOfA1lTVW+Lse2ryYpi9yK6Ih0xEoK4MaWcnkKY+J+oJODqLxEpBfZq6Ec9c0nxFZq0YN6NyxA7OSTA1HufFp44ZCszpl6Lk7z31oFT+C4eZB4q3hqzEwI8kfOqfI9v8usS0Ft1lkrHF49LI5PzOr3ImYI9MR6MIXdnai0tqFCuQXjZiAoBd8mWOQMh8sLS2gZfMs4UrUhkOJnqEDekDT2hIjhuPdpEYMBRL3HThoNEbMkgSOLVNlyy6OWBZiNWKliheG36eMYFa5F9GQieQ4jp69AWlpmifamzRqBDY2kvwkzhG9fOUKDO7XC7q0rEoeOKj/nwI3Hn+gf46JfQwn2QYmG4qWqTFgk21a0kszO9huLVHlyA5O4Fq7ZHKeEA4QDZlIjgIzIftPXGVW6oOiifXq1qXH+L3OXbgELZo2gR+6N6KCmJnk3OX7XpLJ4QGBdJ5CYpLhE/vZ6ZUawRwBbQZfalOSdbzbtJ8H8hq0kxsQDZlIjgIHwvj4aqa8iuF9184dwYx4KsiNW7egZMkS8POQzlDQUdIZ8eDlZyqIiUq8B48cgeQU4SS0haBKRiK4pUt6OtPymcBCG1eIMVFUOUGJqkmjs3ZkczuiIRPJMaCU0uoth5iV+tSvUwdKFJcUij578YIYNhP4eWjP79LVbz8EwWvvQColfvrcOb0JYKpDn+Qsb2y9VTFabiFPQaf8sP6PqXkqLysaMpEcw9GzNzVWFHFycoSWzSXDmd9/+ACBgUEwYfRAaFRTUiD6JSASbjzyhhOnTsGDh4/oOWOj0Lc0aJ4m2XA4bOkMFyxl+0MRzIthVwp2g+QlREMmkiNA72jNdsVBMHzp2qkTmJmb0UEuL1+/gSnjhtPhMQjOpTx68Qns2bcfvD98pOeMkR4pEWAG3+CKhRNss5aIPMrz+5QfaViZ1xANmUiO4ODJqxpX8WPfJMpYB4eEwK3bd2AqMWKdmkq0+XGHcsXm47B1525ahmGs2H7LgF7EkD02t4dVLH2UCCoD/zSkO7PKW4gFsSJGT1R0HLTsOx4io7gla7hwLVkSBg/sT4xYKDVik34eDv061QWTfPkgMjoeRs34G569eM38beNlaEooNEyNgxn2ZViHiNSsWh5O7FwOlhaKktZ5AdEjEzF65q/crpERs7Ozg57du0FgYDDcunMXJqAR6ygxYk9eeUPb/pNyhBGz/pZJVWDn2ZVmNWLFijjDztVz86wRQ0SPTMSouXbnKfw45U9mxR8TExP4YcAAcoUDPHj0GKaPHwndW1WnY9rWbj8KG/89BhkZ+h3Zxga2ryUkKpfIbpsaDW/MbFkHiOS3t4OTu5ZDxbKS6ed5FdEjEzFaUIt/9rLNzEo9WrdoAekZ6fCQGLHFs36Bnm1qwOOX7sQLmwzrth82CiOGcyL6dG3JrLh5am7HasTQA9u5Zk6eN2KIaMhEjJala3ZDcCj7dCBl1K1dC0zNzODVmzewZulUqFmxKExZsA76//S7xsW0umDJb2MgMVF1wW1sPsWCV6wRW7d0CjSqU5U5k7cRDZmIUXLxxiM4cFL9WaDly5Wj8jsJCfFU883D0xNa9PqVzh81Jrq0bUx3GT9+8WfOqMcfs8bSIcwiEsQcmYjRgZPDuw+fqTJ3JA9OCbezsYX6dWtC/WqlYevek0blgUkpXtQZrhxaS2XM3ZoNVvv3xPGFY4f2ZFYiiOiRiRgVsfEJMHraMrVvbgy18JlctVJ5cPdwh1l/bDRKI4a6+ZuXz6BGLDA4XO3fE0f/iUZMEdGQiRgNaIjGz/kffP4axJzhD/6/JvANLly9CZ7vPzNnjY+F00ZBnRpu9Bg9T3XAcYU4+k9EEdGQiRgNKzbug5v3XzAr9QmPNLwEtTJQ5nzkoK7MCsD7ky9zpBo0YjPGDWZWIvKIhkzEKNhx4Cxs3HWcWeU+alerCH/NG8esJHh+4GfIMCcmGjHliIZMxODsOXoRFq3ayaxyHyWLFYZda+cpVN6rMmRY1Lty/ngxJ8YD0ZCJGJQDJ6/CvL+2MavcB1be790wn85tyE56egZ8UJIjMzc3g41/ToMferdnzogoQzRkIgYDa7tm/fEPTdTnRqwsLWjlffkyJZgzWbz3+QqpaWnMShY7W2s6FLpHx6wBKSLKEQ2ZiEHYd+wyTFu0IdcaMfSosCCXq/L+nRf7zipOsz/571/Qqklt5owIH0RDJqJX0HAt/t+/tIcSpatzI5jbWr90CrRtXo85o8hrD0UBRxzgfHbP31C5gkS1VoQ/oiET0RuJSckwcsqfsH3/GeZM7gMLc/+ePx66d1AeFr589545ktCOGL0TO5fRWagi6iMaMhG9gFXsvUbOhmt3nzFnch+ol79m8SQY2LMtc4adlNQ08PzwhVkB/PpjH/h3zdw8MX9SV4iGTETn3HrwEroOmwEe77Nu3twG5sRw6Ac2gqviDQkrccAwapFt/XsWzJ00nIajIpojvnsiOiM5OZWWVgydsBjCIoy76l4bsD5sx6rZ0K1dE+aMch69cIeyrsXh3N6/oWvbxsxZEW0Q1S9EdAImsyf9vgY+fTG+xm0hcXSwgx2r56ilC7b32CXo3bklLbMQEQbRkIkIChZ6YqvR2u2H6XFupnTJorBn/XziXRVjzogYCtGQiQjG1dtPYemaXRoP0c1J1K9VGf5dPRecHO2ZMyKGRDRkIlrj8f4zrQ27//QtcyZ306dLS1i1cCJYmCtKUIsYBtGQiWhMaHgU/P3PATh85nquLW7NDib1F80YDcP6dWLOiBgLoiETUZsPn/1h297TcOLCLVoTlRcoVbwwbTmqXrkcc0bEmBANmQhv7j15Qw3YzQcvcm2PJBsdWjWAtUsmg4OdLXNGxNgQDZmIUqKi4+D89QdUMyw3F7SygeURv0/5EYb27cicETFWREMmogAOALl04zGcvnwX7j99k+vLKNho0agWrFowAYoVKcScETFmREMmQvniFwyPXryDSzcfw52Hrzi1sowFbO8p7FxA8ElJ6IXNnzoShvTpwJwRyQmIhsyAoKcTFBoBqalptKgSlRP0AX7knh994fFzd3j80gOekC/cgcwJYE/joJ7toFHdqjB5/lpBvUVsMVowbZToheVARENmBIRHxsCdR6/A1z+Y9iS6ligMZUsVhzKlioKLs5PGSebI6Fj48jUIPvuRL/L6hbzi1yfixcTFJzJ/K2dgbWUJA3q0hXEjekEaMV49hs+EqJg45k+1o0aV8rBo+ihoULsKc0YkpyEaMiMDjc/lW4/h+t3ncO/Ja4hPSAILc3Oq+V6QfNnaWNG1hYU5rWvKyMikQ15R6yshkflKImvympySynzXnEuJYi60buuHXu1pFT1uPnQfMZMaZG3B0HT2hKF0TJtIzkY0ZEYMhk1PXnnCzfvP6bxHLxIO5gUw/9WxVQPqgTWtX/17yJ2UnAIDxs5XECVUF6f89jD6h+7w87Ce1NMTyfmIhiwHERwWCY9fuFMZmCcvPOik6tzy8Tk5OkCrxrWhS9vG0LppHTq4Izto1EdO/VOrAb5FXQrS0WpD+3UUDVguQzRkOZjomDjqsT177QVvPD+Bu5ePYHkjXYOGqk51N5q0RwNWu3pFzs0OvETHz10NZy7fZc6oR9lSxWDcj72p6KG5mdgfmRsRDVkuwz8oFN56+sBbr0/w8bM/1QPDfJIhW4lwpxGNSY3K5aB6lfJQs0o5mmDna1SmL94Ah09fZ1b8MDMzhTbN6sJAEp52aNlAbzvCIoZBNGR5APyI/QJD6W6lP3nFko+gEPJFXoPJV0RULMTFJ2hcyoCbD4757WjyHMeZYfkCvmJJSYUyJcG1RBEwNdVMjHjO8i2w9+glZqWaSuVdYUCPNtCnSyuFobgiuRfRkIl8B3c8Y2LjaWV/amo6MWzpkEq+pAYOPShz4umgh2VJQkMHe1twtLcDKyvZfJZQzFlGjNgx1UasWBFnujnQv1sb4umJTd15EdGQiRgdeEnO+mMzHDh5hTkjC5adYM1Xm6Z1oVXTOsTrU5zkLZK3EA2ZiFGB3t/kBWvh9KWsxD6OSatcsTTUqlIeWjSuDU3rVdeZFyiSMxENmYjRgBsSC1Zuh+DQSKhCDFdVtzL0C7XxxWS9iDJEQyYiIpLjEedaioiI5HhEQyYiIpLjEQ2ZiIhIjkc0ZCIiIjkcgP8Db/FluH31C9kAAAAASUVORK5CYII=;" vertex="1" parent="1">
          <mxGeometry x="-170" y="-840" width="258.75" height="230" as="geometry" />
        </mxCell>
        <mxCell id="HHI03vcwuIw9m70cMw0Q-134" value="" style="shape=image;verticalLabelPosition=bottom;labelBackgroundColor=default;verticalAlign=top;aspect=fixed;imageAspect=0;image=data:image/png,iVBORw0KGgoAAAANSUhEUgAAAJMAAACSCAYAAABBufiwAAAAAXNSR0IArs4c6QAAAARnQU1BAACxjwv8YQUAAAAJcEhZcwAADsMAAA7DAcdvqGQAADejSURBVHhe7X0HmCRXde7pnp7pyZvDbM7sarUKKGEUQMgY2yBhbCwcsAFhAY/wgR/P9rP9/H3G7/NDD9tgGyFhjEUwDjwkmyBhESwkWQmhrJVWm1e72jAbZ3Zme2Y6vvOfOufOqeqe2TShZ+1/9/SJVXXvuadvha6pSlUYfX19dPjwEcpmm2jmzJnU3NxM5wpyA3nqPtpPPYNtTFnae7RCLx9K0e7DREeOE5VLRJUKB3oqRyxmY6qwXWCy99syLmbWNKIVC4iWdVVo/qwUzeocohntJ2j+nHZqbW3SwKmPwcFBOnr0KKVOnMhVuru7uXOtNHfuHEqlUhoytXFiqEwPb0nT958rU29/kfKlBioyDeV5vHXwrRBQTOg1CiSlutiUS4wrEikctcfWwVTGOmAyrv6mDFNDiXmJpndk6C2vS9OVry5TW0uaA6Y+eE6i1O7deyoNDWnq6uqakoWETgwMFmiw1Ei9A2V64qXD9OKhmbTtYCPlhjggWQSQzQZdB9v8QMzGFAoJHDYwky0GXG0iA5DZZsUVi2XKNhKdv6pI5y0/QpdfPJs621PU1lyklpYmHguOmWJI7dixs9LVNX9K7toKvIt6YleZHnmxh/b1ddK+4xkqFNiRGLRQPLDVGNRAGuftyUJKrjOme78RmPn8uhh+2cYGoq45BVo8v49e95rpdPXlU2/GSh040F2ZN2+uqlMDh4700oObC/RU92w+BiLqtxnIBgcD5wZKOJiLCQOrMWCyW3N2yLarCssCKsds0CHr8jXjoTtCDGx+dwq08fd65VKiS847TFddnqKFC2ZFjjpHig++K+3t7arWL/LFEh8HpWjjgTTdfh/PSkV1YAB0UATJgYMOUe0Ci0/GOJvIapd4cLPViJH1ixAnxIRtuxjblvlC0cJuccybs0Qffz/Reav5WGtaijKZ+p2xUoVCoZLJ8NFhnaLvxCAXUBM9t3uIdhxO057ebHxXhiAbLOjKYQsy4HWlqgJQPQy+xSX8YnMxI20ntj2Nhxhk8ykldbNleBe4eP4QXbg+TRdvaKAL1heprQ7PBlPlcrlSrwfe3T0F+sqPG+iFfSkaKHAbNbk2GEDNQYUNosnqw+4kFgfZrStmA5j7WE+wVy1r24Juci27cmkTi1hPbDsaE5aFDM56e1uFNqyr0AfeU6IF8/kIvo4g15lUrgugOXsP5+j+HVn6j+0ZOnYCxogsuZb45ED4Yx6LjS3rKKmLLRHvj2VCvK4/xHvZYhzFlh8hPqzbdIvTmCo/U0cb0ZvfVKI3XTtIixa11cXZX10VU19ukF46lKW7nyvRS92ZkNSQTNNHGYhgcwMRigLgM0CB2ZTCMlDd+j1ZfIgFB2DTZasKILFOmPyyyW0llxPbSDGM9Wvz9Es3ZOjVFw1Se3trZJwk1EUxFUtl+snOPN2zqYn29aaJD5MkYckBiiUyqWuM98d8AHPYYsUF2S1rs11YTu2ig8AS6ws+ptHaXBWb1P2yyn1MTGafTUZtLXxMtbBIv3B9nq65uomacIV0EjCpxYRNn8in6KFNx+krT3fK1WOxg/vkueQC8MMXG3ilKt3J3hZ2kbpOFJi/eh2L1xiTJQY+tZs80rZ8u2PLJv2QVU+uK+iAX9ZRI9fQ+97bQz993XSepcqUTk/smd+kFRM2uvlAie5+IU3P7k3RkDtDA/nExvSELITkMxspyUZiRwwAXeMFWIfGhdgE+aIK8UBi2RBrMjig+ojbqrGemD8hi47tANBZxqWEiy8q0zt/vUzr1k3sDDVpxfS9Z47RPdtm0ME+zoFLfK0kBZl5MrEp9dngiU25xMHO00HSL7LazG5y0HXdolsswLKINZZHnJ/dkuuN2Ww9JpvdUdIWW9bZvT/NDcB16F/5lR664Ybp7JgYTGgxYUuH+wp01/MZ+tEWjHBkk0RY8hEImeEH2yiZwGRMGEzoth4nhzjlsUGxeMel8CCbn7nIgNdNdnbAty9sB7C7FYBaMaPINbcFHTKgOujNb6nQO3+jSPPmNY77Gd+EFVOZp59Nu3vozhc7aFN3Y/TLvSdOhDRkhMTGdJe0moPl/WZTiiWc5ZgfOjNbXopJuSARn1y32BAL7u1gaq/yJdZZ5U/aNN5mXy8nlzG68KICvfumXrrgwpnjehw1YcX02K4K3fFokfryXEi17iFiig206d7v7QxJootJrrNqGzoQIoPVWj/bbGbz7UnG+niBs4VYwOtKiAlth6nWupkJZ58vFtEhKpeTBvM5HpZhP+qns3OIPvKxLF33RraNE8a9mIYKJXp29xDd8ZMsHRtoEFsyeZYEGxjvt4TYAEMO8YDXEyTrASAn7GFAWG/gZONX+wYqsFykTLqBcFtOmvcLIPxCkKrwErKeCn8ZmHjZUqlMpUKZCtzHYinD1EiFPFGxGK0b8H0J2wdXe7LtQQfT9iXbbjJQcdfNQgw4x4FbP4HZs0v08d8doldfmqXmlmgsxhLjXkz/9HiOfri9lfoHWbGOamcFsFmCAKcnY2OJVAoxRj5WhLhsSUbxrFxAtG4p0Zxp/M1tI2pt7KWWxhy1t2WppbmRWltwzaaBMigs3T1gd10slmkoX6JBPgXN5fLUf2KIBoa4jwPTqLcfdzUQvbCZaNsuojwXl7Ut1lZthwDtU7uPCbLvi+ne7yi2TNLG1Mb9fNsv5+jmD479Bc5xK6be4/105wvNdP+2DOXxC7/vFBLJLPatg81kR2Kz5DGrJQtBhuhkibMYxvwZROfN30NrlzbSmhVzaHpHA3VwTvFD6liiyLNFHxfVsd4SbXqpmzZvL9FzWxbTvv3sdO2xIq/1JQF5f9UM5eSYTdcV/AB0t41sE9HPXV+k935wkKZNG7s7RsalmAq8G7jrmQp9+4U07wq4/dqJMOWyXDMZLnlJn/hNZj9kv75kDJKPC8Ht2SItmZehG68lWruY7VhoEoB2bdpK9A93Ee18mY8d+zI0pFf6wxdhhL4EXeOs/ybHYm1dLCMH4ZgKNo0F4UaRX31Xhd51M+epaWySMubFhBnp37a20g+3pqlvQDsAaCdinU7aTLdlmHtfMk7IYgCWW7NEXW376bxVM2nFgiytmt9PC+a28bHQJFVRDby8u4+27OigzVtytGVbH+3aM49y+oN2rL8uR56q8gWusTV9RhbDDB/TpxPd8PYy3fgbuTGZoca8mL74SJH+fWtGvhHScKw9QZYkqLjoCB5LBmSgls+T+VXvbCF635t5V7ZokI+BGvnbN/YHmWOJPO//+08U6cXNzfSZW4l6eqJZJORH++UpZgOQAxDr8nVxOYE9uXsUu3LM0pihrv+lIv3275/91fIxK6ZBPiD9l6eHZFbK608jvhPSWWezjgJi04RIvJeZRAbYHmxYnkWcia1bRHTNuh666oI2OXCeisjlCvTd7/XS/Q/Opq28OwxnhK6vVTkB+ZyYDSyRK4H5mVBIQqxm+Ut44zsH6J03NVG2+cy/gGNWTE/syNFtj7USn9hEHXANF906xBymkAQw13GhZIySXyf2Wgv4gPqylTn6xWtaqZ0Tci7g6DGiO+/K0RNPtdKO7ZwCnPon+m7kbT6/MZ/afawvJHxA7uQz2t/94xxdybk8U5x1MeFU+bGX0/T3j5foaI6r2jfeZO1grJOOfMdr+nU9Ji+ezVPzZXm6cGWGZrSXqQk/l59DwO7vWE+aHv9xge76lyy9vCuyIzcym1tOTFbuSWyaTxSN5TAUEowMOZRUfc7cEn3wfzTQVa87szsOzqqYsOTGnYfprx/toON5PvLVNVV11HQwltH+EONl5mJSPbQMOhP+zmzp7BL94Y156uw4R6aikwC7v498JE379jXQIJ/QSI6QF6WQT5Vhix1OgMPO8IUUiolrRkT+gDxzdoH+8E/76PwLZoaYU8VZFdOh4wW67SGilw5FP5GExiv5joSC8T5P7E/avN7WVKZfubpAP7W2TLOm/+coJMORIwN0330p+uqXGqmvj2d/5KRGXkfLX7KIvB6I7Q08yW+4qEAf/yOiead5j/lZFdPnH67Q/VtS0i+5FQQdQFHAiQ/rKAA7ZMQoj8Uk7CLDx9iwhOjXrhmgVQub6v4MbbyAq+7btxfo87dl6eknOD+am5Avl8dgU27FAvjdGkTZm5muhJifub5CH/ufLJwGzriYvvdMD93x9PSoSGDAh+tg6Cz88CXIF0uI9z6mFv5iXHd+jn712iy1nsVZxrmE3IkS/d0X+Kz5bj7Z6R/OlZDmEKLZQpHAxh9+t2aFI3Yxxm0f/J1j9PM3zBDbqeC0j7JwwL21u0h3b+VCSjRcAJvpCdl0saHIYIJuSTAf05xOno2uytG739T6X4Xk0NrWQO//UCv91gdyNHceGzRfIZ9MVlRArJCsKGBTMlnMkN1M9a1/nkGbNpZ4THRlJ8FpF1OukKZ/fT5NhxLfCpPDDANmshGgMaLyh52dAOgTdJyt/c4vEv3s5Vm5jvRfiKOpieiGt2Xpf99CtGo1GzR/wjm3VihCbAK3kzOTUVgig7NdZizTwVk/eIAL6utpngERcXKc1lDlC0W6f+Mx2rgvHa5we4rtqrysutiYpGkq201y8KGQ8GPsr11TolVdFco01O+MtGPXAD36eJ9qEw8cO75qXYXec3OJFi5yOVWgIEBRNYlJuNgUJo/EMW7PPJmiB/79uByznQynVUyPbc/TP2+cQYOJm/+F3LZ8IdUk55efU1Rfv5jod3+xQpevie4hqlds2U70Z58r0NZdHWqZHCBHV74uRZ/gGeqiS8wYFQOyB24zjcg6+wiZzNzbg6zL5weJvvS5Tnr8YdxLMzp40VND/4kc3bu5KdxOYiQzDjiCVE/6g66y3z2C0Gicsd38pjItm5fiDp1ysyYcL77UR5+6tUjbd/FBXR0AuVqzjui3f79Ml1we/byEfIZZSLkvqqBjeawEHMupIjHQReEh4nH7zp1N1NeHm9JGhq1rVGDwXzjYTPuPZ2JFIAQw9xfKBKpLg9QuTOVgY5rPx/Lvuo6PleacUnMmDTt3F+j2r3TQ7r2ZeF/rAMtWpOnDv1OhRbjNhvVk4cBYS/d2UZ2MDyk6HpZ9r6Rp03NZ7vfInT6l0dt3JEf3PFccfhKbFoHMOqabDDC3ZOPYCj7R4UesxoMvm0v0m68v0fJ5cNYvZEb67ABt3saK9qPesGJVhT7w0RItW+mKAlXhZKiAmJ1dbKaL4oqO2cAJou9+s8RFlYO3Jk6pmB7YnqUth5uGi8ITwFwawFyKSuVaFJZn4PT/Qz9PdMXa4dti6xGb+Rjp03/TEnZtsRzUEZDDK69N0+/9Mc/2XdB5XFAMTDLD1KCqGF5POI4yn/KXNmbo/u9no43VAIeNDjzW5gebG6IZhpOHjUkyVZcCMxl29QUCzO4Ijxd666U5PkYqcUOx1voEdm1/+fnj9PIr0S5evizWjzoEcrnqVSX65XfmqKVFiwHpBRd/nIAgmz0yC8SOvqr94R9lqPsAzsCqMWox4bHHX/5xgzxIwpIXikcUJcAlWYrKkLQrvX5djt54aWtdn/5j1/bp2xtrzkjhy1OHwGWDG97eSj/3C7lQHKCRZifAuAVDD/FcJSb3HCX62t821DwYH7WYXuzO0EsHUsOJ08LgdcaLxGTmYZZSOcQoB21YSvTr12XlHu16BQrpLz6fkWMk3/eQC1AdA9/Rd92cpYsu1cLASGtBGAHBx0DBWNH4wovJHPvS8yna9Gz1k+tGLCY85ub5V0qUy/MaEsnzRQKKXcVO6LHk83JtTSV69xvydf0TyfBZW8tw210/OCOxPtYr8NPLu98/QJ3TylGbtSDsGMiOlwA7RkKgFU9SttihwRRtfHaICnn7o70IIxZT70CFNu4tR1e6ASQuUUQgKxZJNPvFrHHJosP9SDdeWaAlc+t3SsIFyXDW5tqeLCrRpwBWr22iX39vgZpbo2IQYnvgKhtEVrJ4kwNn7NqWpv7EzywjFtOW7gba28tH7igIKw5L4ggE5gsufHuV5k8r0ZXnVXifPuJmJxX+guRo/Yx9qeocOH668toyLV+JE52oGITgBMeMxBwzkBH/DzIUs4FsNtv3SpY2vxAfx5qjuu/AEbrtfvz5sxo4acnjn1BYWmzitxgw82vMoplEn3x3/d7Yhl3brXcQ7eazNt9u348w4zrbVMCsWS30R7fkacmyqBCEeOSlMNhvNijmE4cxtSNeVJZLRaI7Pkt0+FBvZGTULKbHdlZiv7+FxEG2ggF52VEyBht/86VDdfuXI3bWtm1nR6yvgJ9dkdikf6qgc1oL3fDLeZ6povEQYrsUCQSGzUTBj2JzBRfzMWGyeeSB4csENYvp+UOzQ7JQGFhPSKAjS2wswUyxeAaucl+ypj4LCcdIuCCJC5PJfgSoXuUHTSFceGmGFtjPLTDwR6xoWLbdm5HYnE/iHb349OzoueyMWDEhWY9tL9POw1D4P2YYtQuhsJBA5pJY9fnkWpzFNPAGL1iSo2lturI6Am4j+Yy7IBn6AAaOPmg/rJ/WN4ubSpgxs0yXvTZHGZzVu4IAhOHDbN4OboLC9P17iZ59siz5iRXTwFCeHtrYE12k1IRJUZgMpkm0oorZISuJmT9WdBG99arWuvtzJLuNRC5Ior3WF5Dre5IjhxJmtikEPIX3be9opXXnR7NMmHnA3ewjBcXMZiRPsHn7YI7oiUd7aWAgnyimQob29fNxAycqfBOVS0ItgbCPIAsBzFFwV646TDPq7NUsctb2OT5re7n6rC35hRAdgG45sP5OQbR3EF19XY8UglSMFoWIpqs8KnGMHJCzcHBfB+UHG+PFdHywQgf6omMbBFtSY4nzNiV/kIrkW9LxuJqfuWIaK/WDcEHSztoA1/7Qbwb6ZX1DLHxhGcDLUwivvaZN/oIXRWEzkcw4zH3BAEFXWWwqGz/cnaG+4+V4MeHFf/KcAC6E2GyjxQGbJFO56WYTgsyEH3I/eD3V1RmczEifHaCX8BOJtVfbbP0IfTKussVYPuSJbZCnIFpaG+k9HyRq4z0GikEKSmEF4knsXCkWKzbl0HGZ4NmnDseLacuRWVGCNHGSPEskAvDhCaglMy3q7KZXLRj9zryJhJ212TES8mFtRT+9HghFo/1PFt1Ux7oLBmnewv2hYFAsdjzkj4mkYKDzMhYnNrOrbcdLM4eLKTdUphf3x89qJJlIHgIsqdCVW4zZoOIDu4aVSzqoraU+Drqxa7OzNmt7craxmUg6AVIdSTSb6CoHmqLo6GyidetnSEEA0k9wExgQpVhEGJZNFyjfs8sdMz26PS0vQ0bCQoIjV7yQnBwCTFZfE+/Z1iypjzM4uyBpM5KnWPEkbYDTkzzETFHgJ63lK5sp2xyfiQyyO3OFFtsVsmy7O+NDAyzDOTCYp3ufia4VSJKsYMCZYBfyhQS780ksA7b2piKtnDt5fwZkQCH9ub+NxFFSD5ToY02ZSZaf4li+up/P7vAXIlFBGElxaSGZHPMxt5nKOOyyyIEj/dTTVxyewgHmojOMAxYTTKYrB5bOz9CSBZP7Z0B21vbK3pbQRmunLyTfbs8lDjIXEWTkTQxKyIMsO4XRtaCNFi3JhEKxopC+MsSmHIL5YvFK4mdGPYNt8t5/mXk0eUbhG6m8ym4EpvI7ro30yYK/jSS0dwSyorC+w2ZyKBjjrs8SA3kKI92QoutvHC6MANVtFwZXKDKzQTEeiVExHR3IUqHIxWTJ0WRaEkPiXDIFKlvC4cdf5K5ZBOfkQE7//d+1ubaGdgIqW5FIH2FyfQzxpoOBW8w5gNVrecwWREURikdJKgSyVEkkxwoMH6YzpcvlCh04hoekS3gsUbHkI+HMfIIRK/G6DHzr5++JGjIJwK7ts39XCRckrS/STua+3dZeazuabHaB80msyc4mNMWBsVqxNhqzUBROFtK4qmKDXX3iH8in6OVD6VhiQSF5RgB40m6k9tWLJ+d23NhZG+DaZsd5IPQr7L7QZoXvLy5Iih9Qm8BiwMx2DmDV2saoKNyuDIVjFCsgkxHr7KA0Hmi66xAHuaRJohIUSz70RGJBeIXE2lV4zsvEwi5IgqNJI34RVA79U1niRVECEjExn1//OYBVq+dQY5YLgmUUSdXMxGQ277Mzu6Af7hmgw3azHCenaiBgMxmA7pLv41fwvhevkJhI+NtIpJ3aHikSI2eztiJO7OCmJ2Og67LBD85q9HFuoHN6Ay1dzgKKAkw+VFcCjANODDHpvd29w0lCgk6VEvHYdaxfFr3QZqLgbyPxZ16jEoqjRttFh8/ZR1yfLi/+cwC4k2AVH4hXzTRerrFbi9l5Pel9XEwCnyylZIGJjoQD3s6Ev9PC25Em6uFcmzbjNpKokMLAJorBk/XD9yf4bDkAuvnc+vxyQT5HgLGbOTt6WwEKA5WBQrLZSaA8FJLJxnnc08f6OGN+EFiOJctk0wGWRVU7vtn4gxPccjIRwFnbbXIbSWPUVobnIHTS2ucJdouFHmQgaVdKxsTWfY6gg89bGvUOzDAjsQrZrjGFQgLpjARHiC00rwuJ8TNR+LYm7FJs8CnBDsKL//C+tvFGuI1kq7YDbdLbQWq12Si012K8bH7Eghsxgq4+WZ+znStoaunlGaoQCglAERlCESXIF1q6F09IQVKYYBQgUYAmTuyWRJVFN5ntmVRRXvw3nvC3kWA2tHYImId2ep8b9FBYRoDKwW7xKsdy4nxg5xKamnPUkCmGGSccCxlX8sdRQrysxDCl+zH+mqSQUDDosKsci7GkgjPBhgdQ4A2S4wW7jSRckMT2lXsZ7ak6GEcbtc3m8375wigPNkehv4CuKxTzOQKMXSOesc59QpHYt0hEFI2S2Ew3GRz0W39VqRzCq6lYiSXYyVYwQVcKyWfMm1GkWz40SLNnjv0N39i13f7VjvAn28lBNzmpi+xik/4qO2KhKhcfy2EZ86t+8SUUHgwBCOOPwNUOWNJjfnAAclJ3PLme0fiSFX10yRWn/yP74UN9dOv/aaaeo3rbNq+vFgFh12bc/O/8VKWClwxWJVX1YDM7AJuLgX/B7DL9xcfy1NHeLCFjBRQSnkaCh0jY9vx2g+zaJsR66AuAGPN5P2Ax4C4O3M9yyW3USjIA3c6GfIyYkrZRCPDrSa5TdIZtd/Hy4/S+jzbSkuWn/1fTJ04M0Wc+kaEjB6PrhLaNGMHuC0hlfKAt6YJ74KkkzRIGmM0IMBtEJ2Nl2ezY3gwnt5HwjLSHC0kajW0pxdoFYsiuB0XiBh2dtpiwa2ICk3VqAXm7wceDrA3gsQSrDtixBow+RpKtvpEI8LIVT1iWSWQmHw8sXFyk936484wKCWhqbIjeFqrrrkm+/U6WxdA2e9FgjJBgDErCLsWjPm+HnuJ/eMv2WCHcRoKzNtuubq9Wu4S7Nhu3J94ZWdtjM44j6bcRbBof/CCGJVIqRWXRoaqsY1PTF6PIVTWzJWNAYVsaB1qxhujdHxqg5asQcGZoyKTllpSwXuUG0Y34IyarnvbJlkS5hHld/BYLkybZCM0Yq+dSJm8jic0oTo7p1h5AdfhstgrxzIQn7CMSWEKPJdmS6YntKAbv93KSsICPj4SIxO4IDLBlsWu76cMFWrPu7G5GxNjhEYa2XtuFYfs2o8r2lURO2NOSICTVJ9xIbcJVxrIhFkxjTT9b+NtIbNvyjCi/HaVQ0MylHSz6fkiMGJ0MjnhbRm1hHU4X7kgSViPJRrCJzHZApn7nT5LB9OQ6oWNjYodNYy0Gu7bffH+KFi8dmz8ns+2Cgq7bknZAVt3aZO0L3GAJtmTCF3SVRTe4hOP50HhJz9kAP5H4m/9t29IZlY2sHck2mxxsjvwsBTnMeGAmJ2xml8SCWDUZCPYRCAuI7IpESJeVIgHpQAFih6z+KDiywQcsXnGcbv5Y5qxnJEM0dpWoLUbYHlulPWaDrm0DrH0S04SDd0ugJzAnJ/2xQWTCTXan8n6NkYBjpL/4m+bh038mG2xsK0BtRqEgEhSzA8x9ewFhsPP6k+uR2Ci/w8k10mRKAlmWQYbJ/JBhN53Jy/w/8rv1iE3XYbFJboRjpPd/rOWsjpGSKGHsuNO2DemX26YQx8W4CMM2HHNF32hNnH27RTcbdHBAYwTqA5VKFcoX7Olgp4dwG8me6Lc2Kx6Rdf1m9zZra2gHwNzHCLe45Hrd8kFHjNmYWdKQJpAkT2VJJsCBUmAMs5vLzybB7vywYdDMILEgrNPZTO5aNEC/elPfmO3aDEP5kvRdNq/b8v0HhKtsbTa/0G/9WaXSfYQdWBKEhDIzWUSXYJAkHoBd4+fPLNIt/32A5s4+/WkXb0cKL7Wx7YDZdgCTnR/8pDEMKxhBDR7W4fgzTzI9oUmCjT9qJtCIXTLTIERtST2QGBM2Jr9+mxUAWw9mJBTSWO3aPI4c6ae//XNctMxI+6RN+kUIugjV7QTE/5G/rFR27WfNkgpCgTDH1O8HIvatNbvSnGl5+pOP9NPSxTPZMPVxx+1EX/lClCTAkimDXKtIWD9pMUF2tlAwkDFw4ohsFm/rwDESdm1jPSMZXtlzlL56azv19TRF20Z7tA3WHmmncmHgjtJtuGCtBRGOUSCrOUB9RoiVeJ2dCryL6+/Hy1XODUiClMtAQwd5GYQYi1clyN7uZF9EIV4CItn8UkjM5YLkhzrHrZCA3IkhPlRxD1Flm5DpSjBa+5KUnoE7I7koUEAy23BhsD3I4mOenJVCPDizYilDuaEJuqFpooAkmYhkmcJIJhIEVCU6Mg8XEGA+R7BJTBQRtoXrSGd7QfJUUMy38hjzLk6/LEDVFwcUuartTOlM/sXhwkHRoDhc4VhBBQKcD/GYoYrFRjoxVF/PYjobSHKQTE2oyRjkUDAcB7vNXMaTFOw+1pHpUlBuHXbWNh7HSEkUMHaVxqg9aCef5UuTVLc2eUr2Nz2jk5fSgrGZxmSjUDzQfXEBasPPMr2T/3iBsQf3D4kymAyGJBuCnbmQyRajdhHFGdeFIlXkBbxrG4+ztpGQ64+enothtXZEnYhEQFT+iLUVpLZ011z9OzMgUSRJCoVlxWeFxcADnw7xWWHxzK4O1CUkUYlvH2CzCdSkL2aPTCHeyzITMWT9kRgtwyQXJD86dhckTwYUUW8PDyuPZ+gbk2+r2QJZXpQD6WWLZ0R/I26FAqBIXMGEGcpsYGY3memFzUR9XOHnAmIJM4IdtqRdSaZ9XRZCSDR80B0BfjdhMgoJt5GM9zGSB15MuHsHb59la09oV0I3AkQGZ0L7eTfXTLOwu0RVMKxIImV0CmdzAMvbdhEd6zk3piYkShIEjqQpxWRXDEZSREzwARZvdiswW1b8KttZ25JlE/sWh77jJTrwStQGI7TL2gx4n/it7+DWl1Zu95L5HM3FgEIKxaKzjUBtYGHWYkjRWSzzfJ5o8zb8efA5Au4TkiRJBcOHAgkUDp/6gVA8KtuyZveyQG3LV5/9bSRniu1bD8phivVFGsQk7YeodmuzyN6uslxnWt6FamBLkgBwLRbhYmSuBQWEomLatHn49QdTHTK7+GTZNxBcbUYwWLzIysGS6zHIupjG6jaSM8Uru1BJLCiZCIQ+qm59lzi1W4zcgrRwblpe32UFEZtxXCF5W4h1Mui5rYuj+CkOJAeZQh1IAqHDpIkLBJvaAXArJHA5xTZZ1yM6y6AFi8b2NpLTBcbq4J7F0r5a7TRCf8K9jyxLjMoSw6K4Z7QPUWNazwuVrKBkAbMbMxmHR+ZjwjL79vGB+BZ4pz4sWcKQME1y0CErN7JCEoYP42ZnwkAAi3hGGsvbSM4Er+A4l8/Crf2+zZ6sX1ZsEsPcilBiYJzRfoKaMlEx+VkIcmx3Btl044hXbj/H/OOd0V0EUxmcm1A8gWDjj1gCxagysulki7E4/i8yMB63kZwJHvy+tgnt07ZVtR06CGHOZ3kIfcbC8+e007T26M5G2Y1pURjJrg7FAxk2FxN0Z3t5T5H27ufzzSkMSZjxBBlE9D6oKkdKlHADBgIYr9tIThf79/ZR9z59QKqRtjf0SXXAy6FfzK2opHutrU3089foA79AYFo8gQDmmH1CnFLQtaCO9+EJt3X2wpTThSaoanZSm//2Jr+hIiZsFo8Z6aYPFyd112Y4JO88yVTNRLUozE6QvV25FFW0WqJrLi1Ta1YLQ4vCyBdK0CFbwSk339Agn27uGKLiFL8cLgkzrjIQZP4IA8EqEivENpNhhx+Y7LM2j0K+SHt25aioJ9+hjyNRFCZ9izrlfExNTeyTCEZbS5pWL+E1a0EgXmSD2mMEoJAMasdl+Y0vHqXjx6fuZQL03ydLdBQJisdkteMjFJU4h2Uj/NY23reRnA4GBriYXu6rameMOM5k6aPK4YvCBIB1LSkOFxNw4eqjoUjCMRI4k806Ma4x4rd4JuwK9+ztomdfGNu/7p1QaLKEnC5Qm+hmdwRmgA8z0nsm6YLkSNi/u5n6jkaPjJQ+aqNNhiq7NXCmWPGoERx2yDPmHYkX02UXzya8oQKFgZiqAoLd6cEHJGwn+Pj7s58nyg1MzdkpJNWT2m2qN7t9U40sBiRnbb89MbeRnCoGBwv03W8Q5YeG++DbLLpxk1UP/TMfUyNPtmvPnx0vpmkdaVowl4/utSCSBRK4m4nE5mYlb+vtJXrgP6bmWR3nSAiwpMGAJJrNCkrgZONdiyb2NpJTxeMP91KOhwXt9G0WmcdO5MhcM8Z0Acsd0wvU3JKKF1NrtkBL5h2PlGSxgAC1iWgyYpzs6Yf3TeezO5anIJA0KR5NYK0ZyezMgh2EXdv7JvmCZC308/Buf2F2rK3SD/YJ6QwExfoHmCzkdPD26X3U2JQ4ZmppaaSrr5hO+L0uzERWVIAvKrPXIFkGYL7xBaKvfyNHeT57mFLQZBm3gkHyQpKdbIQ4FNLNE3wbyamgUCjSo/fnqNvuEGBbaDv6p30EfL/Crg/EPsRJ35lnW4jOu2g6ZZub4sWEvzV/zcVpWozXH8CA4jC44kGxmB9FJ2HmYxIfx0DGqefDj7TSkaOxTdU9LGkhqWoMSWWCLwrk/xwLG35rw9NIlp7h00jGEyf60rR7W2s0Rq7NSUKRhAIyzssLQWaSvLA+ez7RynV4TgHbsBEPHExdccFhKRjZKJMVhpEVlMlWaMGnJAfr7NvL34Qnn5x6M5MwJE1lKyz4fJEZn8zbSE4F2zYV6FC3thcNZoiMgoFsunjUrrotE/xiJJqz8DA0QVUxAT99VSPhiXRVRZMkgLkVj9i0sMwOXuQ6uvPOJj4gx1PFpgaQK3w7IUjeTGYKMxKYDgTukKyXC5K1gDO4px7BVenQ9KrikL6AnN3IK+bDhcrlayFFQIqqMGfONPr4+6PXV1hheArFo4Ujs5fqscJy9pdfJvqDP2iiI0emRkGFZPKHP2bwybRCkqeRvG/ybiM5GXqPDdDXbkvT0UPadm43vhC+X/IFYYCZLUmy+2OOoIYM0evfQjRv/ixZDmB3bVy4vkxLFw5JLfjCqCoUb2PYbjH4IAMs79jeQA/cn54yP7NIAjV5Jvvk8v/oYLsOz9oMeJjIpmdT1Hu0IdZu+yKIrkUl/XMFxv+F8CE+jYfcOWOI5iyIj+OIxdTRVqE1K8rDs44SVmhychdYc1YCVB7kSelLdzTS5s36PrI6R0iqJjAkGJwzZxck6/UYCTh4gM/g7muUE6HQFysY5ugXYD5QNMiqa4zZjS9clqaWNijDGLGYmpoa6NUXZKkly1WA/0Y660CWVWlBiV195jdZdPX1HU/TF7/QQidO1PfslEyqweSuhfVxG8loGBwo0f33NFF+iGcl1oX4A0NiOj7CFwXEpqQefWjhMWWbK7RoeQM1JB47OWIxARdvyNMF6yvVhWEcBcJIzl7i1yILOkS1P/UTnqG+iL9tj+x1CU2kJRTcvtH1dBvJSMBMdP+9Q7QHf8KEPqDt2v6gg3NssJnO5AsKsj++6lpcobmLqs/OOWRkdHQ003+7qUSzprOConAzTygWcLODmR8wGYQYW4bpnm+10jfvytX18ZMccLokAvV+1gbgARRPPZajTU+3hrYLsS+m1yLtL4KNCwHMm5uJLru2RC0teNFKHKMWE7BgfiP99LXFsD4rIBSEXEfS4gD5ogo25QEsY125HNE//0Mrbd2MdwP7gPqA5FA+Ig6aiKeRnC2Qy4P7GujJh1qpwIem1nbpCwoFzNlisxX7hFSHIrMSdI4Df9WFJZo+s3b/T1pMwJveMEQbztNX1WvBYPxjheRkHxNmJCWzQ+7eR3TLnxA9dH/5rJ+HOdaQZDIs8ZiR6vmCJIAcbtlYpnvv4mPTXqmFUCRSGKpDFgbOY2F9Fd0R+h4tzDIvPHtBnpadNxgZauCUimnxolb6pbc2UJs9MQdF4ihWSN7m6iMcV4GxXdrI+s5tRLf/VQPt2KatriP4Y6SJehrJ2eDg/jQ98G8NdOhAlN8w6zC32UWKxOzO5kmKTTmWQ3w2S7Th0gzNnjPy2yk57OTAb3YXnD9ESxaVoxnGCoMpFI2zCWkh2YwkcarLcm6ZvXuIPvtnKdq1QxeqA0gyGfitrd7P2oDDB8r0o7txgVJqQIoE0JoQmD3oLHjZgm02Ng5b+4wizV08GPJSC6dUTAAOxt/+tnw09WkRhKICTPb2BPkCElK9zMfgTz1O9JlPpmnLJtbrZJcnTyOp4wuSAHLVva9C3/9Wmvbs5HRyPq1gpFhEiAoDXBh0KyrYEuTjIOANmWsvylNb2DXVRooP2DCspwRcTb37nn76my900iB2nTbmWhyyJrNpoVhh+QKzokJbzY6G469fFy4i+sDHSnTV66Mn5k8WnvxxH82Zl5nwh0icDjB0OEZ6kHdtPTwjAVIQIgzPLEKJAguyK6pkwcGHH/7XX3GMd3EdLHNVjQIOP3VkMmm67g2ddNkllWjDAIoBTIvCc5Ghqi1GYCpbByHv413eV7/QQJs3pSb1sgFes1XPhYTT/wOvpOjhHyQKSYvAjoukOEBRSCwm2PnDF54si3Ww3LW0TOsvnnHSQgJ4kdNDe3uFbryxTPNxL7oWQ9h9MZfLBaaDmax+sxtH442LyB/btxJ94veI7v7mkDxZ5b8QB44CfvLwEH3ra3ys1B3ZrBCQQ5OtSMCh264tkNnNoDbhTO3T+KD7ijI1NmHgTo7TLibsetavb6B3vOPY8OzjCLq0B7ovJPVZvMVZh2IyE5L0pdta6Yu35ihX5z+9TCTwE8kPvp2jR3/YSsfx0knLmfpttwXyhWQx4GYDvO4Jhbfqwh6atwB/pHlqZXJax0xJ/PmnKnTPd1Jh9rFCCcXibIjhNgY9NJxVfNi3JtYxqGzH2yZv/kielq3IyK72PyOwy9+7O8+7tZbhn0jY7ndXIW9JUh8Eqwu/WwNst2by6vUVuvJn1XCKOKtiOnCgQLf8KdFzzzTKw6KkkAAunFBYOkMGncl3Eh+Qq75FRjDzR0dniX7tpgJdfV2FZs2q32OZ8QDuR9q8MU2P/LCRhgb4xMQKyPIzWkGZDTEJPwxWVJDBcBI0Z0GBrvpZos7pp3c55KyKCUs+/9xR+uP/1UFHDvOGbbcGZrKS6IzQGZO5k2b3BRVkMI6B3sw11LWwRJ/6XJlaWuv7us9Yoe/4AN315SZ53am/jaSKONZkm31q+aD4AvJ5xnKN2SF6zZv6aPmq6C9YTgdnVUwArnP8xwNp+utPl+hQN5e1KyApIq8zbHdmnbFOVpHGxEiXXbyU6C1vH6JLr2ikaTPK1NR08jONqQQ8B6C/L007thTpyYea6OjB4f4DkkMkArLLSyxXMNSwheLxpHGtHSW67PUNtHR1mbehGzsNnHUxGR56MEe3fIIPCntZwRoTu7dajfedinVS/Z78tw2xmI6XrSC68NIcXf/2VppxbryyhQZynMt/z9HOTa3yEC451tTiiRHHjlREgdQHIVlEUoSwwczryTYTveaNOVq+5szfMjFmxTQ4UKSvfTlPX//7VnkKip+RrAPSdv7wHauSoaruyRcT/w/2DO/t8NvZT73uML3x56ZN2d0fbvh//qkTtPnZ6bR3F2Z87acVksoAuBQDZHDEiEPtogzLRoAtKzLsrOMS0uoLc3TRa7NyU+SZYsyKyfDpTxbpO3dl+OyDFV9IRghSWTqlNkuI8dhM5GT48AFbkCEwTZtO9L6PcmLWDVJrW6bud384QzvRX6BXdjXTvf/CBeX+ZDtGHCt5MdnsSjXzA0G5xXm7MOhcO6vPL9JPvfHsczXmxdTb20//j2enb9+ZlqfeW6OlA45Cp4w0blTiGHxY8ixRfj2tbUQLl3bTytUdtIqn7KWr+mjxkvr5bQ1vDD3YfYIOvtJO+14Zou1bj1Kupys8RAKQfmnxiK5fHOuj2JkshyEPUL2usuUnGdfMe7TVG8oyK3V2nv3D2ca8mIB8vkJf+UKF/unL6arpGvCd8t+q2Gzj7TAyQRZR12XrAJN4Fmzd0HEc0NZepCXLMvTWd0S7Q1tmooEs42GkD9xLfKJS5FN8nr317AyI9dEIJtdXkMTBDh0+k0GQLd7bQRqLD+i4ffu8y8p00WtS1JARz1ljXIoJ6Onpoy/d3kLf+06GhvRbN2LC+MMXT8znk+NirGgAKySokGN2hizPNK8Lf8q8h1asbqA1a+dR5/QG6uBJC1P9WAL3tuMVEnjy/84dh2j39oI8HhkH1L6dgLVNCHqi/cEOPgoB4JbjZNF5HceZK88r0vorBsdkRjKMWzEZvnhbjr79jVY+NtCOeWJ/zQLzhJU4PRSRs3kfUHOgPLGvMUu0dDmOr4hmzMJFUTyEoZcam3PU3p6Ve5yzzY2U5QPShkya1xmtFJdC8HJkvI94cCBPAwMFefFfId9KxaFp8nYk7N7xLhK8QkIu5vIGrZ9+UH17Yl8acOi1ZE8JGwzgsW0k1osHTaw8P0eXv27s3w047sWE35KefmKI/vr/ZunIIZ4C0DEj9odEKY8VArjzA95uAwQbZHBg1G+92m05TPf461TcatGQKTAVWW6Qn23wpzzwpxpSvP5UtBzOKjhlZVCpzGJFfsGncoblRjnxQEbDNnU7vp2A2WMEO7ZXSzfZllUdsP5aDkAIMNny1NJWoktfP0SLlzdRU3bsT07GvZgMP/oB0e2fGaK+3ujv3QEkQTruZNNFBvcJFGFYtoGRZDody4w4aOqHDPgBEMK6uH0126PktyO2pAwOXWUItpzoapf1qE0IqlsuJhtpDBDarnH4CNtQDhG78cbmPL32jY20bDUs44MJKybsHp5/5ij94x3T6Pmno2tBIUFJMp8mDXJVkpSSAxQj2JBolfGRHADIMbsjIGkTgt0tH5MTBAeYnz3EZgQVXNsJgPv+xtqmfiHdbmx9TGEbYBwzd2GBD7b7aMny6dwObcg4YMKKCcCWDnYX6OtfyfCBebTbQN9gt5kAMLvJIUHQNS6WMPCRSJcBoIeBSazfYpPtMNnsgcwPOwL4Q2IgQ2U5tBlxntRvOhCW5Y/QN5XDckx+1vQxgMQktrt6Q4U2XFGkjmmN0TLjiAktJo97vtVD//qP0+nQQVa4BZIIlwQkDLBkWpItzkhiNDbpg9sGO+mLDYTy4IPJ6UKw6SCaLtt1OjgQ7GDgnmCz9Xg5ScllVYdgbYaezI/xjunR/UgXXoa/oJ0YTFoxAVs2Fekbf5+m555KRxftNLGAJcqS5ikkEG4sA642s8u3F3Y/cODejkD+8AMSi/Xklqm1TU+ynhH8oU/m9+saSQZBHmG7MJqME4mFyyt03qvLNH/xGF/zOAkmtZhwHJXrT9N9PzhGX/vbGVTCRTxOmEzlmgckyA+2LzCRoULGcipXkTiq15OMkzDmti7blsloW1gHI7YskxUwEgpZlmf4uGBDrLMLJewAq8M2GPjDf1EAaxP0i64+Tusu6OSztQrbZIkJw6QWkwEPT33kwTzd+80m2r83I7+cWxoskTYIvmi8DCSTLAlWkuVH4hCZJwkI60z6mLBslb1GrBDsWBcEhm0fum+LxQOme5/Y0T/oKuNKf+fMMq199RAtX9NEGXns38SjLorJ0N+fo41PN9N3/7XIu8DowQixBGsCZVDA1R4jZ4eSXB6658llapL5a2w3uS6RoULGoEMGYVnEJGXwkWgUP5zYFp5GsuGyBpqzYIha8ZjkSURdFROA1uzbm6MHf5Cl+/6tITz8HAjJTA6qyhDAfcFYPGC6yDqggMR4O2xuwMO6nM2WkeVq2GoSYnT9+PBtCG0Fwc2+KjscDPC2Dvw0VKTl64do9lw87USdk4gUH7dU6qEhtdC9v0D/8MUG2vxiigZO2BXo6uTaoIjKH6Eg5COuh+XAE7YRKRnnBhqwAoEP8O3xPpFrxajPn/YHuyMYcSyE5yNd/oaRn0YyWUgVCoVKBn//W6fI5fL00sYMvfBsiTn+FDobe9N1SDRDBlf1mjJiMGhQ1ReWtUE0gpE/bGaoJYMLAx+FANuubId5VQyTrFN9Yf1MGJ5ps3gGml+mJSuyNG8J/lR7cndptZDq6+urtLfX/4sG8afpx3srtH1zA91x6/BLZAAZZC0GAL+nYd9tg29kgyOiyrGisIJS2ZavWhf7gBCr9rCuUUhidJmqwoaMNqgNAo6l8VTb+UvK8vi/jDwCuT6ROnCguzJv3lxVpwb27T1CT/64Qpufny0PaxjE2R+Sz5Bvvg6SL5SqgYORUWvGgBArnoQNAK+1Trh9QcQKj8mWQcELYANzcfgrnJlz+OB6yWFas6GRZs2aFjnrHKkdO3ZWurrmUzOeLzcF8eSjZXr8kR46uL+DjhyMfrUPgw7OTAZQZRvUGMHOMcK93REQ1gOCaHKS4MP6atmTNhDbcY9R54witc/oo3UXTKNlq9NyN8NUQmr37j0V3GrR1dXFHUO3phZw9of7igYHMtTfV6FnnzpMu7fOou1bM1TgXWHN2UMJkMLjGJnFGKEIIKsPED90phCrusXHihbrkaDIHmzqxweuD82ZX6DZC4/K+9paWtNcVAW2N0nc1ALR/wdbg8r4UJr1ugAAAABJRU5ErkJggg==;direction=south;" vertex="1" parent="1">
          <mxGeometry x="2950.0049999999997" y="-380.005" width="325" height="327.23" as="geometry" />
        </mxCell>
        <mxCell id="HHI03vcwuIw9m70cMw0Q-135" value="" style="shape=image;verticalLabelPosition=bottom;labelBackgroundColor=default;verticalAlign=top;aspect=fixed;imageAspect=0;image=data:image/png,iVBORw0KGgoAAAANSUhEUgAAAYcAAAEHCAYAAABFroqmAAAAAXNSR0IArs4c6QAAAARnQU1BAACxjwv8YQUAAAAJcEhZcwAADsMAAA7DAcdvqGQAADj0SURBVHhe7Z0HmFxV+YcXhL+CIkgJHSS0CAklIr0IBJAm8NCbgIgYifReFFAUQUWQjoAUpQWlhlBCDUkgJCQkQAiQQOggHSzY/vw+edfLzOxmyr0z98783uf5njO72ezO3Hvu+er5ziz/+ZguY4wxJsGsn4zGGGNMN1YOxhhjyrByMMYYU4aVgzHGmDKsHIwxxpRh5WCMMaYMKwdjjDFlWDkYY4wpw8rBGGNMGVYOxhhjyrByMMYYU4aVgzHGmDKsHIwxxpRh5WCMMaYMKwdjjDFlWDkYY4wpw8rBGGNMGVYOxhhjyrByMMYYU4aVgzHGmDKsHIwxxpRh5WCMMaYMKwdjjDFlWDkYY4wpw8rBGGNMGVYOxhhjyrByMMYYU4aVgzHGmDKsHIwxxpRh5WCMMaYMKwdjjDFlzPKfj/nktSkg//73v2P8xz/+EaNu5yyzzBKvZ5999hhnndU2gDGmNqwcCs4///nPGD/88MMYdTtRBnPOOWeMs802W4zGGFMtVg4F5a9//WuM48aNi3H48OExypP4v//7v3i96aabxrjqqqvGOMccc8RojDEzw8qhYOApjB07NsbTTz89xhtvvDFGKQfCSdtuu22MgwcPjnGDDTaI0WEmY8zM8CpRMJRbkEyZMiVk1KhRIVIKyfyDZMyYMSETJ04M+de//hVijDEzw8qhYLz55pshjz32WMgHH3wQUon33nsv5PHHHw954403QowxZmZYORSMt956K2TSpEkhSkSTjC7l/fffD3niiSdCrByMMdVi5VAgFCqaNm1ayIsvvhjSG0onSV577bWQyZMnh+j3GGNMb1g5FAgt6s8//3zIyy+/HNIbKIfXX389BA+CpLYxxvSElUOB+POf/9z11FNPhfz9738PqYaPPvooBM9BOQtjjOkNK4cCoVzDs88+G8KCXw1UL1Hh9Pbbb3/yL8YYUxkrhwKgMJBEC/sLL7wQUguEl6h00u+pRbkYYzoPK4cC8Oqrr4bcdttt3QnpWkA5UOk0dOjQrldeeSXEGGMqYeVQAFjUpRRqyTWUgpJQUlqhJYeXjDE9YeWQYwgnTZgwISQtS197Hcg/qEcTfZqMMQasHHIM7S6oUFK1UhrIY5g+fXpII56IMaZ9sXLIMVIGEkpQ01rEpXBoqcF+CUJOxhgjrBxyzLvvvhtCEjqtnc1SDvxOt9QwxlTCyiGHsC8B6x4Pgq6rafDSSy+FOPdgjKmElUMOIRFNXuCdd94JSTPsg8dAOw7nHowxSawccgiegg70kaAs0gTvZOrUqSFsrnPuwRgjfBJcjvjb3/4W40033RTjkCFDYswyJ7DYYovFeNBBB8V44IEHxshRo8aYzsSeQ46gpQWhHja/ZQktNejZlIWXYowpHlYOOUEOHGWl48ePD0ke/ZkVhJeeeeaZkGR4yRjTuVg55IhkmwyJFuisF2k22tFryaWtxhhh5ZATVEb65JNPhlBm2gxQQISXxo0bF+KOrcZ0NlYOOUGLMUqBhbqZcN50MvdgjOlcrBxaDJa7zoPmGE/yAKXMP//8XXPNNVfILLPMEpIW/M2JEyeG6MxpY0znYuWQE5RrwHMgD1CKlMLnPve5kLShSmnGjBkh77333if/YozpRKwcWgw7k2WtU8IKeAdzzDFHSP/+/buWXHLJEO1DSHMvQmnu4dFHH3VLDWM6GCuHFsFiTIuMO+64o7uUFVAA/fr1C9lhhx26Bg0aFKLNa2xgSwPeD7mH6667ruu5554L4d+MMZ2DlUOLoXxVZaSl4aTPfOYzIco1SPr27du1xBJLhMw999whWaFS2mRPJysHYzoLK4cWwW7oMWPGhOiM6FIIJ62++uohffr06Vp66aVDll122ZC0E9OghPSkSZNC/vKXv4QYYzoHK4cWQQKY0E2lBPDss88eQp7hC1/4QrcXscACC4RkhUJLhLlQZMaYzsHKockQoqEyCes8ufjOOeecIYsvvngIXoKUA0pBISbJwgsvHJK2B6G2Hbw3ldlKHF4ypnOwcmgyLLCc8kbbiuSmMzyGeeaZJwSFoOS0FIRkvvnmC/niF78YkrZy0HvEc+C9GmM6ByuHJqO23JJHHnkkpNIpbygFla5KCCVJYZCHwKv4yle+EkLyOk1owseJdLx3Y0z7Y+XQZNiJTKjmww8/DEmGa1AACy20UMjnP//5kFlnnbXbq6BaSUlqSdqeg6BaSclpCe/dGNP+WDk0CcJJhGoeeuihEBLTgn0NKIUBAwaE8H0t/lIQErwJfoa2Gml6D2zQmzx5cggKzRjT/vgkuCYh70BcddVVMR522GExJquUtH9BaLObOOqoo2KkKinpGbBzWb2YxJFHHhmjQlVpt77gfR1++OExDh48OMbZZpstRmNM+2HPoUkQktF+BskHH3wQkoQqpXnnnTekt2Qz3gT5iWReIm0IL+H1NOMQImNMa7FyaAJyzkjuPvzwwyGEmUCL/5e//OWQFVZYIYT8QiVQGIST1lprrRDlISopk0YgEU14iQorY0z7YuXQJBTqkbC/oVQ5iFIvgPxCJVAAn/3sZ0PotaTXaUNehFPiKnk9xpj2wsqhCaj1xGOPPRaCB1GKKo6WWWaZkEUXXTSkNw+gVDmwUU4b4whHpQWKDMU2evToEFcuGdO+WDk0AS2iWN14EKUo14DnQKioGtjf8KUvfSlE/598RFqgHOjYmsw9GGPaEyuHDGFR1RkNEyZMCCExXQpWv4Rd0NVQqhxWXHHFrgUXXDAkbcg9PPjggyGvv/76J/9ijGk3rByagDwFPIeeKn20sLOxrRbLn/ASJ8SppQZVT2lD7oHwkju1GtO+WDlkCJvIxo8f331wP7Cos/tZFj9J5d4S0aXwe/Ag1EqDMx/SPlIUxcZmOH0ud2w1pj2xcsgQDu9R+KW0eR2LOuWqsvgJJ/FvtYBC0f4IchYojLQgTEa1kj5X6QFFxpj2wMohA1hEOQJUuQa8CEApLLfcciGqUiIh3QiLLLJI9+/Ua0na4EGMGDGie1OfMaa9sHLIABTBLbfcEqLD+kstbMJJW221VYiUQxphIJWwcnLcaqutFlKPJ9IbKL9Ro0Z1jRw5MsSnxRnTXlg5ZACKgJ3ElTaMEfKhyZ66sKaxiCu0RGI7DU+kN/S5aDlOstoY0x5YOaQIFvWMGTNClLCVJMNJeAyUrXIeQ725hlL0/1E4hJeq2VRXDyrJlfcgUbmuhGtgjCk2Vg4pwsLIGQ1vvvlmSDKcpE6mEpLGWPc99VCqB86DwIPIqrRVeQclpSUkqY0x7YGVQ4qojbYEa5pkrRZRoOPqV7/61RAO60lTOeCdLLXUUiErrbRSSC0lstUyderUEOVVJM49GNMeWDmkCLkGNryhLJJhFja4oSRIQqe5aOOdUBqLd5J2WEnQDuStt94K4RoYY4qNlUMKEE5i5/D9998fkkzSlnZPxXPg+2ku2ngItNEYOHBgCA350tz7QGUW+RVyD8aYYmPlkAIoB0IqxOHZDyCoTiL+j+fA99MEDwGvhL/F3oo0FRGewttvvx1CvsUYU2ysHFIApTB27NgQ2nInlQNWPNVJHOyTRR4A8BRo592/f/+QLJLTTz/9dAj5lp4aDBpjisFnTvyYT16bOpDH8NRTT4XVfM4558RrneucXBhlqa+zzjqReN5+++27llxyyVikyTWkacknwSuRt6CqJSkqKSbt2Naxn2mibq14DNOmTetad911IxehhoLGmOJhzyEF8BzYEFYJKogoLyX0kyX8DcJJCyywQIhepw3hJc6bJhlvjCkmVg4NImt53LhxIaWdV2HhhRfu6tevXwgdU5uhHIDcgzq/ShRiQkmlBSE0EtL33ntviENLxhQTK4cGUTUSHVd7SsZqYaaslA1qzYTwEhvv5MHgTaQNXhQbAMm5GGOKhZVDnVChpPj6Qw89FNJTElZx/uWXXz6EJHEzQTmoLbhEZa3yZiRpg3K4++67Q9RbyhhTPKwcGkQLIXF2QiulyGMg58AGtWZCCIsNeAonsb8ibcg94Dkk+0oZY4qDlUOdkHAdPXp015NPPhkClKfiJayyyipRoSTJsnS1J1AOKCa9Hxr/pR3mKs096PqwUc4YUxysHOqERbC3XAOLseL8JIVZqFsBf1vvB6VAyCktCLeptFXSm0dljMkvVg41wuL3zDPPhGjTGwshEL5ZYYUVQlSlxC7lPLD44ot3Vy7ptSRtaB0ybNiwrpdffjnEGFMcrBxqhBDJTTfdFKINZaWWMS0ytt5665Cll146sxh/PSgHssYaa4RkfVqclOd9990XQrLaGJN/rBxqBEVAF9JKG73IK2h3sEReRNqLbyPofZAgR7JC14fOrSSrjTH5x8qhSlAK06dPDxkzZkxIMpzEXgbKVgcMGBCipHTelAOnwxFeImGe9vv86KOPuu65554QNgniVRhj8ouVQ42QX3j//fdDkuEkkrske7HK00z4pgVhLkJgWYW9pAQo9S3NzRhj8ouVQ5VQusrmLs5uSCoHNpmttdZaIZzlnJdcQxIUFx1bOV8iCw9HjQglbBbsqbrLFA8KD+gSoL0tGAP8mykmVg5VQliJh0DhEkkyPJIsXZXQoiLtxTYN8HIosUVZZAGJaM6Z5lqa4kOIkHwSCkHCv5liMsvHN893rxdYxGT5iu985zsxPvLIIzHqgdDiKtZbb70YTzjhhBhXX331GPPoOXDbKTG97bbbYjzqqKNilAJMK3nMpr8tttgixpNPPjnGVVddNUZTHHgeaIsycuTIGIcPHx6jNj4qdyW43xtttFGM8qo7nUoKE+Mxb0akPYcqoYQVzyF5k6lOIm5PYprv5xHCR+zJ4D3j/aQ5UfEU8By4lqZ4MO/pI8YJgBxwpYIDXvNvDi8VE3sOM0FJZ/G73/0uxiOPPDLGZGJV+xjEzjvvHCPWtxZbkVcFIRQaE7T/4L2rEktKME10Ep445JBDYjz00ENjzKI7rEkfeZLatyLOPffcGHVWuuAcE80nGRtCrenFfvvtF+Pee+8dYzsfAMVyitdNbu21116L8cUXX4wjhJNoo6zQyZACw7LVWDn0gi6NNrmJww47LEaVZCaRhf3Nb34zXn//+9+PcdCgQTHmWSmU8sYbb8SojX3ilFNOiZLdNKFqizDD2WefHeNyyy0Xo8k3WthQ7LfffnuM8gRFpWWE+61eXuLMM8+MUacitgMoABSjFKfOMBHPPfdcjErMC+3zEVIWpV6zDuAS6t4stt12264NN9wwXit32SocVpoJhEAoXa0E4STKQgnZFAnCSTQLzKL8lvASCWqS+qYYKIzEaYfcQymFnuxLLZ4SNkG2aykzYTN9RqoYpRwk7IuaMWNGiHI18hySIqUr4f/q9/CstBJ7Dr0gZXDJJZfE6x/+8IcxYgGA+hLhNu+7774xLrLIIjEWCawZJRTFEUcc0fXAAw/Ea8WN04TwEiG6IUOGdIciTP4gX3DNNdd0DR48OF73ZChVgvDqb37zmxi/9a1vFcqrBgwZPGqd/igefPDBGFWmrX5rgucJ74JltpIy5VpQ2KKNszwbar8jsjDWZoY9h15IWrl4EKUoXk45KMndIqIJKmEDnz6PJmQWkxKPgQS17ZN8w4Km54D9PrWAZd3TYVhFgevAWsB+DjwAeVREGPCS+MxcAykLvAKEf2P/j/aKJJ8NSSuw51ABLonKVX/0ox/Fa0r1Si+X4oN4DptsskmMRUywapIKrKPzzjuv67LLLovXEydOjDEtuD6U+urvkNQ3+UM9xIQ8vKuvvjpe17JskIDGC99mm20KE3bleVDYh2T89ddfHyPl7OTrpAy0yDeKQtRaV8RZZ50VY58+fWJsJvYcekETY2axVVnY5BywvosIeRK8BXkP5CHSBosJ6yiNB8pkB/dLVm1Pz0FvlM6tIsHnlfWPV0DehdMO057H+lv8TvI2rcDKoQIoBJXpPfbYYyGAAphnnnlC1O5aVq+kiJMfeIBRCF/72te6W2ukvXuaCc+ZGLrOPYXtTOtRElVSrwepHJOEc8s1z/IKilDegOSWW24JOe644yKKIKHpJiEjjMO0nn39/SlTpoTwjNSjlBvFyqEC3AgpiJ4WLRSBPAeFSdqlVh8lkcyhZOUR8XD15pmZ1kNMvF7ljcGBFAEMGCx4vAUJeRfmLM9MmihqkZRWYOWQgJuN1h41alRZAg5FsPLKK4eo3fX8888f0k4stdRS3Z+Rdt5pw6Lzpz/9qXtXrckPLJCUYyqEUg941oqbtyJ2Xg0swuPHjw/BSzj++ONDHn744U9+8r/7EiQ8H3pWJPIe0oLoRSvb3DshnQAl8JOf/CTG888/vzsZBwoliRNPPDHG7bbbrnsnaDsh15a+ORdddFGMv//972NMe8ooZHXGGWfE69122y3GrJoAmuqhXPX000+P8cc//nGMtXLsscfGeMwxx8RIaWurYR4rfESi/dprr42RULK8BqHdy/SK2mmnnWJk8xrdE7RrnJ9vFH73aaedFqPKf0Uzc5r2HBJoskjQ2gp5lIILSclnUdzkWtFnJKyEZIWuM6V/3APTergXjYY28LazCk82irwjNuolT3hMho70nNNtGQ+IiAGbX7OgldfMnsPHcAmwFui8qtYZVCBg7QwcODDGX/7ylzGqL0pWE6PVvPrqqzFiTf3qV7+KkY1yaSFFtPnmm8frn/70pzGutNJKMaYdyzXVw2YvWsco/FcL3Lsrr7wyRizuVhtU5E4mT54cozziP/7xj/GaLsV4riq7FXrvdBHGqkdhXnDBBTGqL1klg7IeaKVxxRVXxKizVpqNPYcEycSbJKk30eBYQVjTebSE0oIEIp+Vr9NG1xlLjXtgWg+VOxQO1AvPjJRFHpS95psEj0geA4ln5h/Pu4xCybzzztvtOfAc8Hn42eR60SgUvHDtWoE9h48hTkjc+xe/+EWMyVYZbNLaZ599Ytx///1j1KRpVwWBZTR69OgYlYMRxGfThIQ+uZxvf/vbMSp0Z1oDTSYPOOCAGOncWy1sfrvzzjtjbIX1m4QcCm1hLr300hi1wZW5TmSADst4tCrIIOGMgkNhsllUjTfT8Bz0d3bZZZd4/etf/zpGcp3NxJ7Dx2BJEPeuZL1iHSRrmiV5sISygs+M9YIHkQVYp1hz3BPTOqhWqvQ8VAPzJyuPs1bwhHjO2dSm/CL/xhynASWeQyXPh69Lv98o+l28D9aZVtDRnoMmg5g0aVKMVAQ8/vjjMerBIJ/AKW+cYkYb4qwWyzyhTpHi1ltvjfHoo4+OUQ9WPYtGJXi4aH9O7oFe96Z5aN4LqtTUhFFUW4nDvcQKv/nmm2PUBrhWQONI2l5ceOGFMZJj1DP+jW98I17vvvvuMa699toxzj333DFKyZXC0skpinvuuWdZdWMtcN20AZXTJKmQqvT3s8aew8dgIWFRJK1W3TAJGhyNzvc7gdLPjkWYJlxzPAfuiWkd3AOs6lph3mQxX2qB98/zTX6Buab3pk2fEjwFvq7mvfM501oP5GXx91u5znS050BO4be//W2MWMTJuCEH0RCD5GeIhXeCgtADJPCokqfFEcdNC9p5c52Jd7cqKdeJsN8H65UqtWqXChZTWdLinHPOibGZe1dQZmr7Qa6M/QicysaGPHkLVCiy2ZP5Vs3zTZtuVXVxWFYt8DfYL3X44Yd37bXXXvHah/20iGqsVSwH4u5YCZ0E14DYMZKFYizNPZjmw3PB88DXtZKcJ60yoqQk2LdES2w+F/Nahp4Ul4TnvJb3zJqAQqkXfo88Bt5HK+lYz0Efm8M6DjzwwBipygFNDlrn8jMbbLBBjK2a7K2k9ChR7ZhNe8+DHlbBUascEOOjRJuH2lOLH/zgBzHecMMNMVYLxhNVf2r1LaQosgav/9FHH41RLa/VOE/g5bKHhs+nA3Xmm2++eM38qwX2TejoVPIzankhSo3NSqi5pZDHILbffvuoghStXGc6VjloohBOUu8UIesiifql4G5yyhthj05E8VpBD6RDDz20+xSstE+LY6MRD9tBBx3UEcn/PMA9ZfFkoa0WSj5J1H7961+PMcuFjlDYiBEjYiTpfPfdd3cv0Gp1I7773e/GSGmtcgxpvDflMTAw//CHP8RIObDCW0JewTLLLBOvSYKTdO7fv3+MqpLKg/HZsWEl6URK9HAzS0mGUnD5OhlNWEnymvC9tOGeEGYyzYMELlIvzXxm9DxLmC8kn5Nzh4IK2l0kQ0hpoGeC303JO6ErSD4/tOAhpMX7y+J5qoeO8xz4uAopccrbsGHDYixlxx137PYcNtpooxh1UzsVrh1utBKNbACiHDgtuM5Yd2pxwEZEkw3cX50CKE466aQYdQRmtWghpGQVDySLjr7w7rvvxoiXouZ3gi6q2ohHeSobK7Hcs/BEUUaUtJL85mt5KYSMCGWRqEeR5kU5dKznIItoZpt7sHwkumF5uWmtBmtIC3ipZZQWWqgkWIKNWLCmNvDa6vUceFaymhtJSucJrW94tvU+sOIRnuks4HdTiopXgEg5lHoX/J+8rTEd5zmQVzj77LO72+HSp56JzLZ/5SKUHBKLL754jOZ/6Axdko4k/VQNkiZYVT//+c+78z566Ez6UB02ePDgGGmYV0vVmBY7cgxsOuMepo0O3hk6dGi8Zh4+99xzMeKtyFugpHaxxRaLMWuFJVhWKy2vKIA8KYJKdKzngHUkKQUNLm3eDOunqCSvD9csbbBeK90nkw1ccy1s9diOWc8J0HvDQ6D0mWea90BeQcL3mgGfnb+ZlKyvS1p0jOfAx1QbbqEqGFUyCP5NVo/YcMMNY9QhJWuuuWa81uQyn0ZeQukGI9ogpwUP0RprrNF1+eWXx2tK/0y6yBIXlG+TM6gFxdEp+9a5y0JGRJpQaqv2HipVFZSp6lAecfDBB8eozas0dSzCgpwnOs4kTlqiUgqVdGMRtXwraOZ1knXY0/0y6cD15RmpF+ZEVvA+NSfINfA95iEVQZKs52a70jGeAzX6NHRTpU1pkyyabJ166qkxanPMoosuGq9NOZo61HVTV451n/a0Up4BK3GPPfaI0e2804V7yfWdNm1ajLWgijKqnTbZZJMYGwVFRUUcv197CWgGSINGjvjdeOONY0xrD0Mn0vbKgY9HuIOkpg4RJ46tTSeCsklOedNpTE5+9g6hiNLT4tghmiabbbZZjNyfFVdcMUbTOFqA2Y1OCWs9GxvXWmutrmuuuSZeN1rEwca2u+66K8ZLLrkkRs6H0HtmTrBZktPabDg0TseElaQkJL25zLifWbvF7QTXrFSygHvHvTTpksZ1zWIOcN9JPvO14FklhORnNz3a3nOgtJITlShfTZ7yxqYYttWzWUabVbJa6NoFvK/S8BJlkGlOL8J+nKmBF5hVqWQnob0Bu+22W7xmUyih2GqgYEMnmDEHGvG61ceLcyDo6or3T6m5wl9sUuUZloIw6dBxngNSibQtnk6Ca5flNazmHpr6SeO6pnnveT94CqXvDy9BkuW861Ta1nPgY5HE2nvvvWPk9CdZvFicdFo95ZRTYiS5lcX2+nbl1VdfjRGrk/MYFLdWKCBNNt100xhJPurkLNMYstRXW221eE2pKKGbaqAlhM76IP5fy2LNHGET21VXXdXt7VM4svzyy8eIZ7/rrrt6c2qGdJzn0Bu2PhqnGdewmntpig33uNJ9Zo75Wc2WtvUc2BRDW26sGWLkQtVIQhaIOPLII2PEY/Dkqx4sP06Low36/fff/6n8Thrg8XG/8FLs6dWPNofigdXj6eFtq43F5ptvHq+rgSaOI0eOjJHGeTfeeGO3YsBj4LwDWm+TezDZ0PaeQ0/WRxJbIenTjGtazb01+YZ7WCpJmEvNmFPmf7Sl56CPpH0MggNLKp3ytsMOO8RrttqrRlt4AtYP+x6GDx8eozyItE+L4/6st956MWJtet9D7eBJa/Misfx62GqrrWI888wzu/r27Ruve0K5DNqAX3zxxTGqJbuYOnVqjEItUwQbV/nae4+aQ1sqh+QpbxySXtotVDs599tvv3hNORz91U39ECZ46aWXYjzkkEO6QwalO9IbhSSoDnYXCjs4tFQbdClWiI6S0Xr43ve+F6M2QZZuQGOJeeedd2LUfFDCWbChjQ13nLSoMxj233//eE2/pLR7NJneacuwkiYj0hO4qPYSsiF5fbO+zslSR1MfWV47nkXuk7wVXgNzRAqAbr9ZzxvTO23lOfBRdM4AHoMO/a6ENuvgMdB/3pZJ43AP8CAuuOCC7rYHlBGnBfeLlgnqteOOrbVBCbKSvGPGjInXtYCXQCdWlRdzX/AGnnjiiRh5FrW5beLEifEaKCen5FznKvfp0ydem9bQlp4DVknSMgGsEVsmzaEZ11kKSVLpfpve4dqh1OsleQ8QVT1J6JzK1/o55gSeAu0v+NrPZetpK8+BvIIaiOnkMEGcU4uUIK+QPOXNnVfTh2klC5F7ceutt8ZImXFa6MhF8bOf/ay7BYqTltVB4YYa2FFMUAtzzTVXjLL0hfIEnBynMmZBGwzKnLXw0+ySRPZee+0VI+enuCVK62krzwGLRTFNLU6V9J6UBIL1YrKjmdcbq7SN7J3M4Xo1es30zEkUTkTwGHguQXMAD6EVp7SZ6mgrz2HcuHExasPbPffcE6+BKhZ6zGubP6WrbtaVHWreRqkpp8XR0iQtUDgDBw7sLolk45SpDCWs1113XYxqulfPUkDDPZ2bIPScUaZa+vtY/OeZZ56uQYMGxWtyg8stt1yMrjbLD22lqolpJq2UUoht2kppHliJWVuHeI29eY7m05Ra9fXC9e7tmuM5ag7wHPI9kz8+c+LHfPK6sOhQECkFnWc8ZcqUrltuuaW7WobJp9iorBxVVciqXH311aMFtJVEtqAY1CDtlVde6VpkkUWiaknXPe3F+80334ya+Geeeaarf//+EfvmXHDzabS/Qc+MPIfXXnutey9KraBcCCXp9/Z0X/UMyjMYMGBAtNvWc6h5ISWh96LnmN+Fktf3GRH9DAaASP49K5r0KHRYibdeyylvnFTWr18/Jy2bhBZtwQlhZ5xxRoxaxNOGkkjuM2WuXjQ+DZsUBw8eHCNJ4yyREhBSEoSRSGijxCkuUIks3yN0xfO60EILxaiyZX6PjA7B75NBYhqj0GazlIOkp8SXwHNw4qt1cA/wIpAsSFqcEuaI+TQ8K5WemazR/Si9TzzDiLw+BK8EUR5LIk8D4Xv8DL8HT6PZn7EdKLTnQOkqViJnC7/77rsxCk6IYns/m2x8ylvzwIsbNWpUjKWnxaUJniLRUlowYJGa/8KGN0pIkz2N8grPK0lreRA834oECLXFEYsttliMClvRfoMydjwR0zuFNqGxCLAwklZiqbWK58D3TfPBa8syGckcwHK01VgZLPd6rw/3Tgu1RGEgROEficJCEn6GZ1DPI3OhkTmg9819xnNQzkPywQcfdAvfY53gMyfXC1NOIT0H3jK5hj333DNGvtakp7SOzp3aICU4wwHrwzQP4twqGBDHHXdcjNqoiHeRFmzKYgOeEtTmf17cFVdcEeOQIUNiLG1MOTMWWGCBGCkNJ/YvtCALNjvytRLfQoUJ5KHw8rVoi7TmAd6BNriSh9pyyy1jVMmzWHjhhWOUQkvbSGkHCuk5oPGxBIhbJsEySVorWcW5TXVwT/Ackh5E2mBRMkfMf+HZ4Znh61rhudJOZonCdgjfk4HWk/CzeBml3oXmBfOlEe9CygavQodOSWSMSKQQJY1ch3amkJ5D6SlvnAiWVBA+5S1/aLEWNF3Dc1AuAusyLWjnfeyxx8aocz3sLXZ1X+eTTjopRp3cVgs8NzvttFOMeGZLLLFEjIIwFc8jyhnPYfr06d3N+KhY49xqWnjIo6DFOy1wtMCLer0LjEPa5ey4444x7rzzzlFeK6iIMgX1HDQ5khZBJbBKsUgasT5MuuDFYTVmcV+IK+M5pBWuKDpcFzyHeuG5wrqvBM8cwn3X/8NzUOmpRLumJTr6E+F7/GzS05TUC+sHuQgpIhmcEv7NFNBz0MQeO3ZsvOaUN74GTSCa6nEQDOfjmtbzxhtvxEgLZzVBnDFjRrxOazqyeKy//voxam/FKqusEq8bWViKjjaJCh3CJDixr1q4dmrFLqh20oKfBigseTjTpk2L18yTESNGxMhn0M+ojFXgldYyf/AktEeC3Ak5GNqvKB8hOnHOFE45SLtXc8obZzXQpZMwg2k9eHscH3rQQQd1l1Ymy5DTgPJFGQkYCmktZEVk2LBhMRJmpVNqtXDt6F3WjKN1seRRBC+//HKM6vpKvy76qvUUSegNvXd5JmLDDTeMkdJ3ktnKk3QahQsrybIgnCS9Vkm3aQIjvbm9pjXoYZQQZlC5I6/ThjCK5otDBv9L1Nd7LbhPWd2v3mDeEF7Sgl4aguK552erhbWEtYUwU3Kt6TQK4znwNnXKm8IQ4o477oixFJ/ylm+0WAsswfPOO6/bAqzVkp0Z3He1T2HTXSeeFsfzQwKZRDQlpdWga8nmMjY00raiFWgn9AsvvBCv77333hgvv/zyGPFECTfVCh7RwQcfHKNKozvNeyiMSa3JLdGE6Kk8ES9BlgMlcSa/YN3Jc+B+1WrxVYsWiaQVyGLZKfCZ8RzwqGpB94X7lAePXO8n6UVI1ExTQjltvUYha4zyGhKtO51GYbqyqqpAIaXrr7++a+jQoXH2rR50wYKijTmaICqzW3fddSPP4M6r+YP7pQeXh1uljbpfykNo8anX4iuFRVEhAm3U0u9feeWVI6Siv9spoBDkoalEVM0ptfjVoiBkdKmb8fzzzx8bT1VppnvVKjR/CCcpz6gWGksttVTXOuusE/d3xRVXDM+i1g1+Qhv1JDoHe8KECfF7JbpenbKeFOZTYvFIIfRk9SS362vi1Gs1mOaiBYZYMcoibaQg2PRUb7y9yPDMUMKK0qwFKXSeMRR8XuD98P7wIBQKasTLoZGfvAeuXadQGM9BsWhpcVUqqZQt6ebh5spiUDOubbfdNkrR5EXYa8gvPNBqlvfcc891LbjgglG+qLr3es4z7g0pA+U41GBOZYt62JXI7BTkLeiZueiii2KXsK53JQOrN3SfVCKuthOq4pHxlRcFoTVAog1uEnkRa6yxRnxmrR0qSZVhWev7VcsXiQxT5a20IY/WIe1O7ldOLBysvqRSABYZ4o6aJHzP5B/dJzbEYfllgeaOpBNzD3jejXhNMrSyvD9pggeK9yBpZE3QfCH/0CnzJvfKgcTQnXfeGVKpmoWJsPHGG4csueSSDisVCFl12qQoUZxYkjayknUCneThhx8OYW51AvIUJDrfmTOea0Wegw5PkjQSqskSFICqqCT77LNP13bbbRfSiGLTfNGBSBIUbbuTe+XAjWCre9IVZoKWWp1WCsWDsAD3EIWfJlh8WICdFEPGayL3UA96rsgNFQW9Z/IPzK160DVjDeqUeZPbnINuhh5k7XxUw65zzz03LB816MKlU5WClMLaa68dh3qogkLxUMUc015YTLbIe1C1kvJKsviefvrp+DrN3AMhFRkbTz31VHgq+nt9+vSJf6835JB39JmvvfbaiJ3ffffd3WG1asEal0enncPadV6Umn/NK0US1DpFFVpaG1TBJKVRi5LUnFHOSk0DBw0aFDv5VbXVzuTWc9CNkNx1110huimSZLyU3ZEbbbRRiJLRkiJZNua/KGQhUTddiXru03c/bVSaKJHhIWn38JKsXPUfk/Bc1QJenU5Uo3S0SGjjnkTnOUhkdEhqQYpE/b8kKruW4Im2K7lVDoST2Maum4OmJ5yEi8uGF75vigfWKfeU4gJZeGmHCfEgCC8x19oVPTeNJOF5rhSS4T4VCd4z6wTKrlZYg+pRsEUkdyspk1eun0QtMiTE+wQLhywZiba6S5JVCaZYoAQUApCsttpqIXiHaSoIhZIkatwmUSM3mrm1IzKusHbrUYS01VZ5aL0Layshf6Xws0RnTyTPn6gWFKzOI5FgZLQruVMOaOdk6aokafEwQVESWJtFtGrMp+FBpsgAyeK+YnAw12q1qIuClEEjSdTkPSkyrBNIvbS7pwm5Uw64bKNHjw7RSVGSpJbWZimJkkwStrYX0aoxn4Z48AorrBBCaWu9VSa9Qc5BTdok7VqBojYQOkNDgvFVC0rYS9R+pMgGmIpWJHgOtX4W1iC17pEk16Rmo7+bNJizIHfKgeQg571WugCUpKWxucXkC+4lip4yxCxySVjT5LXazRrk2ak31wDci0as7TzA3CKEydfVwjVkjWrkmtYKf4s8mar52LuS1fvIlXLQByT+y6a3UktHN7Nv374h5BpwE2u92SZ/EMJgE9Nmm20WkkXppNpVS5K5h3aCZ0ctQxqxcmlJIau7yKAUqLiqtYCF68kaxdfNAENm5MiRIVtvvXWUFUuyCnPlSjnoQhP/7akiQEqAXAMehGk/eJCpMFG8m++lDXOtJ0+1qPBZKOSoF/I+UtrtQL1GJP8PT6qZoAC0v0Ki1yj8rOZsrpSDPrSOH5SouR5nxSZRQz1aLahNr8S0H4QMuddqekblUtrQVkOtEXoySooIn0X5lHoWEJQxe0/afdPXzMDTYD9VrZ5HI2jzr+SGG24I0cZgqqfa2nNg4mqDyYMPPhiSLF1NoklKkhKr0rQfWGckQ9dcc83u12mjTpsS7R7WQydpB4hPP/nkk598pzZ4vjDCiu6ls86gNGsNC+E51BuWagTlGCSU0Srnwf0hFJs2uVAO3CQlBQkrlcJioYuBm8vNMu0LD6C8CO572g9lctHorRCiaGBRaiGpB3J5XPeiwz1tJP8iWIuaAe8ZY5l7qnUv61xrLpQD2X+dD41mBD64+rlIBgwY0J2QTnuRMPmBe0teSRvi2PRIziktWCzUb4myVh7CIkMHVvVUYpGpBcInXPeiP2vcZwzQWj0H5iSl9HydJbxHdaOWqNeYREqBoo229hzY6CaLjaw8oBxwobQoNFNzm3wgy5U5gMWUNnoIqWDCYCkiKAJi0vVayXgMWV3vZsNCW7rGVAvKQM38JM0AhYbnwNfKBWX9PnKhHEi2qGc6bj1wQ9gUpYR0VolJkz+4/9rkSGIUizZtFFYaPnx4CJvGiggLCHXwCtfWA5tLdfJZO5x+hrJkX0utoCS5LszNLMHLkVcrIY+kdibkgrJ6Hy1VDlg4JAQr5RrwHEgCyZLhe6Zz0OSncyseRNpoLvLwYaRgbRYJ3jPWZr1gmWZVQtxsCBXWGzJkEc7aYk9CVAUBKam0w6ultFQ5MImpUKpUVcHEXHfddUO0EaddJquZORgCMgo4hUxtHCRpo7lIbPfRRx8NqXchaSVU41DhIqVXD1jIlBUXHZ2jnZRaIcxGc8isLPYkbLijZQcGtTw5noOsjOWWKgfiungOyTggCoCJibTLRhxTOzyczIUsNkHy8JF7KLXYigAKjZBErbDYYJk2YxFsBoSV6s05kOtsZg4GT7bUSJHnwvOQFS254zyAbHRj45sUBNBTZ7311gtZaaWVQhRaMp0JVWraECfJwoPgIbzppptCsL7xcouAGu1J2NxXKyhd9hM1czHMEpp4ovhrQUYpVUpZ7bdJggKjASk5MIxm3Rc8u6xoiXIo/eDTpk0LST58pcqBG+Iqpc4Fj2HZZZcNUVmzJAsIL02aNCmk1HLLIxhdKAcKPWqFZ48T1IruOXBdWGewxmtB646OIJZkHesXRFU4tZD3TL5tmWWW6c7BZUVL7jgfnDpslIVAM5L0IRHN903nQriDucEihrufZtwVZUB8mpBEnmERJOdQr0Jj8WsXjwG4LvV4gVKOzDvmYZawRlJZxXtOhlazfh8tUQ5s5KDzarK0jBtA73VOBENjZn1TTH7BQMCiTYYaJWlat1Qr4d2SEMwzLCCcosiJd7XCpjc2nhYdlCZnQNejNBVmozttMwxV1sjSE/zY+KZwKkZRVjRVOXCTSECjFPi+IN6JVYiyKLpra9KDh4IwE8dYZjE/6ILJnGWe5hGUAyWsfF0rXM9mLILNpN7rITS3sk4Ag+YYxgkeBHBvtCZmTVNXW7QfLTLY2MGmHcGGm/79+4fgQWStJU1xYBMkuQcS01nMD5K648ePDyH8mUcIfeE51FtppY2mErz1dqF0oa0FKQU2X2ZtqGqOqaxfQvIcxca90ZqYNU1VDkxWXPRKmpx4J8dFZn0jTPEg1oolh0GRhZXLgsJDmue8A++V2Hq9YJ1mHdNuNo2sJZpbRDWyRsqBsBJrJO89mWfLmqauunzgu+66KySZiBaaiKW5BjyGdpuopn5oNEZpIRsks3C1idvTkC/P7bxJnrNxql5UCSPhOrcLLO71rCX6f83KwSjUTq6LNZJ7QXlxM0r6Z/lPk4Ko0n50W9XRdkK9lJLohqlsVey1114xKrRkTCWoVdcRn+KCCy6oKwFbDczL0047rWuNNdaI13kzVrSjWxx66KEx3nvvvTFWC1a1DpMRW265ZYz1Wtt5gejEwQcfHOOll14aYy3lrOrrdvrpp8frLbbYIsa0YSlWPyzWSBXsCJTBhRdeGOM222yTuffQNOWgpN4ll1wSr48//vgYK/V9IcZJY71mJF5MMcHrZBewlAW5q7TBYtx///27jjnmmHitZHge4BG+6qqrYuT5mj59eozVIEWnUJJQ63yhfE47wPU5//zzYzzxxBNjVBl9teg0wnPPPTdeK6KRBeSHhg0b1rXvvvvGa4ydTTbZJMazzjorRuUdsjZOmqYctMv0uOOOi9fXXXddjMYUBcIrCl9h5GS5O7UWsIxPPfXUGOXdCBlk1aKYuspXBR69cn7txK233hrjkCFDYpSFXi06iRCrPauNl/R7kgI4+eST4zXLMwr/sMMOi7EZYaXM/UUSKsRus3L7jckSPaQSlReWJgtbDe+DXbTJ6r9qUeiIHbftVsIKed3cx9zi/iVbxVN0ofO7Jc3MA2WuHEioqBXB5MmTQ4wpGiy4zz777KfKWglttRKqlNjkVU8JqxYcSoPZW9RusIEsb+fBoBw4f0NhPYWMJCTBKdBBwTWDzJUDZXXShvVMWmPyhBQE1UB5aamBcmDzG4tNLchToHychandoFqpmQtsNbD/i+Z6CgdSukqZNhs+m3lvMlcOfOCxY8c6rGQKjwwdugiz96HVsHub/UP1eDQKXVAm2a5hJdqs0EAvL0qQcJLWSIk6xxI+GjhwYAhnSLSFcsB6obkeyRZjiozmNIsx+wpanXtgcWnEM1cMnsUzL4tm2rDgspGsViVYj0fWG/w+5hFrpb6Hd8O+L957M8lMOfDAjBs3LkQ5B2OKjuY0bV/IoREWaBXkGhrxzFXGSs6hXZUDuRTOXibMVA1asOtJ9PcGyoF5hOegOcYGz0GDBoW0IhSWmXIg16AdpRLFRI1pBzB8yD0w11tB0vJsREkprNRuvZRKQelR+YOnVA26rmnfZ3JEL730UggeoDa30ccJL6cVCjt15cCDw2EptMqopebamDxDTP/mm28OwZNg7jcTWbK0WtAzVutzRmhliSWW6A5htCskeddaa62QDTbYIKSacI3CiBwWhMVfL4T/HnrooZChQ4eGcDiT7sV2220XQlPJtlAOuF4qx5JwQZv90BiTNVOnTg2hg2Yrwkt61ngf9eQc6F2m8zFaEbpoBZwHgpKo5jOr3xGlpo0aAbTjvv3220PoUs3aqaIAFFcr92SkrhxK2wa34oExphlQQkqVEGGCZqJFisWmHouWxaedE9Gl4C0R11f4ZmbIU2TzYz0lzNwbhaWef/75ELU3kbBGsv9CVUl0xm0lqSsH4p8PPPBACHE0Y9oNDqtiUxxl281EiwqGGJZnLbArum/fvt2LZrtDInrVVVcNqaZXkpQ+p7LVk/jH25ByGTFiRAgnYao3mISCgI033rj71LlWKuzUlAOaEe3KBeT7xrQrzHmkmfNdCw6WZz3PGhZqnnYMNwsS8FKMJKl7Wox1nTF8yQ3gQVS67nyPe8P/VW6KfCz/xgY3qqj69OnTnR9pJan9dayWKVOmhKjNgKQea8aYIkHOgcR0rQt0IyjcgeVZaZGaGVioWiBbaaW2AnYfq1S0X79+IT0tylrEtTlNQgEABnClNQ5PgQon/u+NN97Yde2114YQhqQyabPNNgtRY79W7GsoJXXlQPyVi2NMu4MF+corr4TUuju5EVjQa13U+T9YzK2Ob7cCroF6F7E7nF5GlZQElj4JZPZwEdZT3ocNkuQVUCQ6c0Si7tSsjey7oCIJRd1qpQCptezWhREHHHBAjFdeeWWMxnQKO+64Y4wXX3xx0xZbhSpU+ig416IaWPhOOOGEGA8//PDcnE/RbFRUoPyo+NGPfhQjbculDErhkB0OQ+K+q80F+7kmTJgQ49VXXx3jqFGjYlSpMYpcLTzEscceG+Puu+8eY7V7L7ImNc8BSGr15J4Z065gWTYzrKRnjbBELc8clTr0GcqLtdoKdM0U55folD8JyWGs+yRY/niKFCTcd9993YU4OpVPwiZg5ob+VmmnVZ0LImll2WolUvMc2HxzxBFHxHjZZZfF6J3RplPYdNNNY5S12KwEr8JZu+66a7zmMJtK1m4pnCzGoTJaELFoOxFyBsoLCE5942AyKYFStKtcqNpLJD0vVbEJ1kXuibwOVUiJo48+OkblPETePLfUlAP13YSTpEVFM+OvxrSSlVdeOcaDDjqoaW0otOgQCrn88stjVEsPUenRVgJW7LLLLjESBmYXbqdCflRWvtBRnclRvY9UoSSkkAVlv3gWKAvBz2AcqwWG0Gl72ngndttttxg5WS75//NA6seEcjGsFEynQWimmaEBPb6qDhR460qACvKAWvRRVjoLWeyxxx4x9u/fP8Y8hTPyAPkbVVwK5QwweFEg7N9izZOCQWGUehUYDuuvv37kJoTCWCKvIb2mnSFtjMkGQhYqoxWqpBGqlhGKc9MzCStVnoLIm7WaNwg3af8KISc1yRMoCTbE6T5wPZVTEMrrCOUvhDwHFHXePTUrB2MKDgsYcXG17xZa0IQWIRYrlAQtI6i8MZUh3CQvoVQZkE/Ag1C0BA+MajXCSSgJlQ3TJtzKwRjTVHikURpahKhiyvuCVCRQHMmR60x4qcjX28rBmDaDRzr5aLNIWTmkR+l1TiqHdrjeVg7GGGPK8C41Y4wxZVg5GGOMKcPKwRhjTBlWDsYYY8qwcjDGGFOGlYMxxpgyrByMMcaUYeVgjDGmDCsHY4wxZVg5GGOMKcPKwRhjTBlWDsYYY8qwcjDGGFOGlYMxxpgyrByMMcaUYeVgjDGmDCsHY4wxZVg5GGOMKcPKwRhjTBlWDsYYY8qwcjDGGFOGlYMxxpgyrByMMcaUYeVgjDGmDCsHY4wxZVg5GGOMKcPKwRhjTBlWDsYYY8qwcjDGGFOGlYMxxpgyrByMMcaUYeVgjDGmDCsHY4wxZVg5GGOMKcPKwRhjTAldXf8P3WO76ymW4bgAAAAASUVORK5CYII=;" vertex="1" parent="1">
          <mxGeometry x="3150" y="1450" width="450.47" height="303" as="geometry" />
        </mxCell>
        <mxCell id="HHI03vcwuIw9m70cMw0Q-136" value="" style="shape=actor;whiteSpace=wrap;html=1;strokeWidth=7;" vertex="1" parent="1">
          <mxGeometry x="4530" y="1000" width="260" height="350" as="geometry" />
        </mxCell>
        <mxCell id="HHI03vcwuIw9m70cMw0Q-137" value="" style="endArrow=classic;html=1;rounded=0;entryX=1;entryY=0.5;entryDx=0;entryDy=0;exitX=0;exitY=0.75;exitDx=0;exitDy=0;dashed=1;strokeWidth=7;" edge="1" parent="1" source="HHI03vcwuIw9m70cMw0Q-136" target="HHI03vcwuIw9m70cMw0Q-169">
          <mxGeometry width="50" height="50" relative="1" as="geometry">
            <mxPoint x="1690" y="490" as="sourcePoint" />
            <mxPoint x="3480" y="1255" as="targetPoint" />
          </mxGeometry>
        </mxCell>
        <mxCell id="HHI03vcwuIw9m70cMw0Q-138" value="" style="endArrow=classic;html=1;rounded=0;exitX=1;exitY=0.75;exitDx=0;exitDy=0;strokeWidth=5;dashed=1;dashPattern=8 8;entryX=0;entryY=0.5;entryDx=0;entryDy=0;" edge="1" parent="1" source="HHI03vcwuIw9m70cMw0Q-111" target="HHI03vcwuIw9m70cMw0Q-141">
          <mxGeometry width="50" height="50" relative="1" as="geometry">
            <mxPoint x="1690" y="490" as="sourcePoint" />
            <mxPoint x="-390" y="197" as="targetPoint" />
          </mxGeometry>
        </mxCell>
        <mxCell id="HHI03vcwuIw9m70cMw0Q-139" value="" style="endArrow=classic;html=1;rounded=0;entryX=0;entryY=0.5;entryDx=0;entryDy=0;exitX=1;exitY=0.5;exitDx=0;exitDy=0;strokeWidth=5;" edge="1" parent="1" source="HHI03vcwuIw9m70cMw0Q-161" target="HHI03vcwuIw9m70cMw0Q-165">
          <mxGeometry width="50" height="50" relative="1" as="geometry">
            <mxPoint x="1714.0200000000004" y="1341" as="sourcePoint" />
            <mxPoint x="2281.8399999999983" y="1314.9899999999998" as="targetPoint" />
          </mxGeometry>
        </mxCell>
        <mxCell id="HHI03vcwuIw9m70cMw0Q-140" value="" style="endArrow=classic;html=1;rounded=0;entryX=0.5;entryY=0;entryDx=0;entryDy=0;strokeColor=default;endSize=7;strokeWidth=5;exitX=0.5;exitY=1;exitDx=0;exitDy=0;" edge="1" parent="1" source="HHI03vcwuIw9m70cMw0Q-164" target="HHI03vcwuIw9m70cMw0Q-165">
          <mxGeometry width="50" height="50" relative="1" as="geometry">
            <mxPoint x="3160" y="940" as="sourcePoint" />
            <mxPoint x="2510" y="1168.999999999999" as="targetPoint" />
          </mxGeometry>
        </mxCell>
        <mxCell id="HHI03vcwuIw9m70cMw0Q-141" value="&lt;font size=&quot;1&quot;&gt;&lt;b style=&quot;font-size: 32px;&quot;&gt;UniswapV2Router&lt;/b&gt;&lt;/font&gt;" style="rounded=0;whiteSpace=wrap;html=1;strokeColor=#FF0080;strokeWidth=7;" vertex="1" parent="1">
          <mxGeometry x="-460" y="130" width="280" height="160" as="geometry" />
        </mxCell>
        <mxCell id="HHI03vcwuIw9m70cMw0Q-145" value="" style="endArrow=diamondThin;endFill=0;endSize=24;html=1;rounded=0;entryX=1;entryY=0.5;entryDx=0;entryDy=0;exitX=0;exitY=0.5;exitDx=0;exitDy=0;strokeWidth=4;" edge="1" parent="1" source="HHI03vcwuIw9m70cMw0Q-147" target="HHI03vcwuIw9m70cMw0Q-142">
          <mxGeometry width="160" relative="1" as="geometry">
            <mxPoint x="220" y="211" as="sourcePoint" />
            <mxPoint x="120" y="209" as="targetPoint" />
          </mxGeometry>
        </mxCell>
        <mxCell id="HHI03vcwuIw9m70cMw0Q-142" value="&lt;b style=&quot;&quot;&gt;&lt;font style=&quot;font-size: 31px;&quot;&gt;UniswapV2Factory&lt;/font&gt;&lt;/b&gt;" style="rounded=0;whiteSpace=wrap;html=1;strokeColor=#FF0080;strokeWidth=7;" vertex="1" parent="1">
          <mxGeometry x="-130" y="130" width="310" height="160" as="geometry" />
        </mxCell>
        <mxCell id="HHI03vcwuIw9m70cMw0Q-146" value="&lt;b style=&quot;&quot;&gt;&lt;font style=&quot;font-size: 45px;&quot;&gt;ERC20&lt;/font&gt;&lt;/b&gt;" style="rounded=0;whiteSpace=wrap;html=1;strokeColor=#FF0080;strokeWidth=7;" vertex="1" parent="1">
          <mxGeometry x="210" y="-170" width="300" height="160" as="geometry" />
        </mxCell>
        <mxCell id="HHI03vcwuIw9m70cMw0Q-147" value="&lt;b style=&quot;&quot;&gt;&lt;font style=&quot;font-size: 34px;&quot;&gt;UniswapV2Pair&lt;/font&gt;&lt;/b&gt;" style="rounded=0;whiteSpace=wrap;html=1;strokeColor=#FF0080;strokeWidth=7;" vertex="1" parent="1">
          <mxGeometry x="220" y="130" width="280" height="160" as="geometry" />
        </mxCell>
        <mxCell id="HHI03vcwuIw9m70cMw0Q-150" value="&lt;span style=&quot;font-weight: 700; text-wrap: nowrap;&quot;&gt;&lt;font style=&quot;font-size: 42px;&quot;&gt;KappaPoolReactiveContract&amp;nbsp;&lt;/font&gt;&lt;/span&gt;" style="rounded=0;whiteSpace=wrap;html=1;strokeColor=#0000CC;strokeWidth=7;" vertex="1" parent="1">
          <mxGeometry x="1250" y="-160" width="600" height="230" as="geometry" />
        </mxCell>
        <mxCell id="HHI03vcwuIw9m70cMw0Q-152" value="&lt;b style=&quot;&quot;&gt;&lt;font style=&quot;font-size: 45px;&quot;&gt;OFFCHAIN&lt;/font&gt;&lt;/b&gt;&lt;div&gt;&lt;b style=&quot;&quot;&gt;&lt;font style=&quot;font-size: 45px;&quot;&gt;ORACLE&lt;/font&gt;&lt;/b&gt;&lt;/div&gt;" style="rounded=0;whiteSpace=wrap;html=1;strokeColor=#FFFF00;strokeWidth=7;" vertex="1" parent="1">
          <mxGeometry x="100" y="-730" width="300" height="160" as="geometry" />
        </mxCell>
        <mxCell id="HHI03vcwuIw9m70cMw0Q-153" value="&lt;span style=&quot;font-weight: 700; text-wrap: nowrap;&quot;&gt;&lt;font style=&quot;font-size: 55px;&quot;&gt;ExternalMarketLogic&lt;/font&gt;&lt;/span&gt;" style="rounded=0;whiteSpace=wrap;html=1;strokeColor=#0000CC;strokeWidth=7;" vertex="1" parent="1">
          <mxGeometry x="2090" y="-370" width="600" height="230" as="geometry" />
        </mxCell>
        <mxCell id="HHI03vcwuIw9m70cMw0Q-155" value="&lt;span style=&quot;font-weight: 700; text-wrap: nowrap;&quot;&gt;&lt;font style=&quot;font-size: 69px;&quot;&gt;VolumeRouter&lt;/font&gt;&lt;/span&gt;" style="rounded=0;whiteSpace=wrap;html=1;strokeColor=#0000CC;strokeWidth=7;" vertex="1" parent="1">
          <mxGeometry x="1230" y="190" width="600" height="230" as="geometry" />
        </mxCell>
        <mxCell id="HHI03vcwuIw9m70cMw0Q-156" value="&lt;span style=&quot;font-weight: 700; text-wrap: nowrap;&quot;&gt;&lt;font style=&quot;font-size: 58px;&quot;&gt;ExternalMarketData&lt;/font&gt;&lt;/span&gt;" style="rounded=0;whiteSpace=wrap;html=1;strokeColor=#0000CC;strokeWidth=7;" vertex="1" parent="1">
          <mxGeometry x="2080" y="230" width="600" height="230" as="geometry" />
        </mxCell>
        <mxCell id="HHI03vcwuIw9m70cMw0Q-157" value="&lt;span style=&quot;font-weight: 700; text-wrap: nowrap;&quot;&gt;&lt;font style=&quot;font-size: 58px;&quot;&gt;SupplyProcessor&lt;/font&gt;&lt;/span&gt;" style="rounded=0;whiteSpace=wrap;html=1;strokeColor=#0000CC;strokeWidth=7;" vertex="1" parent="1">
          <mxGeometry x="2860" y="70" width="600" height="230" as="geometry" />
        </mxCell>
        <mxCell id="HHI03vcwuIw9m70cMw0Q-158" value="&lt;span style=&quot;font-weight: 700; text-wrap: nowrap;&quot;&gt;&lt;font style=&quot;font-size: 52px;&quot;&gt;BackArbitrageStorage&lt;/font&gt;&lt;/span&gt;" style="rounded=0;whiteSpace=wrap;html=1;strokeColor=#000000;strokeWidth=7;" vertex="1" parent="1">
          <mxGeometry x="760" y="790" width="600" height="230" as="geometry" />
        </mxCell>
        <mxCell id="HHI03vcwuIw9m70cMw0Q-159" value="&lt;span style=&quot;font-weight: 700; text-wrap: nowrap;&quot;&gt;&lt;font style=&quot;font-size: 49px;&quot;&gt;FrontArbitrageStorage&lt;/font&gt;&lt;/span&gt;" style="rounded=0;whiteSpace=wrap;html=1;strokeColor=#000000;strokeWidth=7;" vertex="1" parent="1">
          <mxGeometry x="1400" y="790" width="600" height="230" as="geometry" />
        </mxCell>
        <mxCell id="HHI03vcwuIw9m70cMw0Q-161" value="&lt;span style=&quot;font-weight: 700; text-wrap: nowrap;&quot;&gt;&lt;font style=&quot;font-size: 69px;&quot;&gt;VolumeOracle&lt;/font&gt;&lt;/span&gt;" style="rounded=0;whiteSpace=wrap;html=1;strokeColor=#000000;strokeWidth=7;" vertex="1" parent="1">
          <mxGeometry x="1330" y="1140" width="600" height="230" as="geometry" />
        </mxCell>
        <mxCell id="HHI03vcwuIw9m70cMw0Q-163" value="&lt;span style=&quot;font-weight: 700; text-wrap: nowrap;&quot;&gt;&lt;font style=&quot;font-size: 57px;&quot;&gt;NoiseTradingStorage&lt;/font&gt;&lt;/span&gt;" style="rounded=0;whiteSpace=wrap;html=1;strokeColor=#000000;strokeWidth=7;" vertex="1" parent="1">
          <mxGeometry x="2060" y="780" width="600" height="230" as="geometry" />
        </mxCell>
        <mxCell id="HHI03vcwuIw9m70cMw0Q-164" value="&lt;span style=&quot;font-weight: 700; text-wrap: nowrap;&quot;&gt;&lt;font style=&quot;font-size: 62px;&quot;&gt;LiquidityOracle&lt;/font&gt;&lt;/span&gt;" style="rounded=0;whiteSpace=wrap;html=1;strokeColor=#000000;strokeWidth=7;" vertex="1" parent="1">
          <mxGeometry x="2850" y="780" width="600" height="230" as="geometry" />
        </mxCell>
        <mxCell id="HHI03vcwuIw9m70cMw0Q-165" value="&lt;span style=&quot;font-weight: 700; text-wrap: nowrap;&quot;&gt;&lt;font style=&quot;font-size: 69px;&quot;&gt;KappaOptimal&lt;/font&gt;&lt;/span&gt;&lt;div&gt;&lt;span style=&quot;font-weight: 700; text-wrap: nowrap;&quot;&gt;&lt;font style=&quot;font-size: 69px;&quot;&gt;Pool&lt;/font&gt;&lt;/span&gt;&lt;/div&gt;" style="rounded=0;whiteSpace=wrap;html=1;strokeColor=#00CC00;strokeWidth=7;" vertex="1" parent="1">
          <mxGeometry x="2180" y="1190" width="600" height="230" as="geometry" />
        </mxCell>
        <mxCell id="HHI03vcwuIw9m70cMw0Q-167" value="" style="endArrow=block;endSize=16;endFill=0;html=1;rounded=0;exitX=0.5;exitY=1;exitDx=0;exitDy=0;entryX=0.5;entryY=0;entryDx=0;entryDy=0;strokeColor=#00CC00;strokeWidth=5;" edge="1" parent="1" source="HHI03vcwuIw9m70cMw0Q-165" target="HHI03vcwuIw9m70cMw0Q-166">
          <mxGeometry width="160" relative="1" as="geometry">
            <mxPoint x="2510" y="1482.999999999999" as="sourcePoint" />
            <mxPoint x="2510" y="1620" as="targetPoint" />
          </mxGeometry>
        </mxCell>
        <mxCell id="HHI03vcwuIw9m70cMw0Q-166" value="&lt;span style=&quot;font-size: 69px; text-wrap: nowrap;&quot;&gt;&lt;b&gt;ERC20&lt;/b&gt;&lt;/span&gt;" style="rounded=0;whiteSpace=wrap;html=1;strokeColor=#00CC00;strokeWidth=7;" vertex="1" parent="1">
          <mxGeometry x="2180" y="1510" width="600" height="230" as="geometry" />
        </mxCell>
        <mxCell id="HHI03vcwuIw9m70cMw0Q-168" value="&lt;span style=&quot;font-weight: 700; text-wrap: nowrap;&quot;&gt;&lt;font style=&quot;font-size: 69px;&quot;&gt;KappaFactory&lt;/font&gt;&lt;/span&gt;" style="rounded=0;whiteSpace=wrap;html=1;strokeColor=#00CC00;strokeWidth=7;" vertex="1" parent="1">
          <mxGeometry x="2860" y="1154.5" width="600" height="230" as="geometry" />
        </mxCell>
        <mxCell id="HHI03vcwuIw9m70cMw0Q-169" value="&lt;span style=&quot;font-weight: 700; text-wrap: nowrap;&quot;&gt;&lt;font style=&quot;font-size: 69px;&quot;&gt;KappaUser&lt;/font&gt;&lt;/span&gt;&lt;div&gt;&lt;span style=&quot;font-weight: 700; text-wrap: nowrap;&quot;&gt;&lt;font style=&quot;font-size: 69px;&quot;&gt;API&lt;/font&gt;&lt;/span&gt;&lt;/div&gt;" style="rounded=0;whiteSpace=wrap;html=1;strokeColor=#00CC00;strokeWidth=7;" vertex="1" parent="1">
          <mxGeometry x="3540" y="1150" width="600" height="230" as="geometry" />
        </mxCell>
      </root>
    </mxGraphModel>
  </diagram>
</mxfile>
